<?xml version="1.0" encoding="utf-8"?>
<!-- Generator: Adobe Illustrator 23.0.2, SVG Export Plug-In . SVG Version: 6.00 Build 0)  -->
<svg version="1.1" id="Layer_1" xmlns="http://www.w3.org/2000/svg" xmlns:xlink="http://www.w3.org/1999/xlink" x="0px" y="0px"
	 width="36px" height="36px" viewBox="0 0 36 36" style="enable-background:new 0 0 36 36;" xml:space="preserve">
<style type="text/css">
	.st0{fill:url(#SVGID_1_);}
</style>
<linearGradient id="SVGID_1_" gradientUnits="userSpaceOnUse" x1="-603.75" y1="952.3611" x2="-602.75" y2="952.3611" gradientTransform="matrix(36 0 0 -36 21735 34303)">
	<stop  offset="0" style="stop-color:#FFBD67"/>
	<stop  offset="1" style="stop-color:#FFBD67"/>
</linearGradient>
<path class="st0" d="M18,36c7.9,0,11.9,0,14.8-2.9S36,25.9,36,18S35.7,6.1,32.8,3.2C29.9,0.3,25.9,0,18,0S6.1,0.3,3.2,3.2
	C0.3,6.1,0,10.1,0,18s0.3,11.9,3.2,14.8C6.1,35.7,10.1,36,18,36z"/>
<path d="M19,16h7l-9,13v-9h-7l9-13V16z"/>
</svg>
