<?xml version="1.0" encoding="utf-8"?>
<!-- Generator: Adobe Illustrator 28.0.0, SVG Export Plug-In . SVG Version: 6.00 Build 0)  -->
<svg version="1.1" id="Layer_1" xmlns="http://www.w3.org/2000/svg" xmlns:xlink="http://www.w3.org/1999/xlink" x="0px" y="0px"
	 viewBox="0 0 288.5 421.5" style="enable-background:new 0 0 288.5 421.5;" xml:space="preserve">
<style type="text/css">
	.st0{fill:#FFFFFF;filter:url(#Adobe_OpacityMaskFilter);}
	.st1{opacity:0.9;mask:url(#mask-for-svg61_00000044152224072475189120000005289593058489753263_);}
	.st2{opacity:0.1;fill:#4B4B66;enable-background:new    ;}
	.st3{fill:#4B4B66;}
	.st4{fill:#FFFFFF;filter:url(#Adobe_OpacityMaskFilter_00000119800599695166715500000010763383886836523393_);}
	.st5{mask:url(#mask-for-alinea-EntryTree-tree-item-label-itemName11_00000028312289140782631360000013558331697127908761_);}
	.st6{enable-background:new    ;}
	.st7{fill:none;}
	.st8{font-family:'Inter-Regular';}
	.st9{font-size:13px;}
	.st10{fill:#FFFFFF;filter:url(#Adobe_OpacityMaskFilter_00000075130812095510745190000014005099160049161112_);}
	.st11{mask:url(#mask-for-svg71_00000169523369771479916790000016722845307811733652_);}
	.st12{fill:#FFFFFF;filter:url(#Adobe_OpacityMaskFilter_00000133519029672621594200000009090296526865103271_);}
	.st13{opacity:0.9;mask:url(#mask-for-svg81_00000147905787245495412060000009792976393210701696_);}
	.st14{fill:#FFFFFF;filter:url(#Adobe_OpacityMaskFilter_00000016777147536383139740000012370306408409550752_);}
	.st15{mask:url(#mask-for-alinea-EntryTree-tree-item-label-itemName21_00000019679679845950485630000009012454468375159996_);}
	.st16{fill:#FFFFFF;filter:url(#Adobe_OpacityMaskFilter_00000042698375463581233670000006781525779414580864_);}
	.st17{mask:url(#mask-for-svg91_00000106827543799294345820000001220528534824548026_);}
	.st18{fill:#FFFFFF;filter:url(#Adobe_OpacityMaskFilter_00000054265255540365590020000002491614134835263110_);}
	.st19{opacity:0.9;mask:url(#mask-for-svg101_00000028305554131000406730000017456759193865885340_);}
	.st20{fill:#FFFFFF;filter:url(#Adobe_OpacityMaskFilter_00000088094458836094716750000008795706258195680898_);}
	.st21{mask:url(#mask-for-alinea-EntryTree-tree-item-label-itemName31_00000152942706170630709620000016033061675936420274_);}
	.st22{fill:#FFFFFF;filter:url(#Adobe_OpacityMaskFilter_00000169519573582899328700000008732124420746861751_);}
	.st23{opacity:0.9;mask:url(#mask-for-svg111_00000047759395096973982570000009683464367132731528_);}
	.st24{fill:#FFFFFF;filter:url(#Adobe_OpacityMaskFilter_00000178177885674627680210000008370069895100727175_);}
	.st25{mask:url(#mask-for-alinea-EntryTree-tree-item-label-itemName41_00000143588508491988403550000006467305818078301628_);}
	.st26{fill:#FFFFFF;filter:url(#Adobe_OpacityMaskFilter_00000154384030021544988590000009867607989763384226_);}
	.st27{mask:url(#mask-for-svg121_00000086675398321456394890000007813133373181846696_);}
	.st28{fill:#FFFFFF;filter:url(#Adobe_OpacityMaskFilter_00000070812420381085642450000006881338499292693157_);}
	.st29{opacity:0.9;mask:url(#mask-for-svg131_00000077315180306262393680000018387624751653433474_);}
	.st30{fill:#FFFFFF;filter:url(#Adobe_OpacityMaskFilter_00000054232504835061141340000001997147613139083941_);}
	.st31{mask:url(#mask-for-alinea-EntryTree-tree-item-label-itemName51_00000009553167955610277930000017948989647573210800_);}
	.st32{fill:#FFFFFF;filter:url(#Adobe_OpacityMaskFilter_00000032649354801343553020000006913135454522805134_);}
	.st33{mask:url(#mask-for-svg141_00000056389005617345680000000000155821157342615693_);}
	.st34{fill:#FFFFFF;filter:url(#Adobe_OpacityMaskFilter_00000065759215721961973620000004258891223018504616_);}
	.st35{opacity:0.9;mask:url(#mask-for-svg151_00000035497698122289919200000010360662729932239026_);}
	.st36{fill:#FFFFFF;filter:url(#Adobe_OpacityMaskFilter_00000072249837994637596990000000062477307506693027_);}
	.st37{mask:url(#mask-for-svg161_00000019641160756709595310000012488058037241971360_);}
	.st38{fill:#FFFFFF;filter:url(#Adobe_OpacityMaskFilter_00000057135896405871943150000006284292718393726865_);}
	.st39{opacity:0.9;mask:url(#mask-for-svg171_00000152946728396510921840000015679586879556119438_);}
	.st40{fill:#FFFFFF;filter:url(#Adobe_OpacityMaskFilter_00000120520037477377826440000015410081613714862260_);}
	.st41{mask:url(#mask-for-alinea-EntryTree-tree-item-label-itemName71_00000013890731042663423230000009329576957807720125_);}
	.st42{fill:#F1F3FD;}
	.st43{fill:#FFFFFF;filter:url(#Adobe_OpacityMaskFilter_00000091701135698419330850000005152850028862114203_);}
	.st44{opacity:0.9;mask:url(#mask-for-svg181_00000049915035927863520740000017857322730095125915_);}
	.st45{opacity:0.1;fill:#3F61E8;enable-background:new    ;}
	.st46{fill:#3F61E8;}
	.st47{fill:#FFFFFF;filter:url(#Adobe_OpacityMaskFilter_00000163753809986838182160000018025926093317095815_);}
	.st48{mask:url(#mask-for-alinea-EntryTree-tree-item-label-itemName81_00000181059352062638429350000016685369216518451885_);}
	.st49{font-family:'Inter-SemiBold';}
	.st50{fill:#FFFFFF;filter:url(#Adobe_OpacityMaskFilter_00000121255189617139032680000001887583677319114677_);}
	.st51{opacity:0.9;mask:url(#mask-for-svg191_00000096055309486092876160000000651246050463496885_);}
	.st52{fill:#FFFFFF;filter:url(#Adobe_OpacityMaskFilter_00000047049345040529312090000000661561552506525588_);}
	.st53{mask:url(#mask-for-alinea-EntryTree-tree-item-label-itemName91_00000113336439751251594670000003291806554151766152_);}
	.st54{fill:#FFFFFF;filter:url(#Adobe_OpacityMaskFilter_00000107560355222278157140000002741183829556883619_);}
	.st55{opacity:0.9;mask:url(#mask-for-svg201_00000081628055716408013830000002219141305224306095_);}
	.st56{fill:#FFFFFF;filter:url(#Adobe_OpacityMaskFilter_00000163754302299353785670000002504249296551479691_);}
	.st57{mask:url(#mask-for-alinea-EntryTree-tree-item-label-itemName101_00000003072738576949673290000017996109948650746557_);}
	.st58{fill:#FFFFFF;filter:url(#Adobe_OpacityMaskFilter_00000146472873128851480130000014705152821152179091_);}
	.st59{opacity:0.9;mask:url(#mask-for-svg211_00000070085827235737899590000002088886718617899416_);}
	.st60{fill:#FFFFFF;filter:url(#Adobe_OpacityMaskFilter_00000183208183978191001930000010749613778716490409_);}
	.st61{mask:url(#mask-for-alinea-EntryTree-tree-item-label-itemName111_00000159457079893423221610000001959027106494825661_);}
	.st62{fill:#FFFFFF;filter:url(#Adobe_OpacityMaskFilter_00000098916062652123673500000014404054328325403053_);}
	.st63{mask:url(#mask-for-svg221_00000163040631279270774720000018400326131609490605_);}
	.st64{fill:#FFFFFF;filter:url(#Adobe_OpacityMaskFilter_00000128478706080267539860000008924417286429092503_);}
	.st65{opacity:0.9;mask:url(#mask-for-svg231_00000035499081909342808790000002604299449227849396_);}
	.st66{fill:#FFFFFF;filter:url(#Adobe_OpacityMaskFilter_00000183946847879436016110000016041380826909049014_);}
	.st67{mask:url(#mask-for-alinea-EntryTree-tree-item-label-itemName121_00000069372583944323844860000015220149296057457800_);}
	.st68{fill:#FFFFFF;filter:url(#Adobe_OpacityMaskFilter_00000098212190612297291120000014498633671766848174_);}
	.st69{mask:url(#mask-for-svg241_00000065771315672890404020000014288444918506890134_);}
	.st70{fill:#FFFFFF;filter:url(#Adobe_OpacityMaskFilter_00000160899161638437707400000003206302022387756444_);}
	.st71{opacity:0.9;mask:url(#mask-for-svg251_00000130622299274517245340000008697179228553375396_);}
	.st72{fill:#FFFFFF;filter:url(#Adobe_OpacityMaskFilter_00000126292835531083349180000000829881275721165719_);}
	.st73{mask:url(#mask-for-alinea-EntryTree-tree-item-label-itemName131_00000016754298848748560640000012991302855731002017_);}
	.st74{fill:#FFFFFF;filter:url(#Adobe_OpacityMaskFilter_00000130618731313306737690000006884349379566148768_);}
	.st75{mask:url(#mask-for-alinea-EntryTree-tree-item-label-itemName71_00000052062010492627463370000012088543081868233899_);}
</style>
<g id="alinea-EntryTree-tree-item-arrow1">
</g>
<g id="alinea-EntryTree-tree-item-icon1">
	<g id="alinea-Icon6">
		<defs>
			<filter id="Adobe_OpacityMaskFilter" filterUnits="userSpaceOnUse" x="33" y="19" width="8" height="10">
				<feColorMatrix  type="matrix" values="1 0 0 0 0  0 1 0 0 0  0 0 1 0 0  0 0 0 1 0"/>
			</filter>
		</defs>
		
			<mask maskUnits="userSpaceOnUse" x="33" y="19" width="8" height="10" id="mask-for-svg61_00000044152224072475189120000005289593058489753263_">
			<rect x="31" y="18" class="st0" width="12" height="12"/>
		</mask>
		<g id="svg6" class="st1">
			<g transform="matrix(0.5, 0, 0, 0.5, 97, 108)">
				<path class="st2" d="M-119-176h-7v16h12v-11h-5V-176z M-116-162h-8v-2h8V-162z M-116-168v2h-8v-2H-116z"/>
				<path class="st3" d="M-124-164h8v2h-8V-164z M-124-168h8v2h-8V-168z M-118-178h-8c-1.1,0-2,0.9-2,2v16c0,1.1,0.9,2,2,2h12
					c1.1,0,2-0.9,2-2v-12L-118-178z M-114-160h-12v-16h7v5h5V-160z"/>
			</g>
		</g>
	</g>
</g>
<defs>
	
		<filter id="Adobe_OpacityMaskFilter_00000068654189519036927230000015240990648388100276_" filterUnits="userSpaceOnUse" x="50" y="18.1" width="104.1" height="26.4">
		<feColorMatrix  type="matrix" values="1 0 0 0 0  0 1 0 0 0  0 0 1 0 0  0 0 0 1 0"/>
	</filter>
</defs>
<mask maskUnits="userSpaceOnUse" x="50" y="18.1" width="104.1" height="26.4" id="mask-for-alinea-EntryTree-tree-item-label-itemName11_00000028312289140782631360000013558331697127908761_">
	
		<rect x="50" y="10" style="fill:#FFFFFF;filter:url(#Adobe_OpacityMaskFilter_00000068654189519036927230000015240990648388100276_);" width="116.6" height="25"/>
</mask>
<g id="alinea-EntryTree-tree-item-label-itemName1" class="st5">
	<g class="st6">
		<rect x="50" y="18.1" class="st7" width="104.1" height="26.4"/>
		<text transform="matrix(1 0 0 1 50 29.3169)" class="st3 st8 st9">Homepage</text>
	</g>
</g>
<g id="alinea-Icon7">
	<defs>
		
			<filter id="Adobe_OpacityMaskFilter_00000110447328283940576250000001002040824990921629_" filterUnits="userSpaceOnUse" x="19.7" y="52.7" width="3.8" height="6.5">
			<feColorMatrix  type="matrix" values="1 0 0 0 0  0 1 0 0 0  0 0 1 0 0  0 0 0 1 0"/>
		</filter>
	</defs>
	
		<mask maskUnits="userSpaceOnUse" x="19.7" y="52.7" width="3.8" height="6.5" id="mask-for-svg71_00000169523369771479916790000016722845307811733652_">
		
			<rect x="14.5" y="49" style="fill:#FFFFFF;filter:url(#Adobe_OpacityMaskFilter_00000110447328283940576250000001002040824990921629_);" width="14" height="14"/>
	</mask>
	<g id="svg7" class="st11">
		<g transform="matrix(0.583333, 0, 0, 0.583333, 80.5, 139)">
			<path class="st3" d="M-103.9-138.4l3.9-3.9l-3.9-3.9c-0.4-0.4-0.4-1,0-1.4s1-0.4,1.4,0l4.6,4.6c0.4,0.4,0.4,1,0,1.4l-4.6,4.6
				c-0.4,0.4-1,0.4-1.4,0c0,0,0,0,0,0C-104.2-137.4-104.2-138-103.9-138.4z"/>
		</g>
	</g>
</g>
<g id="alinea-EntryTree-tree-item-icon2">
	<g id="alinea-Icon8">
		<defs>
			
				<filter id="Adobe_OpacityMaskFilter_00000074440375276092376620000011222072312005795501_" filterUnits="userSpaceOnUse" x="32" y="52" width="10" height="8">
				<feColorMatrix  type="matrix" values="1 0 0 0 0  0 1 0 0 0  0 0 1 0 0  0 0 0 1 0"/>
			</filter>
		</defs>
		
			<mask maskUnits="userSpaceOnUse" x="32" y="52" width="10" height="8" id="mask-for-svg81_00000147905787245495412060000009792976393210701696_">
			
				<rect x="31" y="50" style="fill:#FFFFFF;filter:url(#Adobe_OpacityMaskFilter_00000074440375276092376620000011222072312005795501_);" width="12" height="12"/>
		</mask>
		<g id="svg8" class="st13">
			<g transform="matrix(0.5, 0, 0, 0.5, 97, 140)">
				<path class="st2" d="M-120.8-172l-0.6-0.6l-1.4-1.4h-5.2v12h16v-10h-8H-120.8z"/>
				<path class="st3" d="M-112-174h-8l-2-2h-6c-1.1,0-2,0.9-2,2l0,12c0,1.1,0.9,2,2,2h16c1.1,0,2-0.9,2-2v-10
					C-110-173.1-110.9-174-112-174 M-112-162h-16v-12h5.2l1.4,1.4l0.6,0.6h8.8V-162z"/>
			</g>
		</g>
	</g>
</g>
<defs>
	
		<filter id="Adobe_OpacityMaskFilter_00000181061983421633974730000002778285212213791672_" filterUnits="userSpaceOnUse" x="50" y="50.1" width="60.7" height="19.1">
		<feColorMatrix  type="matrix" values="1 0 0 0 0  0 1 0 0 0  0 0 1 0 0  0 0 0 1 0"/>
	</filter>
</defs>
<mask maskUnits="userSpaceOnUse" x="50" y="50.1" width="60.7" height="19.1" id="mask-for-alinea-EntryTree-tree-item-label-itemName21_00000019679679845950485630000009012454468375159996_">
	
		<rect x="50" y="44.2" style="fill:#FFFFFF;filter:url(#Adobe_OpacityMaskFilter_00000181061983421633974730000002778285212213791672_);" width="111.6" height="18.1"/>
</mask>
<g id="alinea-EntryTree-tree-item-label-itemName2" class="st15">
	<g class="st6">
		<rect x="50" y="50.1" class="st7" width="60.7" height="19.1"/>
		<text transform="matrix(1 0 0 1 50 61.3169)" class="st3 st8 st9">Blog</text>
	</g>
</g>
<g id="alinea-Icon9">
	<defs>
		
			<filter id="Adobe_OpacityMaskFilter_00000151535349175572302200000000223743260346229906_" filterUnits="userSpaceOnUse" x="18.2" y="86.2" width="6.5" height="3.8">
			<feColorMatrix  type="matrix" values="1 0 0 0 0  0 1 0 0 0  0 0 1 0 0  0 0 0 1 0"/>
		</filter>
	</defs>
	
		<mask maskUnits="userSpaceOnUse" x="18.2" y="86.2" width="6.5" height="3.8" id="mask-for-svg91_00000106827543799294345820000001220528534824548026_">
		
			<rect x="14.5" y="81" style="fill:#FFFFFF;filter:url(#Adobe_OpacityMaskFilter_00000151535349175572302200000000223743260346229906_);" width="14" height="14"/>
	</mask>
	<g id="svg9" class="st17">
		<g transform="matrix(0.583333, 0, 0, 0.583333, 80.5, 171)">
			<path class="st3" d="M-105-145l3.9,3.9l3.9-3.9c0.4-0.4,1-0.4,1.4,0s0.4,1,0,1.4l0,0l-4.6,4.6c-0.4,0.4-1,0.4-1.4,0c0,0,0,0,0,0
				l-4.6-4.6c-0.4-0.4-0.4-1,0-1.4c0,0,0,0,0,0C-106.1-145.4-105.4-145.4-105-145z"/>
		</g>
	</g>
</g>
<g id="alinea-EntryTree-tree-item-icon3">
	<g id="alinea-Icon10">
		<defs>
			
				<filter id="Adobe_OpacityMaskFilter_00000038389241930016497030000000155899522869152959_" filterUnits="userSpaceOnUse" x="32" y="84" width="10" height="8">
				<feColorMatrix  type="matrix" values="1 0 0 0 0  0 1 0 0 0  0 0 1 0 0  0 0 0 1 0"/>
			</filter>
		</defs>
		
			<mask maskUnits="userSpaceOnUse" x="32" y="84" width="10" height="8" id="mask-for-svg101_00000028305554131000406730000017456759193865885340_">
			
				<rect x="31" y="82" style="fill:#FFFFFF;filter:url(#Adobe_OpacityMaskFilter_00000038389241930016497030000000155899522869152959_);" width="12" height="12"/>
		</mask>
		<g id="svg10" class="st19">
			<g transform="matrix(0.5, 0, 0, 0.5, 97, 172)">
				<path class="st2" d="M-120.8-172l-0.6-0.6l-1.4-1.4h-5.2v12h16v-10h-8H-120.8z"/>
				<path class="st3" d="M-112-174h-8l-2-2h-6c-1.1,0-2,0.9-2,2l0,12c0,1.1,0.9,2,2,2h16c1.1,0,2-0.9,2-2v-10
					C-110-173.1-110.9-174-112-174 M-112-162h-16v-12h5.2l1.4,1.4l0.6,0.6h8.8V-162z"/>
			</g>
		</g>
	</g>
</g>
<defs>
	
		<filter id="Adobe_OpacityMaskFilter_00000019670347878543479610000002195262543063831694_" filterUnits="userSpaceOnUse" x="50" y="82.1" width="38.7" height="21">
		<feColorMatrix  type="matrix" values="1 0 0 0 0  0 1 0 0 0  0 0 1 0 0  0 0 0 1 0"/>
	</filter>
</defs>
<mask maskUnits="userSpaceOnUse" x="50" y="82.1" width="38.7" height="21" id="mask-for-alinea-EntryTree-tree-item-label-itemName31_00000152942706170630709620000016033061675936420274_">
	
		<rect x="50" y="75.7" style="fill:#FFFFFF;filter:url(#Adobe_OpacityMaskFilter_00000019670347878543479610000002195262543063831694_);" width="62.1" height="19.9"/>
</mask>
<g id="alinea-EntryTree-tree-item-label-itemName3" class="st21">
	<g class="st6">
		<rect x="50" y="82.1" class="st7" width="38.7" height="21"/>
		<text transform="matrix(1 0 0 1 50 93.3169)" class="st3 st8 st9">Docs</text>
	</g>
</g>
<g id="alinea-EntryTree-tree-item-arrow4">
</g>
<g id="alinea-EntryTree-tree-item-icon4">
	<g id="alinea-Icon11">
		<defs>
			
				<filter id="Adobe_OpacityMaskFilter_00000010274461838667350560000009569073234763615627_" filterUnits="userSpaceOnUse" x="47" y="115" width="8" height="10">
				<feColorMatrix  type="matrix" values="1 0 0 0 0  0 1 0 0 0  0 0 1 0 0  0 0 0 1 0"/>
			</filter>
		</defs>
		
			<mask maskUnits="userSpaceOnUse" x="47" y="115" width="8" height="10" id="mask-for-svg111_00000047759395096973982570000009683464367132731528_">
			
				<rect x="45" y="114" style="fill:#FFFFFF;filter:url(#Adobe_OpacityMaskFilter_00000010274461838667350560000009569073234763615627_);" width="12" height="12"/>
		</mask>
		<g id="svg11" class="st23">
			<g transform="matrix(0.5, 0, 0, 0.5, 111, 204)">
				<path class="st2" d="M-119-176h-7v16h12v-11h-5V-176z M-116-162h-8v-2h8V-162z M-116-168v2h-8v-2H-116z"/>
				<path class="st3" d="M-124-164h8v2h-8V-164z M-124-168h8v2h-8V-168z M-118-178h-8c-1.1,0-2,0.9-2,2v16c0,1.1,0.9,2,2,2h12
					c1.1,0,2-0.9,2-2v-12L-118-178z M-114-160h-12v-16h7v5h5V-160z"/>
			</g>
		</g>
	</g>
</g>
<defs>
	
		<filter id="Adobe_OpacityMaskFilter_00000152264485335584894020000012020548939286131611_" filterUnits="userSpaceOnUse" x="64" y="114.1" width="93.4" height="27.2">
		<feColorMatrix  type="matrix" values="1 0 0 0 0  0 1 0 0 0  0 0 1 0 0  0 0 0 1 0"/>
	</filter>
</defs>
<mask maskUnits="userSpaceOnUse" x="64" y="114.1" width="93.4" height="27.2" id="mask-for-alinea-EntryTree-tree-item-label-itemName41_00000143588508491988403550000006467305818078301628_">
	
		<rect x="64" y="105.7" style="fill:#FFFFFF;filter:url(#Adobe_OpacityMaskFilter_00000152264485335584894020000012020548939286131611_);" width="101.4" height="25.8"/>
</mask>
<g id="alinea-EntryTree-tree-item-label-itemName4" class="st25">
	<g class="st6">
		<rect x="64" y="114.1" class="st7" width="93.4" height="27.2"/>
		<text transform="matrix(1 0 0 1 64 125.3169)" class="st3 st8 st9">Getting started</text>
	</g>
</g>
<g id="alinea-Icon12">
	<defs>
		
			<filter id="Adobe_OpacityMaskFilter_00000134231549777385944550000016308493439430360991_" filterUnits="userSpaceOnUse" x="33.7" y="148.7" width="3.8" height="6.5">
			<feColorMatrix  type="matrix" values="1 0 0 0 0  0 1 0 0 0  0 0 1 0 0  0 0 0 1 0"/>
		</filter>
	</defs>
	
		<mask maskUnits="userSpaceOnUse" x="33.7" y="148.7" width="3.8" height="6.5" id="mask-for-svg121_00000086675398321456394890000007813133373181846696_">
		
			<rect x="28.5" y="145" style="fill:#FFFFFF;filter:url(#Adobe_OpacityMaskFilter_00000134231549777385944550000016308493439430360991_);" width="14" height="14"/>
	</mask>
	<g id="svg12" class="st27">
		<g transform="matrix(0.583333, 0, 0, 0.583333, 94.5, 235)">
			<path class="st3" d="M-103.9-138.4l3.9-3.9l-3.9-3.9c-0.4-0.4-0.4-1,0-1.4s1-0.4,1.4,0l4.6,4.6c0.4,0.4,0.4,1,0,1.4l-4.6,4.6
				c-0.4,0.4-1,0.4-1.4,0c0,0,0,0,0,0C-104.2-137.4-104.2-138-103.9-138.4z"/>
		</g>
	</g>
</g>
<g id="alinea-EntryTree-tree-item-icon5">
	<g id="alinea-Icon13">
		<defs>
			
				<filter id="Adobe_OpacityMaskFilter_00000140720863074788136850000013584684031913632944_" filterUnits="userSpaceOnUse" x="46" y="148" width="10" height="8">
				<feColorMatrix  type="matrix" values="1 0 0 0 0  0 1 0 0 0  0 0 1 0 0  0 0 0 1 0"/>
			</filter>
		</defs>
		
			<mask maskUnits="userSpaceOnUse" x="46" y="148" width="10" height="8" id="mask-for-svg131_00000077315180306262393680000018387624751653433474_">
			
				<rect x="45" y="146" style="fill:#FFFFFF;filter:url(#Adobe_OpacityMaskFilter_00000140720863074788136850000013584684031913632944_);" width="12" height="12"/>
		</mask>
		<g id="svg13" class="st29">
			<g transform="matrix(0.5, 0, 0, 0.5, 111, 236)">
				<path class="st2" d="M-120.8-172l-0.6-0.6l-1.4-1.4h-5.2v12h16v-10h-8H-120.8z"/>
				<path class="st3" d="M-112-174h-8l-2-2h-6c-1.1,0-2,0.9-2,2l0,12c0,1.1,0.9,2,2,2h16c1.1,0,2-0.9,2-2v-10
					C-110-173.1-110.9-174-112-174 M-112-162h-16v-12h5.2l1.4,1.4l0.6,0.6h8.8V-162z"/>
			</g>
		</g>
	</g>
</g>
<defs>
	
		<filter id="Adobe_OpacityMaskFilter_00000115472886987248617330000003003238871648250786_" filterUnits="userSpaceOnUse" x="64" y="146.1" width="95.4" height="23.4">
		<feColorMatrix  type="matrix" values="1 0 0 0 0  0 1 0 0 0  0 0 1 0 0  0 0 0 1 0"/>
	</filter>
</defs>
<mask maskUnits="userSpaceOnUse" x="64" y="146.1" width="95.4" height="23.4" id="mask-for-alinea-EntryTree-tree-item-label-itemName51_00000009553167955610277930000017948989647573210800_">
	
		<rect x="64" y="138.9" style="fill:#FFFFFF;filter:url(#Adobe_OpacityMaskFilter_00000115472886987248617330000003003238871648250786_);" width="104.6" height="22.2"/>
</mask>
<g id="alinea-EntryTree-tree-item-label-itemName5" class="st31">
	<g class="st6">
		<rect x="64" y="146.1" class="st7" width="95.4" height="23.4"/>
		<text transform="matrix(1 0 0 1 64 157.3169)" class="st3 st8 st9">Configuration</text>
	</g>
</g>
<g id="alinea-Icon14">
	<defs>
		
			<filter id="Adobe_OpacityMaskFilter_00000109021812663828642810000002317132949361360555_" filterUnits="userSpaceOnUse" x="33.7" y="180.7" width="3.8" height="6.5">
			<feColorMatrix  type="matrix" values="1 0 0 0 0  0 1 0 0 0  0 0 1 0 0  0 0 0 1 0"/>
		</filter>
	</defs>
	
		<mask maskUnits="userSpaceOnUse" x="33.7" y="180.7" width="3.8" height="6.5" id="mask-for-svg141_00000056389005617345680000000000155821157342615693_">
		
			<rect x="28.5" y="177" style="fill:#FFFFFF;filter:url(#Adobe_OpacityMaskFilter_00000109021812663828642810000002317132949361360555_);" width="14" height="14"/>
	</mask>
	<g id="svg14" class="st33">
		<g transform="matrix(0.583333, 0, 0, 0.583333, 94.5, 267)">
			<path class="st3" d="M-103.9-138.4l3.9-3.9l-3.9-3.9c-0.4-0.4-0.4-1,0-1.4s1-0.4,1.4,0l4.6,4.6c0.4,0.4,0.4,1,0,1.4l-4.6,4.6
				c-0.4,0.4-1,0.4-1.4,0c0,0,0,0,0,0C-104.2-137.4-104.2-138-103.9-138.4z"/>
		</g>
	</g>
</g>
<g id="alinea-EntryTree-tree-item-icon6">
	<g id="alinea-Icon15">
		<defs>
			
				<filter id="Adobe_OpacityMaskFilter_00000009584194368706846550000004955847710229962146_" filterUnits="userSpaceOnUse" x="46" y="180" width="10" height="8">
				<feColorMatrix  type="matrix" values="1 0 0 0 0  0 1 0 0 0  0 0 1 0 0  0 0 0 1 0"/>
			</filter>
		</defs>
		
			<mask maskUnits="userSpaceOnUse" x="46" y="180" width="10" height="8" id="mask-for-svg151_00000035497698122289919200000010360662729932239026_">
			
				<rect x="45" y="178" style="fill:#FFFFFF;filter:url(#Adobe_OpacityMaskFilter_00000009584194368706846550000004955847710229962146_);" width="12" height="12"/>
		</mask>
		<g id="svg15" class="st35">
			<g transform="matrix(0.5, 0, 0, 0.5, 111, 268)">
				<path class="st2" d="M-120.8-172l-0.6-0.6l-1.4-1.4h-5.2v12h16v-10h-8H-120.8z"/>
				<path class="st3" d="M-112-174h-8l-2-2h-6c-1.1,0-2,0.9-2,2l0,12c0,1.1,0.9,2,2,2h16c1.1,0,2-0.9,2-2v-10
					C-110-173.1-110.9-174-112-174 M-112-162h-16v-12h5.2l1.4,1.4l0.6,0.6h8.8V-162z"/>
			</g>
		</g>
	</g>
</g>
<g id="alinea-Icon16">
	<defs>
		
			<filter id="Adobe_OpacityMaskFilter_00000031197846852479483400000008580960378808112828_" filterUnits="userSpaceOnUse" x="32.2" y="214.2" width="6.5" height="3.8">
			<feColorMatrix  type="matrix" values="1 0 0 0 0  0 1 0 0 0  0 0 1 0 0  0 0 0 1 0"/>
		</filter>
	</defs>
	
		<mask maskUnits="userSpaceOnUse" x="32.2" y="214.2" width="6.5" height="3.8" id="mask-for-svg161_00000019641160756709595310000012488058037241971360_">
		
			<rect x="28.5" y="209" style="fill:#FFFFFF;filter:url(#Adobe_OpacityMaskFilter_00000031197846852479483400000008580960378808112828_);" width="14" height="14"/>
	</mask>
	<g id="svg16" class="st37">
		<g transform="matrix(0.583333, 0, 0, 0.583333, 94.5, 299)">
			<path class="st3" d="M-105-145l3.9,3.9l3.9-3.9c0.4-0.4,1-0.4,1.4,0s0.4,1,0,1.4l0,0l-4.6,4.6c-0.4,0.4-1,0.4-1.4,0c0,0,0,0,0,0
				l-4.6-4.6c-0.4-0.4-0.4-1,0-1.4c0,0,0,0,0,0C-106.1-145.4-105.4-145.4-105-145z"/>
		</g>
	</g>
</g>
<g id="alinea-EntryTree-tree-item-icon7">
	<g id="alinea-Icon17">
		<defs>
			
				<filter id="Adobe_OpacityMaskFilter_00000182496173940550530020000000344014880163322509_" filterUnits="userSpaceOnUse" x="46" y="212" width="10" height="8">
				<feColorMatrix  type="matrix" values="1 0 0 0 0  0 1 0 0 0  0 0 1 0 0  0 0 0 1 0"/>
			</filter>
		</defs>
		
			<mask maskUnits="userSpaceOnUse" x="46" y="212" width="10" height="8" id="mask-for-svg171_00000152946728396510921840000015679586879556119438_">
			
				<rect x="45" y="210" style="fill:#FFFFFF;filter:url(#Adobe_OpacityMaskFilter_00000182496173940550530020000000344014880163322509_);" width="12" height="12"/>
		</mask>
		<g id="svg17" class="st39">
			<g transform="matrix(0.5, 0, 0, 0.5, 111, 300)">
				<path class="st2" d="M-120.8-172l-0.6-0.6l-1.4-1.4h-5.2v12h16v-10h-8H-120.8z"/>
				<path class="st3" d="M-112-174h-8l-2-2h-6c-1.1,0-2,0.9-2,2l0,12c0,1.1,0.9,2,2,2h16c1.1,0,2-0.9,2-2v-10
					C-110-173.1-110.9-174-112-174 M-112-162h-16v-12h5.2l1.4,1.4l0.6,0.6h8.8V-162z"/>
			</g>
		</g>
	</g>
</g>
<defs>
	
		<filter id="Adobe_OpacityMaskFilter_00000147909923453363249170000005772075248915757444_" filterUnits="userSpaceOnUse" x="64" y="210.1" width="63.6" height="17.4">
		<feColorMatrix  type="matrix" values="1 0 0 0 0  0 1 0 0 0  0 0 1 0 0  0 0 0 1 0"/>
	</filter>
</defs>
<mask maskUnits="userSpaceOnUse" x="64" y="210.1" width="63.6" height="17.4" id="mask-for-alinea-EntryTree-tree-item-label-itemName71_00000013890731042663423230000009329576957807720125_">
	
		<rect x="64" y="204.8" style="fill:#FFFFFF;filter:url(#Adobe_OpacityMaskFilter_00000147909923453363249170000005772075248915757444_);" width="73.9" height="16.5"/>
</mask>
<g id="alinea-EntryTree-tree-item-label-itemName7" class="st41">
	<g class="st6">
		<rect x="64" y="210.1" class="st7" width="63.6" height="17.4"/>
		<text transform="matrix(1 0 0 1 64 221.3169)" class="st3 st8 st9">Content</text>
	</g>
</g>
<path class="st42" d="M14,232h262c3.3,0,6,2.7,6,6v20c0,3.3-2.7,6-6,6H14c-3.3,0-6-2.7-6-6v-20C8,234.7,10.7,232,14,232z"/>
<g id="alinea-EntryTree-tree-item-arrow8">
</g>
<g id="alinea-EntryTree-tree-item-icon8">
	<g id="alinea-Icon18">
		<defs>
			
				<filter id="Adobe_OpacityMaskFilter_00000125578662799837903160000006217034256434131113_" filterUnits="userSpaceOnUse" x="61" y="243" width="8" height="10">
				<feColorMatrix  type="matrix" values="1 0 0 0 0  0 1 0 0 0  0 0 1 0 0  0 0 0 1 0"/>
			</filter>
		</defs>
		
			<mask maskUnits="userSpaceOnUse" x="61" y="243" width="8" height="10" id="mask-for-svg181_00000049915035927863520740000017857322730095125915_">
			
				<rect x="59" y="242" style="fill:#FFFFFF;filter:url(#Adobe_OpacityMaskFilter_00000125578662799837903160000006217034256434131113_);" width="12" height="12"/>
		</mask>
		<g id="svg18" class="st44">
			<g transform="matrix(0.5, 0, 0, 0.5, 125, 332)">
				<path class="st45" d="M-119-176h-7v16h12v-11h-5V-176z M-116-162h-8v-2h8V-162z M-116-168v2h-8v-2H-116z"/>
				<path class="st46" d="M-124-164h8v2h-8V-164z M-124-168h8v2h-8V-168z M-118-178h-8c-1.1,0-2,0.9-2,2v16c0,1.1,0.9,2,2,2h12
					c1.1,0,2-0.9,2-2v-12L-118-178z M-114-160h-12v-16h7v5h5V-160z"/>
			</g>
		</g>
	</g>
</g>
<defs>
	
		<filter id="Adobe_OpacityMaskFilter_00000096750142868496684500000000916671542081342126_" filterUnits="userSpaceOnUse" x="78" y="242.1" width="110" height="22.8">
		<feColorMatrix  type="matrix" values="1 0 0 0 0  0 1 0 0 0  0 0 1 0 0  0 0 0 1 0"/>
	</filter>
</defs>
<mask maskUnits="userSpaceOnUse" x="78" y="242.1" width="110" height="22.8" id="mask-for-alinea-EntryTree-tree-item-label-itemName81_00000181059352062638429350000016685369216518451885_">
	
		<rect x="78" y="235.1" style="fill:#FFFFFF;filter:url(#Adobe_OpacityMaskFilter_00000096750142868496684500000000916671542081342126_);" width="118" height="21.6"/>
</mask>
<g id="alinea-EntryTree-tree-item-label-itemName8" class="st48">
	<g class="st6">
		<rect x="78" y="242.1" class="st7" width="110" height="22.8"/>
		<text transform="matrix(1 0 0 1 78 253.3013)" class="st46 st49 st9">Querying content</text>
	</g>
</g>
<g id="alinea-EntryTree-tree-item-arrow9">
</g>
<g id="alinea-EntryTree-tree-item-icon9">
	<g id="alinea-Icon19">
		<defs>
			
				<filter id="Adobe_OpacityMaskFilter_00000139978127913430339260000000501950749786401697_" filterUnits="userSpaceOnUse" x="61" y="275" width="8" height="10">
				<feColorMatrix  type="matrix" values="1 0 0 0 0  0 1 0 0 0  0 0 1 0 0  0 0 0 1 0"/>
			</filter>
		</defs>
		
			<mask maskUnits="userSpaceOnUse" x="61" y="275" width="8" height="10" id="mask-for-svg191_00000096055309486092876160000000651246050463496885_">
			
				<rect x="59" y="274" style="fill:#FFFFFF;filter:url(#Adobe_OpacityMaskFilter_00000139978127913430339260000000501950749786401697_);" width="12" height="12"/>
		</mask>
		<g id="svg19" class="st51">
			<g transform="matrix(0.5, 0, 0, 0.5, 125, 364)">
				<path class="st2" d="M-119-176h-7v16h12v-11h-5V-176z M-116-162h-8v-2h8V-162z M-116-168v2h-8v-2H-116z"/>
				<path class="st3" d="M-124-164h8v2h-8V-164z M-124-168h8v2h-8V-168z M-118-178h-8c-1.1,0-2,0.9-2,2v16c0,1.1,0.9,2,2,2h12
					c1.1,0,2-0.9,2-2v-12L-118-178z M-114-160h-12v-16h7v5h5V-160z"/>
			</g>
		</g>
	</g>
</g>
<defs>
	
		<filter id="Adobe_OpacityMaskFilter_00000079461759039323582880000015955772207349204392_" filterUnits="userSpaceOnUse" x="78" y="274.1" width="99.3" height="26.2">
		<feColorMatrix  type="matrix" values="1 0 0 0 0  0 1 0 0 0  0 0 1 0 0  0 0 0 1 0"/>
	</filter>
</defs>
<mask maskUnits="userSpaceOnUse" x="78" y="274.1" width="99.3" height="26.2" id="mask-for-alinea-EntryTree-tree-item-label-itemName91_00000113336439751251594670000003291806554151766152_">
	
		<rect x="78" y="266" style="fill:#FFFFFF;filter:url(#Adobe_OpacityMaskFilter_00000079461759039323582880000015955772207349204392_);" width="107.8" height="24.9"/>
</mask>
<g id="alinea-EntryTree-tree-item-label-itemName9" class="st53">
	<g class="st6">
		<rect x="78" y="274.1" class="st7" width="99.3" height="26.2"/>
		<text transform="matrix(1 0 0 1 78 285.3169)" class="st3 st8 st9">Editing content</text>
	</g>
</g>
<g id="alinea-EntryTree-tree-item-arrow10">
</g>
<g id="alinea-EntryTree-tree-item-icon10">
	<g id="alinea-Icon20">
		<defs>
			
				<filter id="Adobe_OpacityMaskFilter_00000072244055993888883820000012900017863395166880_" filterUnits="userSpaceOnUse" x="61" y="307" width="8" height="10">
				<feColorMatrix  type="matrix" values="1 0 0 0 0  0 1 0 0 0  0 0 1 0 0  0 0 0 1 0"/>
			</filter>
		</defs>
		
			<mask maskUnits="userSpaceOnUse" x="61" y="307" width="8" height="10" id="mask-for-svg201_00000081628055716408013830000002219141305224306095_">
			
				<rect x="59" y="306" style="fill:#FFFFFF;filter:url(#Adobe_OpacityMaskFilter_00000072244055993888883820000012900017863395166880_);" width="12" height="12"/>
		</mask>
		<g id="svg20" class="st55">
			<g transform="matrix(0.5, 0, 0, 0.5, 125, 396)">
				<path class="st2" d="M-119-176h-7v16h12v-11h-5V-176z M-116-162h-8v-2h8V-162z M-116-168v2h-8v-2H-116z"/>
				<path class="st3" d="M-124-164h8v2h-8V-164z M-124-168h8v2h-8V-168z M-118-178h-8c-1.1,0-2,0.9-2,2v16c0,1.1,0.9,2,2,2h12
					c1.1,0,2-0.9,2-2v-12L-118-178z M-114-160h-12v-16h7v5h5V-160z"/>
			</g>
		</g>
	</g>
</g>
<defs>
	
		<filter id="Adobe_OpacityMaskFilter_00000082329161643709995500000010463763045911769489_" filterUnits="userSpaceOnUse" x="78" y="306.1" width="103.8" height="24.9">
		<feColorMatrix  type="matrix" values="1 0 0 0 0  0 1 0 0 0  0 0 1 0 0  0 0 0 1 0"/>
	</filter>
</defs>
<mask maskUnits="userSpaceOnUse" x="78" y="306.1" width="103.8" height="24.9" id="mask-for-alinea-EntryTree-tree-item-label-itemName101_00000003072738576949673290000017996109948650746557_">
	
		<rect x="78" y="298.4" style="fill:#FFFFFF;filter:url(#Adobe_OpacityMaskFilter_00000082329161643709995500000010463763045911769489_);" width="113.7" height="23.6"/>
</mask>
<g id="alinea-EntryTree-tree-item-label-itemName10" class="st57">
	<g class="st6">
		<rect x="78" y="306.1" class="st7" width="103.8" height="24.9"/>
		<text transform="matrix(1 0 0 1 78 317.3164)" class="st3 st8 st9">Live previews</text>
	</g>
</g>
<g id="alinea-EntryTree-tree-item-arrow11">
</g>
<g id="alinea-EntryTree-tree-item-icon11">
	<g id="alinea-Icon21">
		<defs>
			
				<filter id="Adobe_OpacityMaskFilter_00000053534456178481780670000009450845940079417758_" filterUnits="userSpaceOnUse" x="61" y="339" width="8" height="10">
				<feColorMatrix  type="matrix" values="1 0 0 0 0  0 1 0 0 0  0 0 1 0 0  0 0 0 1 0"/>
			</filter>
		</defs>
		
			<mask maskUnits="userSpaceOnUse" x="61" y="339" width="8" height="10" id="mask-for-svg211_00000070085827235737899590000002088886718617899416_">
			
				<rect x="59" y="338" style="fill:#FFFFFF;filter:url(#Adobe_OpacityMaskFilter_00000053534456178481780670000009450845940079417758_);" width="12" height="12"/>
		</mask>
		<g id="svg21" class="st59">
			<g transform="matrix(0.5, 0, 0, 0.5, 125, 428)">
				<path class="st2" d="M-119-176h-7v16h12v-11h-5V-176z M-116-162h-8v-2h8V-162z M-116-168v2h-8v-2H-116z"/>
				<path class="st3" d="M-124-164h8v2h-8V-164z M-124-168h8v2h-8V-168z M-118-178h-8c-1.1,0-2,0.9-2,2v16c0,1.1,0.9,2,2,2h12
					c1.1,0,2-0.9,2-2v-12L-118-178z M-114-160h-12v-16h7v5h5V-160z"/>
			</g>
		</g>
	</g>
</g>
<defs>
	
		<filter id="Adobe_OpacityMaskFilter_00000074444081119308490070000011904412493094417799_" filterUnits="userSpaceOnUse" x="78" y="338.1" width="79.9" height="19.9">
		<feColorMatrix  type="matrix" values="1 0 0 0 0  0 1 0 0 0  0 0 1 0 0  0 0 0 1 0"/>
	</filter>
</defs>
<mask maskUnits="userSpaceOnUse" x="78" y="338.1" width="79.9" height="19.9" id="mask-for-alinea-EntryTree-tree-item-label-itemName111_00000159457079893423221610000001959027106494825661_">
	
		<rect x="78" y="332" style="fill:#FFFFFF;filter:url(#Adobe_OpacityMaskFilter_00000074444081119308490070000011904412493094417799_);" width="89.5" height="18.8"/>
</mask>
<g id="alinea-EntryTree-tree-item-label-itemName11" class="st61">
	<g class="st6">
		<rect x="78" y="338.1" class="st7" width="79.9" height="19.9"/>
		<text transform="matrix(1 0 0 1 78 349.3164)" class="st3 st8 st9">TypeScript</text>
	</g>
</g>
<g id="alinea-Icon22">
	<defs>
		
			<filter id="Adobe_OpacityMaskFilter_00000084524836220927940030000003180450271402211762_" filterUnits="userSpaceOnUse" x="33.7" y="372.7" width="3.8" height="6.5">
			<feColorMatrix  type="matrix" values="1 0 0 0 0  0 1 0 0 0  0 0 1 0 0  0 0 0 1 0"/>
		</filter>
	</defs>
	
		<mask maskUnits="userSpaceOnUse" x="33.7" y="372.7" width="3.8" height="6.5" id="mask-for-svg221_00000163040631279270774720000018400326131609490605_">
		
			<rect x="28.5" y="369" style="fill:#FFFFFF;filter:url(#Adobe_OpacityMaskFilter_00000084524836220927940030000003180450271402211762_);" width="14" height="14"/>
	</mask>
	<g id="svg22" class="st63">
		<g transform="matrix(0.583333, 0, 0, 0.583333, 94.5, 459)">
			<path class="st3" d="M-103.9-138.4l3.9-3.9l-3.9-3.9c-0.4-0.4-0.4-1,0-1.4s1-0.4,1.4,0l4.6,4.6c0.4,0.4,0.4,1,0,1.4l-4.6,4.6
				c-0.4,0.4-1,0.4-1.4,0c0,0,0,0,0,0C-104.2-137.4-104.2-138-103.9-138.4z"/>
		</g>
	</g>
</g>
<g id="alinea-EntryTree-tree-item-icon12">
	<g id="alinea-Icon23">
		<defs>
			
				<filter id="Adobe_OpacityMaskFilter_00000022554299211291219980000014721505875852007086_" filterUnits="userSpaceOnUse" x="46" y="372" width="10" height="8">
				<feColorMatrix  type="matrix" values="1 0 0 0 0  0 1 0 0 0  0 0 1 0 0  0 0 0 1 0"/>
			</filter>
		</defs>
		
			<mask maskUnits="userSpaceOnUse" x="46" y="372" width="10" height="8" id="mask-for-svg231_00000035499081909342808790000002604299449227849396_">
			
				<rect x="45" y="370" style="fill:#FFFFFF;filter:url(#Adobe_OpacityMaskFilter_00000022554299211291219980000014721505875852007086_);" width="12" height="12"/>
		</mask>
		<g id="svg23" class="st65">
			<g transform="matrix(0.5, 0, 0, 0.5, 111, 460)">
				<path class="st2" d="M-120.8-172l-0.6-0.6l-1.4-1.4h-5.2v12h16v-10h-8H-120.8z"/>
				<path class="st3" d="M-112-174h-8l-2-2h-6c-1.1,0-2,0.9-2,2l0,12c0,1.1,0.9,2,2,2h16c1.1,0,2-0.9,2-2v-10
					C-110-173.1-110.9-174-112-174 M-112-162h-16v-12h5.2l1.4,1.4l0.6,0.6h8.8V-162z"/>
			</g>
		</g>
	</g>
</g>
<defs>
	
		<filter id="Adobe_OpacityMaskFilter_00000109743220450543335340000013485245063839353771_" filterUnits="userSpaceOnUse" x="64" y="370.1" width="69" height="21.6">
		<feColorMatrix  type="matrix" values="1 0 0 0 0  0 1 0 0 0  0 0 1 0 0  0 0 0 1 0"/>
	</filter>
</defs>
<mask maskUnits="userSpaceOnUse" x="64" y="370.1" width="69" height="21.6" id="mask-for-alinea-EntryTree-tree-item-label-itemName121_00000069372583944323844860000015220149296057457800_">
	
		<rect x="64" y="363.5" style="fill:#FFFFFF;filter:url(#Adobe_OpacityMaskFilter_00000109743220450543335340000013485245063839353771_);" width="81.9" height="20.5"/>
</mask>
<g id="alinea-EntryTree-tree-item-label-itemName12" class="st67">
	<g class="st6">
		<rect x="64" y="370.1" class="st7" width="69" height="21.6"/>
		<text transform="matrix(1 0 0 1 64 381.3164)" class="st3 st8 st9">Deploy</text>
	</g>
</g>
<g id="alinea-Icon24">
	<defs>
		
			<filter id="Adobe_OpacityMaskFilter_00000155867885546655176500000006501391509333204097_" filterUnits="userSpaceOnUse" x="33.7" y="404.7" width="3.8" height="6.5">
			<feColorMatrix  type="matrix" values="1 0 0 0 0  0 1 0 0 0  0 0 1 0 0  0 0 0 1 0"/>
		</filter>
	</defs>
	
		<mask maskUnits="userSpaceOnUse" x="33.7" y="404.7" width="3.8" height="6.5" id="mask-for-svg241_00000065771315672890404020000014288444918506890134_">
		
			<rect x="28.5" y="401" style="fill:#FFFFFF;filter:url(#Adobe_OpacityMaskFilter_00000155867885546655176500000006501391509333204097_);" width="14" height="14"/>
	</mask>
	<g id="svg24" class="st69">
		<g transform="matrix(0.583333, 0, 0, 0.583333, 94.5, 491)">
			<path class="st3" d="M-103.9-138.4l3.9-3.9l-3.9-3.9c-0.4-0.4-0.4-1,0-1.4s1-0.4,1.4,0l4.6,4.6c0.4,0.4,0.4,1,0,1.4l-4.6,4.6
				c-0.4,0.4-1,0.4-1.4,0c0,0,0,0,0,0C-104.2-137.4-104.2-138-103.9-138.4z"/>
		</g>
	</g>
</g>
<g id="alinea-EntryTree-tree-item-icon13">
	<g id="alinea-Icon25">
		<defs>
			
				<filter id="Adobe_OpacityMaskFilter_00000158728665127925068610000015322604500145776278_" filterUnits="userSpaceOnUse" x="46" y="404" width="10" height="8">
				<feColorMatrix  type="matrix" values="1 0 0 0 0  0 1 0 0 0  0 0 1 0 0  0 0 0 1 0"/>
			</filter>
		</defs>
		
			<mask maskUnits="userSpaceOnUse" x="46" y="404" width="10" height="8" id="mask-for-svg251_00000130622299274517245340000008697179228553375396_">
			
				<rect x="45" y="402" style="fill:#FFFFFF;filter:url(#Adobe_OpacityMaskFilter_00000158728665127925068610000015322604500145776278_);" width="12" height="12"/>
		</mask>
		<g id="svg25" class="st71">
			<g transform="matrix(0.5, 0, 0, 0.5, 111, 492)">
				<path class="st2" d="M-120.8-172l-0.6-0.6l-1.4-1.4h-5.2v12h16v-10h-8H-120.8z"/>
				<path class="st3" d="M-112-174h-8l-2-2h-6c-1.1,0-2,0.9-2,2l0,12c0,1.1,0.9,2,2,2h16c1.1,0,2-0.9,2-2v-10
					C-110-173.1-110.9-174-112-174 M-112-162h-16v-12h5.2l1.4,1.4l0.6,0.6h8.8V-162z"/>
			</g>
		</g>
	</g>
</g>
<defs>
	
		<filter id="Adobe_OpacityMaskFilter_00000098196857734475243330000015847644218311939729_" filterUnits="userSpaceOnUse" x="64" y="402.1" width="90.4" height="22.1">
		<feColorMatrix  type="matrix" values="1 0 0 0 0  0 1 0 0 0  0 0 1 0 0  0 0 0 1 0"/>
	</filter>
</defs>
<mask maskUnits="userSpaceOnUse" x="64" y="402.1" width="90.4" height="22.1" id="mask-for-alinea-EntryTree-tree-item-label-itemName131_00000016754298848748560640000012991302855731002017_">
	
		<rect x="64" y="395.3" style="fill:#FFFFFF;filter:url(#Adobe_OpacityMaskFilter_00000098196857734475243330000015847644218311939729_);" width="102" height="20.9"/>
</mask>
<g id="alinea-EntryTree-tree-item-label-itemName13" class="st73">
	<g class="st6">
		<rect x="64" y="402.1" class="st7" width="90.4" height="22.1"/>
		<text transform="matrix(1 0 0 1 64 413.3164)" class="st3 st8 st9">Reference</text>
	</g>
</g>
<defs>
	
		<filter id="Adobe_OpacityMaskFilter_00000142173031570788441640000011454754805862763923_" filterUnits="userSpaceOnUse" x="64" y="181.1" width="53.1" height="20.1">
		<feColorMatrix  type="matrix" values="1 0 0 0 0  0 1 0 0 0  0 0 1 0 0  0 0 0 1 0"/>
	</filter>
</defs>
<mask maskUnits="userSpaceOnUse" x="64" y="181.1" width="53.1" height="20.1" id="mask-for-alinea-EntryTree-tree-item-label-itemName71_00000052062010492627463370000012088543081868233899_">
	
		<rect x="64" y="174.9" style="fill:#FFFFFF;filter:url(#Adobe_OpacityMaskFilter_00000142173031570788441640000011454754805862763923_);" width="61.7" height="19.1"/>
</mask>
<g id="alinea-EntryTree-tree-item-label-itemName7_00000149344488226383466900000003729270431663963295_" class="st75">
	<g class="st6">
		<rect x="64" y="181.1" class="st7" width="53.1" height="20.1"/>
		<text transform="matrix(1 0 0 1 64 192.3077)" class="st3 st8 st9">Fields</text>
	</g>
</g>
</svg>
