<svg width="365" height="96" viewBox="0 0 365 96" fill="none" xmlns="http://www.w3.org/2000/svg">
  <path d="M50.504 30V36.016C46.28 31.152 40.008 28.208 31.432 28.208C14.664 28.208 0.84 42.928 0.84 62C0.84 81.072 14.664 95.792 31.432 95.792C40.008 95.792 46.28 92.848 50.504 87.984V94H69.704V30H50.504ZM35.272 77.616C26.44 77.616 20.04 71.6 20.04 62C20.04 52.4 26.44 46.384 35.272 46.384C44.104 46.384 50.504 52.4 50.504 62C50.504 71.6 44.104 77.616 35.272 77.616ZM83.79 94H102.99V0.559998H83.79V94ZM126.64 24.368C132.912 24.368 138.16 19.12 138.16 12.848C138.16 6.576 132.912 1.328 126.64 1.328C120.368 1.328 115.12 6.576 115.12 12.848C115.12 19.12 120.368 24.368 126.64 24.368ZM117.04 94H136.24V30H117.04V94ZM187.794 28.208C179.346 28.208 172.946 31.28 169.49 36.016V30H150.29V94H169.49V59.056C169.49 49.968 174.354 45.872 181.394 45.872C187.538 45.872 192.53 49.584 192.53 57.52V94H211.73V54.704C211.73 37.424 200.722 28.208 187.794 28.208ZM242.067 69.68H287.507C288.019 67.248 288.275 64.688 288.275 62C288.275 42.672 274.451 28.208 255.763 28.208C235.539 28.208 221.715 42.928 221.715 62C221.715 81.072 235.283 95.792 257.171 95.792C269.331 95.792 278.803 91.312 285.075 82.608L269.715 73.776C267.155 76.592 262.675 78.64 257.427 78.64C250.387 78.64 244.499 76.336 242.067 69.68ZM241.683 55.344C243.475 48.816 248.339 45.232 255.635 45.232C261.395 45.232 267.155 47.92 269.203 55.344H241.683ZM345.004 30V36.016C340.78 31.152 334.508 28.208 325.932 28.208C309.164 28.208 295.34 42.928 295.34 62C295.34 81.072 309.164 95.792 325.932 95.792C334.508 95.792 340.78 92.848 345.004 87.984V94H364.204V30H345.004ZM329.772 77.616C320.94 77.616 314.54 71.6 314.54 62C314.54 52.4 320.94 46.384 329.772 46.384C338.604 46.384 345.004 52.4 345.004 62C345.004 71.6 338.604 77.616 329.772 77.616Z" fill="black"/>
  <path d="M50.504 30V28H48.504V30H50.504ZM50.504 36.016L48.9939 37.3274L52.504 41.3693V36.016H50.504ZM50.504 87.984H52.504V82.6307L48.9939 86.6726L50.504 87.984ZM50.504 94H48.504V96H50.504V94ZM69.704 94V96H71.704V94H69.704ZM69.704 30H71.704V28H69.704V30ZM48.504 30V36.016H52.504V30H48.504ZM52.0141 34.7046C47.3605 29.346 40.507 26.208 31.432 26.208V30.208C39.509 30.208 45.1995 32.958 48.9939 37.3274L52.0141 34.7046ZM31.432 26.208C13.397 26.208 -1.16 41.9931 -1.16 62H2.84C2.84 43.8628 15.931 30.208 31.432 30.208V26.208ZM-1.16 62C-1.16 82.0068 13.397 97.792 31.432 97.792V93.792C15.931 93.792 2.84 80.1372 2.84 62H-1.16ZM31.432 97.792C40.507 97.792 47.3605 94.654 52.0141 89.2954L48.9939 86.6726C45.1995 91.042 39.509 93.792 31.432 93.792V97.792ZM48.504 87.984V94H52.504V87.984H48.504ZM50.504 96H69.704V92H50.504V96ZM71.704 94V30H67.704V94H71.704ZM69.704 28H50.504V32H69.704V28ZM35.272 75.616C31.3185 75.616 28.0417 74.2773 25.7582 71.9938C23.4782 69.7137 22.04 66.3429 22.04 62H18.04C18.04 67.2571 19.8018 71.6943 22.9298 74.8222C26.0543 77.9467 30.3935 79.616 35.272 79.616V75.616ZM22.04 62C22.04 57.6571 23.4782 54.2863 25.7582 52.0062C28.0417 49.7227 31.3185 48.384 35.272 48.384V44.384C30.3935 44.384 26.0543 46.0533 22.9298 49.1778C19.8018 52.3057 18.04 56.7429 18.04 62H22.04ZM35.272 48.384C39.2255 48.384 42.5023 49.7227 44.7858 52.0062C47.0658 54.2863 48.504 57.6571 48.504 62H52.504C52.504 56.7429 50.7422 52.3057 47.6142 49.1778C44.4897 46.0533 40.1505 44.384 35.272 44.384V48.384ZM48.504 62C48.504 66.3429 47.0658 69.7137 44.7858 71.9938C42.5023 74.2773 39.2255 75.616 35.272 75.616V79.616C40.1505 79.616 44.4897 77.9467 47.6142 74.8222C50.7422 71.6943 52.504 67.2571 52.504 62H48.504ZM83.79 94H81.79V96H83.79V94ZM102.99 94V96H104.99V94H102.99ZM102.99 0.559998H104.99V-1.44H102.99V0.559998ZM83.79 0.559998V-1.44H81.79V0.559998H83.79ZM83.79 96H102.99V92H83.79V96ZM104.99 94V0.559998H100.99V94H104.99ZM102.99 -1.44H83.79V2.56H102.99V-1.44ZM81.79 0.559998V94H85.79V0.559998H81.79ZM117.04 94H115.04V96H117.04V94ZM136.24 94V96H138.24V94H136.24ZM136.24 30H138.24V28H136.24V30ZM117.04 30V28H115.04V30H117.04ZM126.64 26.368C134.017 26.368 140.16 20.2246 140.16 12.848H136.16C136.16 18.0154 131.807 22.368 126.64 22.368V26.368ZM140.16 12.848C140.16 5.47143 134.017 -0.672005 126.64 -0.672005V3.328C131.807 3.328 136.16 7.68057 136.16 12.848H140.16ZM126.64 -0.672005C119.263 -0.672005 113.12 5.47143 113.12 12.848H117.12C117.12 7.68057 121.473 3.328 126.64 3.328V-0.672005ZM113.12 12.848C113.12 20.2246 119.263 26.368 126.64 26.368V22.368C121.473 22.368 117.12 18.0154 117.12 12.848H113.12ZM117.04 96H136.24V92H117.04V96ZM138.24 94V30H134.24V94H138.24ZM136.24 28H117.04V32H136.24V28ZM115.04 30V94H119.04V30H115.04ZM169.49 36.016H167.49V42.1496L171.106 37.1949L169.49 36.016ZM169.49 30H171.49V28H169.49V30ZM150.29 30V28H148.29V30H150.29ZM150.29 94H148.29V96H150.29V94ZM169.49 94V96H171.49V94H169.49ZM192.53 94H190.53V96H192.53V94ZM211.73 94V96H213.73V94H211.73ZM187.794 26.208C178.882 26.208 171.799 29.4587 167.874 34.8371L171.106 37.1949C174.093 33.1013 179.81 30.208 187.794 30.208V26.208ZM171.49 36.016V30H167.49V36.016H171.49ZM169.49 28H150.29V32H169.49V28ZM148.29 30V94H152.29V30H148.29ZM150.29 96H169.49V92H150.29V96ZM171.49 94V59.056H167.49V94H171.49ZM171.49 59.056C171.49 54.8567 172.609 52.1263 174.237 50.4488C175.859 48.7771 178.257 47.872 181.394 47.872V43.872C177.491 43.872 173.937 45.0149 171.367 47.6632C168.803 50.3057 167.49 54.1673 167.49 59.056H171.49ZM181.394 47.872C184.073 47.872 186.322 48.6776 187.887 50.1683C189.432 51.6397 190.53 53.9869 190.53 57.52H194.53C194.53 53.1171 193.132 49.6403 190.645 47.2717C188.178 44.9224 184.859 43.872 181.394 43.872V47.872ZM190.53 57.52V94H194.53V57.52H190.53ZM192.53 96H211.73V92H192.53V96ZM213.73 94V54.704H209.73V94H213.73ZM213.73 54.704C213.73 45.627 210.829 38.4722 206.04 33.5772C201.257 28.6895 194.738 26.208 187.794 26.208V30.208C193.778 30.208 199.227 32.3345 203.181 36.3748C207.127 40.4078 209.73 46.501 209.73 54.704H213.73ZM242.067 69.68V67.68H239.207L240.188 70.3664L242.067 69.68ZM287.507 69.68V71.68H289.13L289.464 70.092L287.507 69.68ZM285.075 82.608L286.698 83.7772L287.993 81.979L286.072 80.8742L285.075 82.608ZM269.715 73.776L270.712 72.0422L269.317 71.2403L268.235 72.4307L269.715 73.776ZM241.683 55.344L239.754 54.8146L239.06 57.344H241.683V55.344ZM269.203 55.344V57.344H271.829L271.131 54.8121L269.203 55.344ZM242.067 71.68H287.507V67.68H242.067V71.68ZM289.464 70.092C290.007 67.514 290.275 64.8153 290.275 62H286.275C286.275 64.5607 286.031 66.982 285.55 69.268L289.464 70.092ZM290.275 62C290.275 41.6447 275.631 26.208 255.763 26.208V30.208C273.271 30.208 286.275 43.6993 286.275 62H290.275ZM255.763 26.208C234.409 26.208 219.715 41.8486 219.715 62H223.715C223.715 44.0074 236.669 30.208 255.763 30.208V26.208ZM219.715 62C219.715 72.0196 223.286 80.9959 229.828 87.4696C236.374 93.9474 245.765 97.792 257.171 97.792V93.792C246.689 93.792 238.352 90.2766 232.642 84.6264C226.928 78.9721 223.715 71.0524 223.715 62H219.715ZM257.171 97.792C269.876 97.792 279.996 93.0775 286.698 83.7772L283.452 81.4388C277.61 89.5465 268.786 93.792 257.171 93.792V97.792ZM286.072 80.8742L270.712 72.0422L268.718 75.5098L284.078 84.3418L286.072 80.8742ZM268.235 72.4307C266.103 74.7763 262.188 76.64 257.427 76.64V80.64C263.162 80.64 268.207 78.4077 271.195 75.1213L268.235 72.4307ZM257.427 76.64C254.102 76.64 251.226 76.0925 248.956 74.8889C246.736 73.7124 244.992 71.8573 243.946 68.9936L240.188 70.3664C241.574 74.1587 243.99 76.7836 247.082 78.4231C250.124 80.0355 253.712 80.64 257.427 80.64V76.64ZM243.612 55.8734C244.407 52.9775 245.841 50.8628 247.772 49.457C249.712 48.0445 252.315 47.232 255.635 47.232V43.232C251.659 43.232 248.182 44.2115 245.418 46.223C242.645 48.2412 240.751 51.1825 239.754 54.8146L243.612 55.8734ZM255.635 47.232C258.217 47.232 260.689 47.8352 262.707 49.1715C264.694 50.4874 266.371 52.5982 267.275 55.8759L271.131 54.8121C269.987 50.6658 267.76 47.7205 264.915 45.8365C262.101 43.9727 258.813 43.232 255.635 43.232V47.232ZM269.203 53.344H241.683V57.344H269.203V53.344ZM345.004 30V28H343.004V30H345.004ZM345.004 36.016L343.494 37.3274L347.004 41.3693V36.016H345.004ZM345.004 87.984H347.004V82.6307L343.494 86.6726L345.004 87.984ZM345.004 94H343.004V96H345.004V94ZM364.204 94V96H366.204V94H364.204ZM364.204 30H366.204V28H364.204V30ZM343.004 30V36.016H347.004V30H343.004ZM346.514 34.7046C341.861 29.346 335.007 26.208 325.932 26.208V30.208C334.009 30.208 339.699 32.958 343.494 37.3274L346.514 34.7046ZM325.932 26.208C307.897 26.208 293.34 41.9931 293.34 62H297.34C297.34 43.8628 310.431 30.208 325.932 30.208V26.208ZM293.34 62C293.34 82.0068 307.897 97.792 325.932 97.792V93.792C310.431 93.792 297.34 80.1372 297.34 62H293.34ZM325.932 97.792C335.007 97.792 341.861 94.654 346.514 89.2954L343.494 86.6726C339.699 91.042 334.009 93.792 325.932 93.792V97.792ZM343.004 87.984V94H347.004V87.984H343.004ZM345.004 96H364.204V92H345.004V96ZM366.204 94V30H362.204V94H366.204ZM364.204 28H345.004V32H364.204V28ZM329.772 75.616C325.818 75.616 322.542 74.2773 320.258 71.9938C317.978 69.7137 316.54 66.3429 316.54 62H312.54C312.54 67.2571 314.302 71.6943 317.43 74.8222C320.554 77.9467 324.894 79.616 329.772 79.616V75.616ZM316.54 62C316.54 57.6571 317.978 54.2863 320.258 52.0062C322.542 49.7227 325.818 48.384 329.772 48.384V44.384C324.894 44.384 320.554 46.0533 317.43 49.1778C314.302 52.3057 312.54 56.7429 312.54 62H316.54ZM329.772 48.384C333.726 48.384 337.002 49.7227 339.286 52.0062C341.566 54.2863 343.004 57.6571 343.004 62H347.004C347.004 56.7429 345.242 52.3057 342.114 49.1778C338.99 46.0533 334.65 44.384 329.772 44.384V48.384ZM343.004 62C343.004 66.3429 341.566 69.7137 339.286 71.9938C337.002 74.2773 333.726 75.616 329.772 75.616V79.616C334.65 79.616 338.99 77.9467 342.114 74.8222C345.242 71.6943 347.004 67.2571 347.004 62H343.004Z" fill="white"/>
</svg>