<svg width="146.8" height="39.6" viewBox="0 0 146.8 39.6" xmlns="http://www.w3.org/2000/svg">
<path fill="#FFFFFF" d="M20.6,12.6v-0.8h-0.8v0.8H20.6z M20.6,15L20,15.5l1.4,1.6V15H20.6z M20.6,35.7h0.8v-2.1L20,35.2L20.6,35.7z
	 M20.6,38.1h-0.8v0.8h0.8V38.1z M28.3,38.1v0.8h0.8v-0.8H28.3z M28.3,12.6h0.8v-0.8h-0.8V12.6z M19.8,12.6V15h1.6v-2.4H19.8z
	 M21.2,14.4C19.4,12.3,16.6,11,13,11v1.6c3.2,0,5.5,1.1,7,2.8L21.2,14.4z M13,11C5.8,11,0,17.4,0,25.3h1.6c0-7.2,5.2-12.7,11.4-12.7
	V11z M0,25.3c0,8,5.8,14.3,13,14.3V38C6.8,38,1.6,32.6,1.6,25.3H0z M13,39.6c3.6,0,6.4-1.3,8.2-3.4l-1.2-1c-1.5,1.7-3.8,2.8-7,2.8
	V39.6z M19.8,35.7v2.4h1.6v-2.4H19.8z M20.6,38.9h7.7v-1.6h-7.7V38.9z M29.1,38.1V12.6h-1.6v25.6H29.1z M28.3,11.8h-7.7v1.6h7.7
	V11.8z M14.6,30.8c-1.6,0-2.9-0.5-3.8-1.4c-0.9-0.9-1.5-2.3-1.5-4H7.7c0,2.1,0.7,3.9,2,5.1c1.2,1.2,3,1.9,4.9,1.9V30.8z M9.3,25.3
	c0-1.7,0.6-3.1,1.5-4c0.9-0.9,2.2-1.4,3.8-1.4v-1.6c-1.9,0-3.7,0.7-4.9,1.9c-1.2,1.2-2,3-2,5.1H9.3z M14.6,19.9
	c1.6,0,2.9,0.5,3.8,1.4c0.9,0.9,1.5,2.3,1.5,4h1.6c0-2.1-0.7-3.9-2-5.1c-1.2-1.2-3-1.9-4.9-1.9V19.9z M19.8,25.3
	c0,1.7-0.6,3.1-1.5,4c-0.9,0.9-2.2,1.4-3.8,1.4v1.6c1.9,0,3.7-0.7,4.9-1.9c1.2-1.2,2-3,2-5.1H19.8z M33.9,38.1h-0.8v0.8h0.8V38.1z
	 M41.6,38.1v0.8h0.8v-0.8H41.6z M41.6,0.8h0.8V0h-0.8V0.8z M33.9,0.8V0h-0.8v0.8H33.9z M33.9,38.9h7.7v-1.6h-7.7V38.9z M42.4,38.1
	V0.8h-1.6v37.3H42.4z M41.6,0h-7.7v1.6h7.7V0z M33.1,0.8v37.3h1.6V0.8H33.1z M47.2,38.1h-0.8v0.8h0.8V38.1z M54.9,38.1v0.8h0.8v-0.8
	H54.9z M54.9,12.6h0.8v-0.8h-0.8V12.6z M47.2,12.6v-0.8h-0.8v0.8H47.2z M51.1,11.1c2.9,0,5.4-2.5,5.4-5.4h-1.6
	c0,2.1-1.7,3.8-3.8,3.8V11.1z M56.5,5.7c0-2.9-2.5-5.4-5.4-5.4v1.6c2.1,0,3.8,1.7,3.8,3.8H56.5z M51.1,0.3c-2.9,0-5.4,2.5-5.4,5.4
	h1.6c0-2.1,1.7-3.8,3.8-3.8V0.3z M45.7,5.7c0,2.9,2.5,5.4,5.4,5.4V9.5c-2.1,0-3.8-1.7-3.8-3.8H45.7z M47.2,38.9h7.7v-1.6h-7.7V38.9z
	 M55.7,38.1V12.6h-1.6v25.6H55.7z M54.9,11.8h-7.7v1.6h7.7V11.8z M46.4,12.6v25.6H48V12.6H46.4z M68.2,15h-0.8v2.5l1.4-2L68.2,15z
	 M68.2,12.6H69v-0.8h-0.8V12.6z M60.5,12.6v-0.8h-0.8v0.8H60.5z M60.5,38.1h-0.8v0.8h0.8V38.1z M68.2,38.1v0.8H69v-0.8H68.2z
	 M77.4,38.1h-0.8v0.8h0.8V38.1z M85,38.1v0.8h0.8v-0.8H85z M75.5,11c-3.6,0-6.4,1.3-8,3.4l1.3,0.9c1.2-1.6,3.5-2.8,6.7-2.8V11z
	 M69,15v-2.4h-1.6V15H69z M68.2,11.8h-7.7v1.6h7.7V11.8z M59.7,12.6v25.6h1.6V12.6H59.7z M60.5,38.9h7.7v-1.6h-7.7V38.9z M69,38.1
	v-14h-1.6v14H69z M69,24.2c0-1.7,0.4-2.8,1.1-3.4c0.6-0.7,1.6-1,2.9-1v-1.6c-1.6,0-3,0.5-4,1.5c-1,1.1-1.5,2.6-1.5,4.6H69z
	 M72.9,19.7c1.1,0,2,0.3,2.6,0.9c0.6,0.6,1.1,1.5,1.1,2.9h1.6c0-1.8-0.6-3.1-1.6-4.1c-1-0.9-2.3-1.4-3.7-1.4V19.7z M76.6,23.6v14.6
	h1.6V23.6H76.6z M77.4,38.9H85v-1.6h-7.7V38.9z M85.8,38.1V22.4h-1.6v15.7H85.8z M85.8,22.4c0-3.6-1.2-6.5-3.1-8.4
	c-1.9-2-4.5-2.9-7.3-2.9v1.6c2.4,0,4.6,0.8,6.1,2.5c1.6,1.6,2.6,4,2.6,7.3H85.8z M97.2,28.4v-0.8H96l0.4,1.1L97.2,28.4z M115.3,28.4
	v0.8h0.6l0.1-0.6L115.3,28.4z M114.3,33.6L115,34l0.5-0.7l-0.8-0.4L114.3,33.6z M108.2,30l0.4-0.7L108,29l-0.4,0.5L108.2,30z
	 M97,22.7l-0.8-0.2l-0.3,1h1V22.7z M108,22.7v0.8h1l-0.3-1L108,22.7z M97.2,29.2h18.2v-1.6H97.2V29.2z M116.1,28.6
	c0.2-1,0.3-2.1,0.3-3.2h-1.6c0,1-0.1,2-0.3,2.9L116.1,28.6z M116.4,25.3c0-8.1-5.8-14.3-13.8-14.3v1.6c7,0,12.2,5.4,12.2,12.7H116.4
	z M102.6,11c-8.5,0-14.4,6.2-14.4,14.3h1.6c0-7.2,5.2-12.7,12.8-12.7V11z M88.2,25.3c0,4,1.4,7.6,4,10.2c2.6,2.6,6.4,4.1,10.9,4.1
	V38c-4.2,0-7.5-1.4-9.8-3.7c-2.3-2.3-3.6-5.4-3.6-9H88.2z M103.2,39.6c5.1,0,9.1-1.9,11.8-5.6l-1.3-0.9c-2.3,3.2-5.9,4.9-10.5,4.9
	V39.6z M114.7,32.9l-6.1-3.5l-0.8,1.4l6.1,3.5L114.7,32.9z M107.6,29.5c-0.9,0.9-2.4,1.7-4.3,1.7v1.6c2.3,0,4.3-0.9,5.5-2.2
	L107.6,29.5z M103.3,31.2c-1.3,0-2.5-0.2-3.4-0.7c-0.9-0.5-1.6-1.2-2-2.4l-1.5,0.5c0.6,1.5,1.5,2.6,2.8,3.2c1.2,0.6,2.6,0.9,4.1,0.9
	V31.2z M97.8,22.9c0.3-1.2,0.9-2,1.7-2.6c0.8-0.6,1.8-0.9,3.1-0.9v-1.6c-1.6,0-3,0.4-4.1,1.2c-1.1,0.8-1.9,2-2.3,3.4L97.8,22.9z
	 M102.6,19.4c1,0,2,0.2,2.8,0.8c0.8,0.5,1.5,1.4,1.8,2.7l1.5-0.4c-0.5-1.7-1.3-2.8-2.5-3.6c-1.1-0.7-2.4-1-3.7-1V19.4z M108,21.9H97
	v1.6h11V21.9z M138.3,12.6v-0.8h-0.8v0.8H138.3z M138.3,15l-0.6,0.5l1.4,1.6V15H138.3z M138.3,35.7h0.8v-2.1l-1.4,1.6L138.3,35.7z
	 M138.3,38.1h-0.8v0.8h0.8V38.1z M146,38.1v0.8h0.8v-0.8H146z M146,12.6h0.8v-0.8H146V12.6z M137.5,12.6V15h1.6v-2.4H137.5z
	 M138.9,14.4c-1.9-2.1-4.6-3.4-8.2-3.4v1.6c3.2,0,5.5,1.1,7,2.8L138.9,14.4z M130.7,11c-7.2,0-13,6.3-13,14.3h1.6
	c0-7.2,5.2-12.7,11.4-12.7V11z M117.6,25.3c0,8,5.8,14.3,13,14.3V38c-6.2,0-11.4-5.5-11.4-12.7H117.6z M130.7,39.6
	c3.6,0,6.4-1.3,8.2-3.4l-1.2-1c-1.5,1.7-3.8,2.8-7,2.8V39.6z M137.5,35.7v2.4h1.6v-2.4H137.5z M138.3,38.9h7.7v-1.6h-7.7V38.9z
	 M146.8,38.1V12.6h-1.6v25.6H146.8z M146,11.8h-7.7v1.6h7.7V11.8z M132.2,30.8c-1.6,0-2.9-0.5-3.8-1.4c-0.9-0.9-1.5-2.3-1.5-4h-1.6
	c0,2.1,0.7,3.9,2,5.1c1.2,1.2,3,1.9,4.9,1.9V30.8z M126.9,25.3c0-1.7,0.6-3.1,1.5-4c0.9-0.9,2.2-1.4,3.8-1.4v-1.6
	c-1.9,0-3.7,0.7-4.9,1.9c-1.2,1.2-2,3-2,5.1H126.9z M132.2,19.9c1.6,0,2.9,0.5,3.8,1.4c0.9,0.9,1.5,2.3,1.5,4h1.6
	c0-2.1-0.7-3.9-2-5.1c-1.2-1.2-3-1.9-4.9-1.9V19.9z M137.5,25.3c0,1.7-0.6,3.1-1.5,4c-0.9,0.9-2.2,1.4-3.8,1.4v1.6
	c1.9,0,3.7-0.7,4.9-1.9c1.2-1.2,2-3,2-5.1H137.5z"/>
<path fill="#1F232A" d="M20.6,12.6V15C19,13,16.4,11.8,13,11.8c-6.7,0-12.2,5.9-12.2,13.5S6.3,38.8,13,38.8c3.4,0,5.9-1.2,7.6-3.1v2.4
	h7.7V12.6H20.6z M14.6,31.6c-3.5,0-6.1-2.4-6.1-6.2s2.6-6.2,6.1-6.2s6.1,2.4,6.1,6.2S18.1,31.6,14.6,31.6z M33.9,38.1h7.7V0.8h-7.7
	V38.1z M51.1,10.3c2.5,0,4.6-2.1,4.6-4.6s-2.1-4.6-4.6-4.6c-2.5,0-4.6,2.1-4.6,4.6S48.5,10.3,51.1,10.3z M47.2,38.1h7.7V12.6h-7.7
	V38.1z M75.5,11.8c-3.4,0-5.9,1.2-7.3,3.1v-2.4h-7.7v25.6h7.7v-14c0-3.6,1.9-5.3,4.8-5.3c2.5,0,4.4,1.5,4.4,4.7v14.6H85V22.4
	C85,15.5,80.6,11.8,75.5,11.8z M97.2,28.4h18.2c0.2-1,0.3-2,0.3-3.1c0-7.7-5.5-13.5-13-13.5c-8.1,0-13.6,5.9-13.6,13.5
	s5.4,13.5,14.2,13.5c4.9,0,8.6-1.8,11.1-5.3l-6.1-3.5c-1,1.1-2.8,1.9-4.9,1.9C100.5,32,98.1,31.1,97.2,28.4z M97,22.7
	c0.7-2.6,2.7-4,5.6-4c2.3,0,4.6,1.1,5.4,4H97z M138.3,12.6V15c-1.7-1.9-4.2-3.1-7.6-3.1c-6.7,0-12.2,5.9-12.2,13.5
	s5.5,13.5,12.2,13.5c3.4,0,5.9-1.2,7.6-3.1v2.4h7.7V12.6H138.3z M132.2,31.6c-3.5,0-6.1-2.4-6.1-6.2s2.6-6.2,6.1-6.2
	c3.5,0,6.1,2.4,6.1,6.2S135.7,31.6,132.2,31.6z"/>
</svg>
