<?xml version="1.0" encoding="UTF-8"?><svg xmlns="http://www.w3.org/2000/svg" viewBox="0 0 192 192"><defs><style>.cls-1{fill:#fff;}.cls-2{fill:#3f61e8;}</style></defs><path class="cls-2" d="M96,192c42.05,0,63.69,0,78.96-15.26,15.26-15.26,17.04-38.69,17.04-80.74s-1.78-63.69-17.04-78.96C159.69,1.78,138.05,0,96,0S32.31,1.78,17.04,17.04C1.78,32.31,0,53.95,0,96s1.78,63.69,17.04,78.96c15.26,15.26,36.91,17.04,78.96,17.04Z"/><path class="cls-1" d="M111.03,55.45v7.12c-4.91-5.76-12.19-9.24-22.16-9.24-19.48,0-35.54,17.42-35.54,40s16.06,40,35.54,40c9.96,0,17.25-3.48,22.16-9.24v7.12h22.31V55.45h-22.31ZM93.33,111.82c-10.26,0-17.69-7.12-17.69-18.48s7.43-18.48,17.69-18.48,17.69,7.12,17.69,18.48-7.43,18.48-17.69,18.48Z"/></svg>