<?xml version="1.0" encoding="UTF-8"?>
<svg id="Layer_1" data-name="Layer 1" xmlns="http://www.w3.org/2000/svg" xmlns:xlink="http://www.w3.org/1999/xlink" viewBox="0 0 274 406.05">
  <defs>
    <style>
      .cls-1 {
        mask: url(#mask-31);
      }

      .cls-2 {
        mask: url(#mask-30);
      }

      .cls-3 {
        mask: url(#mask-32);
      }

      .cls-4 {
        mask: url(#mask-22);
      }

      .cls-5 {
        mask: url(#mask-23);
      }

      .cls-6 {
        mask: url(#mask-24);
      }

      .cls-7 {
        mask: url(#mask-25);
      }

      .cls-8 {
        mask: url(#mask-15);
      }

      .cls-9 {
        mask: url(#mask-17);
      }

      .cls-10 {
        mask: url(#mask-18);
      }

      .cls-11 {
        mask: url(#mask-14);
      }

      .cls-12 {
        mask: url(#mask-13);
      }

      .cls-13 {
        mask: url(#mask-19);
      }

      .cls-14 {
        mask: url(#mask-12);
      }

      .cls-15 {
        mask: url(#mask-20);
      }

      .cls-16 {
        mask: url(#mask-21);
      }

      .cls-17 {
        mask: url(#mask-11);
      }

      .cls-18 {
        mask: url(#mask-16);
      }

      .cls-19 {
        mask: url(#mask-10);
      }

      .cls-20 {
        mask: url(#mask-27);
      }

      .cls-21 {
        mask: url(#mask-28);
      }

      .cls-22 {
        mask: url(#mask-29);
      }

      .cls-23 {
        mask: url(#mask-26);
      }

      .cls-24, .cls-25 {
        opacity: .1;
      }

      .cls-24, .cls-25, .cls-26 {
        isolation: isolate;
      }

      .cls-24, .cls-25, .cls-27, .cls-28, .cls-29, .cls-30 {
        stroke-width: 0px;
      }

      .cls-24, .cls-28 {
        fill: #3f61e8;
      }

      .cls-25, .cls-27 {
        fill: #4b4b66;
      }

      .cls-31 {
        mask: url(#mask);
      }

      .cls-32 {
        opacity: .9;
      }

      .cls-33 {
        mask: url(#mask-3);
      }

      .cls-34 {
        mask: url(#mask-2);
      }

      .cls-35 {
        mask: url(#mask-5);
      }

      .cls-36 {
        mask: url(#mask-4);
      }

      .cls-37 {
        mask: url(#mask-1);
      }

      .cls-38 {
        mask: url(#mask-7);
      }

      .cls-39 {
        mask: url(#mask-6);
      }

      .cls-40 {
        mask: url(#mask-8);
      }

      .cls-41 {
        mask: url(#mask-9);
      }

      .cls-29 {
        fill: #f1f3fd;
      }

      .cls-30 {
        fill: #fff;
      }
    </style>
    <mask id="mask" x="23" y="-.09" width="12" height="12" maskUnits="userSpaceOnUse">
      <g id="mask-for-svg61">
        <rect class="cls-30" x="23" y="-.09" width="12" height="12"/>
      </g>
    </mask>
    <mask id="mask-1" x="42" y="-8.09" width="116.56" height="34.47" maskUnits="userSpaceOnUse">
      <g id="mask-for-alinea-EntryTree-tree-item-label-itemName11">
        <rect class="cls-30" x="42" y="-8.09" width="116.56" height="25"/>
      </g>
    </mask>
    <mask id="mask-2" x="6.5" y="30.91" width="14" height="14" maskUnits="userSpaceOnUse">
      <g id="mask-for-svg71">
        <rect class="cls-30" x="6.5" y="30.91" width="14" height="14"/>
      </g>
    </mask>
    <mask id="mask-3" x="23" y="31.91" width="12" height="12" maskUnits="userSpaceOnUse">
      <g id="mask-for-svg81">
        <rect class="cls-30" x="23" y="31.91" width="12" height="12"/>
      </g>
    </mask>
    <mask id="mask-4" x="42" y="26.16" width="111.55" height="24.9" maskUnits="userSpaceOnUse">
      <g id="mask-for-alinea-EntryTree-tree-item-label-itemName21">
        <rect class="cls-30" x="42" y="26.16" width="111.55" height="18.06"/>
      </g>
    </mask>
    <mask id="mask-5" x="6.5" y="62.91" width="14" height="14" maskUnits="userSpaceOnUse">
      <g id="mask-for-svg91">
        <rect class="cls-30" x="6.5" y="62.91" width="14" height="14"/>
      </g>
    </mask>
    <mask id="mask-6" x="23" y="63.91" width="12" height="12" maskUnits="userSpaceOnUse">
      <g id="mask-for-svg101">
        <rect class="cls-30" x="23" y="63.91" width="12" height="12"/>
      </g>
    </mask>
    <mask id="mask-7" x="42" y="57.57" width="62.08" height="27.39" maskUnits="userSpaceOnUse">
      <g id="mask-for-alinea-EntryTree-tree-item-label-itemName31">
        <rect class="cls-30" x="42" y="57.57" width="62.08" height="19.86"/>
      </g>
    </mask>
    <mask id="mask-8" x="37" y="95.91" width="12" height="12" maskUnits="userSpaceOnUse">
      <g id="mask-for-svg111">
        <rect class="cls-30" x="37" y="95.91" width="12" height="12"/>
      </g>
    </mask>
    <mask id="mask-9" x="56" y="87.66" width="101.37" height="35.55" maskUnits="userSpaceOnUse">
      <g id="mask-for-alinea-EntryTree-tree-item-label-itemName41">
        <rect class="cls-30" x="56" y="87.66" width="101.37" height="25.78"/>
      </g>
    </mask>
    <mask id="mask-10" x="20.5" y="126.91" width="14" height="14" maskUnits="userSpaceOnUse">
      <g id="mask-for-svg121">
        <rect class="cls-30" x="20.5" y="126.91" width="14" height="14"/>
      </g>
    </mask>
    <mask id="mask-11" x="37" y="127.91" width="12" height="12" maskUnits="userSpaceOnUse">
      <g id="mask-for-svg131">
        <rect class="cls-30" x="37" y="127.91" width="12" height="12"/>
      </g>
    </mask>
    <mask id="mask-12" x="56" y="120.83" width="104.55" height="30.57" maskUnits="userSpaceOnUse">
      <g id="mask-for-alinea-EntryTree-tree-item-label-itemName51">
        <rect class="cls-30" x="56" y="120.83" width="104.55" height="22.17"/>
      </g>
    </mask>
    <mask id="mask-13" x="20.5" y="158.91" width="14" height="14" maskUnits="userSpaceOnUse">
      <g id="mask-for-svg141">
        <rect class="cls-30" x="20.5" y="158.91" width="14" height="14"/>
      </g>
    </mask>
    <mask id="mask-14" x="37" y="159.91" width="12" height="12" maskUnits="userSpaceOnUse">
      <g id="mask-for-svg151">
        <rect class="cls-30" x="37" y="159.91" width="12" height="12"/>
      </g>
    </mask>
    <mask id="mask-15" x="20.5" y="190.91" width="14" height="14" maskUnits="userSpaceOnUse">
      <g id="mask-for-svg161">
        <rect class="cls-30" x="20.5" y="190.91" width="14" height="14"/>
      </g>
    </mask>
    <mask id="mask-16" x="37" y="191.91" width="12" height="12" maskUnits="userSpaceOnUse">
      <g id="mask-for-svg171">
        <rect class="cls-30" x="37" y="191.91" width="12" height="12"/>
      </g>
    </mask>
    <mask id="mask-17" x="56" y="186.66" width="73.95" height="22.75" maskUnits="userSpaceOnUse">
      <g id="mask-for-alinea-EntryTree-tree-item-label-itemName71">
        <rect class="cls-30" x="56" y="186.66" width="73.95" height="16.5"/>
      </g>
    </mask>
    <mask id="mask-18" x="51" y="223.91" width="12" height="12" maskUnits="userSpaceOnUse">
      <g id="mask-for-svg181">
        <rect class="cls-30" x="51" y="223.91" width="12" height="12"/>
      </g>
    </mask>
    <mask id="mask-19" x="70" y="215.46" width="126.64" height="36.46" maskUnits="userSpaceOnUse">
      <g id="mask-for-alinea-EntryTree-tree-item-label-itemName81">
        <rect class="cls-30" x="70" y="215.46" width="126.64" height="26.44"/>
      </g>
    </mask>
    <mask id="mask-20" x="51" y="255.91" width="12" height="12" maskUnits="userSpaceOnUse">
      <g id="mask-for-svg191">
        <rect class="cls-30" x="51" y="255.91" width="12" height="12"/>
      </g>
    </mask>
    <mask id="mask-21" x="70" y="247.95" width="107.8" height="34.29" maskUnits="userSpaceOnUse">
      <g id="mask-for-alinea-EntryTree-tree-item-label-itemName91">
        <rect class="cls-30" x="70" y="247.95" width="107.8" height="24.87"/>
      </g>
    </mask>
    <mask id="mask-22" x="51" y="287.91" width="12" height="12" maskUnits="userSpaceOnUse">
      <g id="mask-for-svg201">
        <rect class="cls-30" x="51" y="287.91" width="12" height="12"/>
      </g>
    </mask>
    <mask id="mask-23" x="70" y="280.35" width="113.71" height="32.59" maskUnits="userSpaceOnUse">
      <g id="mask-for-alinea-EntryTree-tree-item-label-itemName101">
        <rect class="cls-30" x="70" y="280.35" width="113.71" height="23.64"/>
      </g>
    </mask>
    <mask id="mask-24" x="51" y="319.91" width="12" height="12" maskUnits="userSpaceOnUse">
      <g id="mask-for-svg211">
        <rect class="cls-30" x="51" y="319.91" width="12" height="12"/>
      </g>
    </mask>
    <mask id="mask-25" x="70" y="313.91" width="89.52" height="25.96" maskUnits="userSpaceOnUse">
      <g id="mask-for-alinea-EntryTree-tree-item-label-itemName111">
        <rect class="cls-30" x="70" y="313.91" width="89.52" height="18.83"/>
      </g>
    </mask>
    <mask id="mask-26" x="20.5" y="350.91" width="14" height="14" maskUnits="userSpaceOnUse">
      <g id="mask-for-svg221">
        <rect class="cls-30" x="20.5" y="350.91" width="14" height="14"/>
      </g>
    </mask>
    <mask id="mask-27" x="37" y="351.91" width="12" height="12" maskUnits="userSpaceOnUse">
      <g id="mask-for-svg231">
        <rect class="cls-30" x="37" y="351.91" width="12" height="12"/>
      </g>
    </mask>
    <mask id="mask-28" x="56" y="345.38" width="81.95" height="28.21" maskUnits="userSpaceOnUse">
      <g id="mask-for-alinea-EntryTree-tree-item-label-itemName121">
        <rect class="cls-30" x="56" y="345.38" width="81.95" height="20.46"/>
      </g>
    </mask>
    <mask id="mask-29" x="20.5" y="382.91" width="14" height="14" maskUnits="userSpaceOnUse">
      <g id="mask-for-svg241">
        <rect class="cls-30" x="20.5" y="382.91" width="14" height="14"/>
      </g>
    </mask>
    <mask id="mask-30" x="37" y="383.91" width="12" height="12" maskUnits="userSpaceOnUse">
      <g id="mask-for-svg251">
        <rect class="cls-30" x="37" y="383.91" width="12" height="12"/>
      </g>
    </mask>
    <mask id="mask-31" x="56" y="377.24" width="101.96" height="28.81" maskUnits="userSpaceOnUse">
      <g id="mask-for-alinea-EntryTree-tree-item-label-itemName131">
        <rect class="cls-30" x="56" y="377.24" width="101.96" height="20.89"/>
      </g>
    </mask>
    <mask id="mask-32" x="56" y="156.83" width="61.74" height="26.28" maskUnits="userSpaceOnUse">
      <g id="mask-for-alinea-EntryTree-tree-item-label-itemName71-2" data-name="mask-for-alinea-EntryTree-tree-item-label-itemName71">
        <rect class="cls-30" x="56" y="156.83" width="61.74" height="19.06"/>
      </g>
    </mask>
  </defs>
  <g id="alinea-EntryTree-tree-item-icon1">
    <g id="alinea-Icon6">
      <g class="cls-31">
        <g id="svg6" class="cls-32">
          <g>
            <path class="cls-25" d="m29.5,1.91h-3.5v8h6v-5.5h-2.5V1.91Zm1.5,7h-4v-1h4v1Zm0-3v1h-4v-1h4Z"/>
            <path class="cls-27" d="m27,7.91h4v1h-4v-1Zm0-2h4v1h-4v-1Zm3-5h-4c-.55,0-1,.45-1,1v8c0,.55.44,1,.99,1h6.01c.55,0,1-.45,1-1V3.91l-3-3Zm2,9h-6V1.91h3.5v2.5h2.5v5.5Z"/>
          </g>
        </g>
      </g>
    </g>
  </g>
  <g class="cls-37">
    <g id="alinea-EntryTree-tree-item-label-itemName1">
      <g class="cls-26" text-rendering="auto">
        <g class="cls-26">
          <path class="cls-27" d="m43.14,11.23V1.77h1.21v4.09h4.96V1.77h1.21v9.46h-1.21v-4.3h-4.96v4.3h-1.21Z"/>
          <path class="cls-27" d="m55.55,11.38c-.64,0-1.21-.15-1.69-.46-.48-.3-.86-.73-1.13-1.28s-.41-1.19-.41-1.92.14-1.39.41-1.94c.27-.55.65-.98,1.13-1.29.48-.3,1.05-.46,1.69-.46s1.21.15,1.7.46.87.73,1.14,1.29c.27.55.41,1.2.41,1.94s-.14,1.37-.41,1.92-.65.98-1.14,1.28-1.05.46-1.7.46Zm0-1.02c.48,0,.87-.12,1.18-.37s.54-.57.69-.97c.15-.4.22-.83.22-1.3s-.07-.91-.22-1.31c-.15-.4-.38-.73-.69-.98-.31-.25-.7-.37-1.18-.37s-.86.12-1.17.37c-.3.25-.53.57-.68.97s-.22.84-.22,1.31.07.9.22,1.3c.15.4.37.72.68.97s.69.37,1.17.37Z"/>
          <path class="cls-27" d="m60.46,11.23v-7.1h1.11v1.3c.18-.48.45-.84.82-1.07.37-.24.76-.36,1.18-.36.47,0,.85.13,1.16.4.31.26.52.61.65,1.05.17-.45.46-.8.86-1.06.4-.26.86-.39,1.37-.39.41,0,.79.09,1.12.27s.61.45.81.81c.2.36.3.81.3,1.36v4.79h-1.14v-4.75c0-.51-.14-.88-.43-1.1s-.62-.33-1-.33c-.48,0-.85.15-1.13.44s-.41.66-.41,1.11v4.63h-1.14v-4.87c0-.39-.13-.71-.39-.95s-.59-.36-1-.36-.78.14-1.1.43-.48.72-.48,1.28v4.47h-1.14Z"/>
          <path class="cls-27" d="m74.83,11.38c-.69,0-1.28-.15-1.77-.46-.5-.3-.88-.73-1.15-1.28-.27-.55-.4-1.18-.4-1.91s.13-1.37.39-1.92.63-.99,1.11-1.3c.48-.31,1.04-.47,1.69-.47.38,0,.75.06,1.11.19.37.12.7.33,1,.6.3.28.54.64.71,1.1s.27,1.01.27,1.66v.48h-5.13c.03.74.24,1.31.64,1.7s.91.59,1.54.59c.42,0,.78-.09,1.08-.28.3-.18.52-.46.65-.82l1.1.3c-.17.54-.5.97-1,1.3-.5.33-1.12.5-1.84.5Zm-2.16-4.28h3.96c-.06-.6-.24-1.1-.57-1.48-.32-.38-.78-.57-1.36-.57-.41,0-.76.1-1.05.29-.29.19-.53.44-.7.75s-.26.65-.29,1.01Z"/>
          <path class="cls-27" d="m79.43,13.88V4.13h1.1v1.14h.13c.08-.13.19-.29.34-.48.14-.19.35-.37.62-.52s.64-.23,1.1-.23c.59,0,1.11.15,1.56.44.45.3.8.72,1.06,1.27.26.55.38,1.2.38,1.95s-.13,1.4-.38,1.96-.61.98-1.06,1.28c-.45.3-.97.45-1.56.45-.45,0-.81-.08-1.09-.23-.27-.15-.49-.33-.63-.53-.15-.2-.26-.36-.34-.49h-.09v3.75h-1.14Zm3.12-3.52c.44,0,.82-.12,1.11-.36.3-.24.52-.56.67-.96.15-.4.23-.85.23-1.35s-.07-.93-.22-1.33c-.15-.4-.37-.71-.67-.94-.3-.23-.67-.35-1.12-.35-.65,0-1.15.24-1.49.72s-.51,1.12-.51,1.9.17,1.43.51,1.93.84.74,1.48.74Z"/>
          <path class="cls-27" d="m89.5,11.39c-.45,0-.86-.08-1.22-.25-.37-.17-.66-.42-.87-.74s-.32-.72-.32-1.19c0-.41.08-.74.24-.99s.38-.45.64-.6c.27-.15.57-.26.89-.33s.65-.13.98-.17c.42-.06.77-.1,1.03-.13s.46-.08.59-.15c.13-.07.19-.19.19-.37v-.04c0-.44-.12-.78-.37-1.02-.25-.24-.62-.37-1.11-.37s-.91.11-1.2.33c-.29.22-.49.46-.6.71l-1.1-.36c.18-.43.43-.77.74-1.01.31-.24.65-.42,1.02-.52s.74-.15,1.1-.15c.24,0,.51.03.81.09.3.06.59.17.88.34.28.17.51.42.7.75.18.33.28.78.28,1.33v4.68h-1.12v-.96h-.08c-.08.17-.21.34-.39.51-.18.18-.41.32-.69.44s-.63.18-1.03.18Zm.2-1.01c.42,0,.78-.08,1.07-.25s.51-.38.67-.64c.15-.26.23-.54.23-.83v-.98c-.05.06-.15.1-.3.15-.16.04-.34.08-.54.12-.2.03-.4.06-.58.09-.19.02-.34.04-.45.05-.27.03-.53.09-.77.17-.24.08-.43.2-.57.36-.14.16-.22.37-.22.64,0,.37.14.65.42.83.28.19.63.28,1.05.28Z"/>
          <path class="cls-27" d="m97.69,14.03c-.79,0-1.42-.14-1.89-.43s-.81-.63-1.03-1.02l.93-.6c.1.14.23.29.38.45.15.17.35.31.61.42.26.12.59.17,1.01.17.57,0,1.03-.14,1.4-.41.37-.27.55-.7.55-1.28v-1.42h-.11c-.08.14-.19.3-.34.48-.15.19-.36.35-.63.49-.27.14-.64.21-1.09.21-.57,0-1.08-.13-1.53-.4-.45-.27-.81-.66-1.07-1.18s-.39-1.14-.39-1.89.13-1.37.39-1.91c.26-.54.61-.96,1.07-1.25.45-.3.98-.44,1.56-.44.46,0,.82.08,1.09.23.27.15.48.32.63.52s.26.36.34.48h.11v-1.14h1.11v7.28c0,.61-.14,1.11-.41,1.49-.27.39-.65.67-1.11.85-.47.18-.99.27-1.56.27Zm-.03-3.94c.64,0,1.14-.22,1.48-.66.34-.44.51-1.04.51-1.82s-.17-1.37-.5-1.84c-.34-.48-.83-.71-1.49-.71-.45,0-.82.12-1.12.35-.3.23-.53.54-.68.92-.15.39-.23.81-.23,1.29,0,.73.17,1.32.51,1.78s.85.69,1.51.69Z"/>
          <path class="cls-27" d="m105.77,11.38c-.69,0-1.28-.15-1.77-.46-.5-.3-.88-.73-1.15-1.28-.27-.55-.4-1.18-.4-1.91s.13-1.37.39-1.92.63-.99,1.11-1.3c.48-.31,1.04-.47,1.69-.47.38,0,.75.06,1.11.19.37.12.7.33,1,.6.3.28.54.64.71,1.1s.27,1.01.27,1.66v.48h-5.13c.03.74.24,1.31.64,1.7s.91.59,1.54.59c.42,0,.78-.09,1.08-.28.3-.18.52-.46.65-.82l1.1.3c-.17.54-.5.97-1,1.3-.5.33-1.12.5-1.84.5Zm-2.16-4.28h3.96c-.06-.6-.24-1.1-.57-1.48-.32-.38-.78-.57-1.36-.57-.41,0-.76.1-1.05.29-.29.19-.53.44-.7.75s-.26.65-.29,1.01Z"/>
        </g>
      </g>
    </g>
  </g>
  <g id="alinea-Icon7">
    <g class="cls-34">
      <g id="svg7">
        <path class="cls-27" d="m11.92,40.18l2.26-2.26-2.26-2.26c-.23-.23-.23-.6,0-.82s.6-.23.82,0l2.68,2.68c.23.23.23.59,0,.82l-2.68,2.68c-.23.23-.59.23-.82,0,0,0,0,0,0,0-.22-.23-.23-.6,0-.83Z"/>
      </g>
    </g>
  </g>
  <g id="alinea-EntryTree-tree-item-icon2">
    <g id="alinea-Icon8">
      <g class="cls-33">
        <g id="svg8" class="cls-32">
          <g>
            <path class="cls-25" d="m28.59,35.91l-.29-.3-.71-.7h-2.59v6h8v-5h-4.41Z"/>
            <path class="cls-27" d="m33,34.91h-4l-1-1h-3c-.55,0-1,.45-1,1v6c0,.55.45,1,1,1h8c.55,0,1-.45,1-1v-5c0-.55-.45-1-1-1m0,6h-8v-6h2.59l.7.7.3.3h4.41v5Z"/>
          </g>
        </g>
      </g>
    </g>
  </g>
  <g class="cls-36">
    <g id="alinea-EntryTree-tree-item-label-itemName2">
      <g class="cls-26" text-rendering="auto">
        <g class="cls-26">
          <path class="cls-27" d="m43.14,43.23v-9.46h3.35c.66,0,1.21.11,1.63.34.43.23.75.53.96.91.21.38.31.8.31,1.26,0,.41-.07.74-.22,1.01-.14.26-.33.47-.57.63-.23.16-.49.27-.76.35v.09c.3.02.59.12.89.3.29.19.54.45.74.79.2.34.29.76.29,1.26s-.11.9-.33,1.28c-.22.38-.56.68-1.02.9-.47.22-1.07.33-1.82.33h-3.46Zm1.21-5.31h2.08c.51,0,.94-.15,1.29-.44s.53-.69.53-1.17c0-.41-.14-.76-.43-1.04-.29-.28-.73-.43-1.35-.43h-2.12v3.08Zm0,4.24h2.22c.74,0,1.26-.14,1.57-.43.31-.28.47-.63.47-1.04,0-.32-.08-.61-.24-.88s-.39-.48-.68-.64c-.29-.16-.64-.24-1.05-.24h-2.29v3.22Z"/>
          <path class="cls-27" d="m52.65,33.77v9.46h-1.14v-9.46h1.14Z"/>
          <path class="cls-27" d="m57.55,43.38c-.64,0-1.21-.15-1.69-.46-.48-.3-.86-.73-1.13-1.28s-.41-1.19-.41-1.92.14-1.39.41-1.94c.27-.55.65-.98,1.13-1.29.48-.3,1.05-.46,1.69-.46s1.21.15,1.7.46.87.73,1.14,1.29c.27.55.41,1.2.41,1.94s-.14,1.37-.41,1.92-.65.98-1.14,1.28-1.05.46-1.7.46Zm0-1.02c.48,0,.87-.12,1.18-.37s.54-.57.69-.97c.15-.4.22-.83.22-1.3s-.07-.91-.22-1.31c-.15-.4-.38-.73-.69-.98-.31-.25-.7-.37-1.18-.37s-.86.12-1.17.37c-.3.25-.53.57-.68.97s-.22.84-.22,1.31.07.9.22,1.3c.15.4.37.72.68.97s.69.37,1.17.37Z"/>
          <path class="cls-27" d="m65.33,46.03c-.79,0-1.42-.14-1.89-.43s-.81-.63-1.03-1.02l.93-.6c.1.14.23.29.38.45.15.17.35.31.61.42.26.12.59.17,1.01.17.57,0,1.03-.14,1.4-.41.37-.27.55-.7.55-1.28v-1.42h-.11c-.08.14-.19.3-.34.48-.15.19-.36.35-.63.49-.27.14-.64.21-1.09.21-.57,0-1.08-.13-1.53-.4-.45-.27-.81-.66-1.07-1.18s-.39-1.14-.39-1.89.13-1.37.39-1.91c.26-.54.61-.96,1.07-1.25.45-.3.98-.44,1.56-.44.46,0,.82.08,1.09.23.27.15.48.32.63.52s.26.36.34.48h.11v-1.14h1.11v7.28c0,.61-.14,1.11-.41,1.49-.27.39-.65.67-1.11.85-.47.18-.99.27-1.56.27Zm-.03-3.94c.64,0,1.14-.22,1.48-.66.34-.44.51-1.04.51-1.82s-.17-1.37-.5-1.84c-.34-.48-.83-.71-1.49-.71-.45,0-.82.12-1.12.35-.3.23-.53.54-.68.92-.15.39-.23.81-.23,1.29,0,.73.17,1.32.51,1.78s.85.69,1.51.69Z"/>
        </g>
      </g>
    </g>
  </g>
  <g id="alinea-Icon9">
    <g class="cls-35">
      <g id="svg9">
        <path class="cls-27" d="m11.24,68.33l2.26,2.26,2.26-2.26c.23-.23.6-.23.82,0,.23.23.23.6,0,.82h0l-2.68,2.68c-.23.23-.59.23-.82,0,0,0,0,0,0,0l-2.68-2.68c-.23-.23-.23-.59,0-.82,0,0,0,0,0,0,.23-.22.6-.23.83,0Z"/>
      </g>
    </g>
  </g>
  <g id="alinea-EntryTree-tree-item-icon3">
    <g id="alinea-Icon10">
      <g class="cls-39">
        <g id="svg10" class="cls-32">
          <g>
            <path class="cls-25" d="m28.59,67.91l-.29-.3-.71-.7h-2.59v6h8v-5h-4.41Z"/>
            <path class="cls-27" d="m33,66.91h-4l-1-1h-3c-.55,0-1,.45-1,1v6c0,.55.45,1,1,1h8c.55,0,1-.45,1-1v-5c0-.55-.45-1-1-1m0,6h-8v-6h2.59l.7.7.3.3h4.41v5Z"/>
          </g>
        </g>
      </g>
    </g>
  </g>
  <g class="cls-38">
    <g id="alinea-EntryTree-tree-item-label-itemName3">
      <g class="cls-26" text-rendering="auto">
        <g class="cls-26">
          <path class="cls-27" d="m46.09,75.23h-2.95v-9.46h3.07c.92,0,1.71.19,2.36.56.65.38,1.16.92,1.5,1.62.35.71.52,1.55.52,2.52s-.18,1.83-.53,2.54c-.35.71-.86,1.25-1.54,1.63s-1.49.57-2.45.57Zm-1.75-1.07h1.67c1.15,0,2.01-.33,2.57-.98.57-.65.85-1.55.85-2.7s-.28-2.03-.83-2.68c-.55-.65-1.38-.97-2.48-.97h-1.78v7.33Z"/>
          <path class="cls-27" d="m55.27,75.38c-.64,0-1.21-.15-1.69-.46-.48-.3-.86-.73-1.13-1.28s-.41-1.19-.41-1.92.14-1.39.41-1.94c.27-.55.65-.98,1.13-1.29.48-.3,1.05-.46,1.69-.46s1.21.15,1.7.46.87.73,1.14,1.29c.27.55.41,1.2.41,1.94s-.14,1.37-.41,1.92-.65.98-1.14,1.28-1.05.46-1.7.46Zm0-1.02c.48,0,.87-.12,1.18-.37s.54-.57.69-.97c.15-.4.22-.83.22-1.3s-.07-.91-.22-1.31c-.15-.4-.38-.73-.69-.98-.31-.25-.7-.37-1.18-.37s-.86.12-1.17.37c-.3.25-.53.57-.68.97s-.22.84-.22,1.31.07.9.22,1.3c.15.4.37.72.68.97s.69.37,1.17.37Z"/>
          <path class="cls-27" d="m63.07,75.38c-.64,0-1.21-.15-1.69-.46-.48-.3-.86-.73-1.13-1.28s-.41-1.19-.41-1.92.14-1.39.41-1.94c.27-.55.65-.98,1.13-1.29.48-.3,1.05-.46,1.69-.46.69,0,1.29.17,1.81.52.52.34.87.83,1.07,1.44l-1.1.31c-.11-.36-.31-.66-.62-.9-.31-.23-.69-.35-1.16-.35s-.86.12-1.17.37c-.3.25-.53.57-.68.97s-.22.84-.22,1.31.07.9.22,1.3c.15.4.37.72.68.97s.69.37,1.17.37.87-.12,1.18-.36c.31-.24.52-.56.62-.94l1.09.31c-.19.63-.55,1.12-1.07,1.48-.52.36-1.13.54-1.83.54Z"/>
          <path class="cls-27" d="m70.02,75.38c-.73,0-1.33-.16-1.82-.48s-.79-.78-.91-1.4l1.09-.26c.1.39.29.67.57.86.28.18.63.27,1.06.27.5,0,.89-.11,1.18-.32.29-.21.44-.46.44-.76,0-.49-.35-.81-1.04-.98l-1.18-.28c-1.27-.3-1.9-.95-1.9-1.94,0-.41.11-.76.34-1.08.23-.31.54-.55.94-.73.4-.18.85-.26,1.35-.26.73,0,1.3.16,1.7.48.4.32.69.73.85,1.23l-1.03.27c-.1-.25-.26-.48-.49-.69-.23-.21-.57-.31-1.02-.31-.42,0-.78.1-1.06.29-.28.19-.42.44-.42.74,0,.26.1.47.29.63.19.16.49.29.91.38l1.07.25c.64.15,1.12.39,1.43.71.31.32.46.72.46,1.21,0,.41-.12.78-.35,1.11-.24.32-.56.58-.98.76-.42.19-.91.28-1.46.28Z"/>
        </g>
      </g>
    </g>
  </g>
  <g id="alinea-EntryTree-tree-item-icon4">
    <g id="alinea-Icon11">
      <g class="cls-40">
        <g id="svg11" class="cls-32">
          <g>
            <path class="cls-25" d="m43.5,97.91h-3.5v8h6v-5.5h-2.5v-2.5Zm1.5,7h-4v-1h4v1Zm0-3v1h-4v-1h4Z"/>
            <path class="cls-27" d="m41,103.91h4v1h-4v-1Zm0-2h4v1h-4v-1Zm3-5h-4c-.55,0-1,.45-1,1v8c0,.55.44,1,.99,1h6.01c.55,0,1-.45,1-1v-6l-3-3Zm2,9h-6v-8h3.5v2.5h2.5v5.5Z"/>
          </g>
        </g>
      </g>
    </g>
  </g>
  <g class="cls-41">
    <g id="alinea-EntryTree-tree-item-label-itemName4">
      <g class="cls-26" text-rendering="auto">
        <g class="cls-26">
          <path class="cls-27" d="m61.01,107.36c-.84,0-1.58-.2-2.22-.59s-1.13-.95-1.49-1.68c-.36-.73-.53-1.59-.53-2.58s.18-1.87.53-2.59c.36-.73.85-1.29,1.47-1.68s1.34-.59,2.15-.59c.67,0,1.27.13,1.82.39.54.26,1,.62,1.35,1.08.36.46.6,1,.71,1.62h-1.24c-.19-.6-.52-1.09-.96-1.44-.45-.36-1-.53-1.67-.53-.55,0-1.06.14-1.51.43-.45.29-.81.71-1.08,1.26-.27.56-.4,1.24-.4,2.05s.13,1.48.4,2.04c.27.55.63.98,1.1,1.26s.98.43,1.56.43c.52,0,.99-.11,1.39-.33s.72-.53.95-.94c.23-.41.35-.89.36-1.44h-2.45v-1.05h3.63v1.03c0,.78-.17,1.46-.5,2.04s-.79,1.02-1.37,1.34c-.58.31-1.25.47-2,.47Z"/>
          <path class="cls-27" d="m69.69,107.38c-.69,0-1.28-.15-1.77-.46-.5-.3-.88-.73-1.15-1.28-.27-.55-.4-1.18-.4-1.91s.13-1.37.39-1.92.63-.99,1.11-1.3c.48-.31,1.04-.47,1.69-.47.38,0,.75.06,1.11.19.37.12.7.33,1,.6.3.28.54.64.71,1.1s.27,1.01.27,1.66v.48h-5.13c.03.74.24,1.31.64,1.7s.91.59,1.54.59c.42,0,.78-.09,1.08-.28.3-.18.52-.46.65-.82l1.1.3c-.17.54-.5.97-1,1.3-.5.33-1.12.5-1.84.5Zm-2.16-4.28h3.96c-.06-.6-.24-1.1-.57-1.48-.32-.38-.78-.57-1.36-.57-.41,0-.76.1-1.05.29-.29.19-.53.44-.7.75s-.26.65-.29,1.01Z"/>
          <path class="cls-27" d="m77.07,100.13v.98h-1.46v4.28c0,.32.06.55.19.7.13.15.34.22.64.22.07,0,.16,0,.28-.03.11-.02.21-.03.31-.05l.23.96c-.12.04-.25.07-.4.1-.15.02-.3.03-.45.03-.61,0-1.09-.16-1.43-.49-.34-.32-.51-.78-.51-1.36v-4.37h-1.07v-.98h1.07v-1.69h1.14v1.69h1.46Z"/>
          <path class="cls-27" d="m81.33,100.13v.98h-1.46v4.28c0,.32.06.55.19.7.13.15.34.22.64.22.07,0,.16,0,.28-.03.11-.02.21-.03.31-.05l.23.96c-.12.04-.25.07-.4.1-.15.02-.3.03-.45.03-.61,0-1.09-.16-1.43-.49-.34-.32-.51-.78-.51-1.36v-4.37h-1.07v-.98h1.07v-1.69h1.14v1.69h1.46Z"/>
          <path class="cls-27" d="m83.36,98.97c-.22,0-.4-.07-.56-.22s-.23-.33-.23-.53.08-.39.23-.54c.16-.15.34-.22.56-.22s.41.07.56.22c.16.15.23.32.23.54s-.08.39-.23.53-.34.22-.56.22Zm-.58,8.26v-7.1h1.14v7.1h-1.14Z"/>
          <path class="cls-27" d="m87.08,102.98v4.25h-1.14v-7.1h1.1v1.31c.23-.5.53-.86.9-1.08.37-.22.79-.32,1.27-.32.72,0,1.3.22,1.74.67s.66,1.12.66,2.01v4.51h-1.14v-4.41c0-.55-.14-.97-.43-1.28-.29-.31-.68-.46-1.17-.46s-.94.17-1.28.5c-.34.33-.51.8-.51,1.41Z"/>
          <path class="cls-27" d="m96.49,110.03c-.79,0-1.42-.14-1.89-.43s-.81-.63-1.03-1.02l.93-.6c.1.14.23.29.38.45.15.17.35.31.61.42.26.12.59.17,1.01.17.57,0,1.03-.14,1.4-.41.37-.27.55-.7.55-1.28v-1.42h-.11c-.08.14-.19.3-.34.48-.15.19-.36.35-.63.49-.27.14-.64.21-1.09.21-.57,0-1.08-.13-1.53-.4-.45-.27-.81-.66-1.07-1.18s-.39-1.14-.39-1.89.13-1.37.39-1.91c.26-.54.61-.96,1.07-1.25.45-.3.98-.44,1.56-.44.46,0,.82.08,1.09.23.27.15.48.32.63.52s.26.36.34.48h.11v-1.14h1.11v7.28c0,.61-.14,1.11-.41,1.49-.27.39-.65.67-1.11.85-.47.18-.99.27-1.56.27Zm-.03-3.94c.64,0,1.14-.22,1.48-.66.34-.44.51-1.04.51-1.82s-.17-1.37-.5-1.84c-.34-.48-.83-.71-1.49-.71-.45,0-.82.12-1.12.35-.3.23-.53.54-.68.92-.15.39-.23.81-.23,1.29,0,.73.17,1.32.51,1.78s.85.69,1.51.69Z"/>
          <path class="cls-27" d="m107.66,107.38c-.73,0-1.33-.16-1.82-.48s-.79-.78-.91-1.4l1.09-.26c.1.39.29.67.57.86.28.18.63.27,1.06.27.5,0,.89-.11,1.18-.32.29-.21.44-.46.44-.76,0-.49-.35-.81-1.04-.98l-1.18-.28c-1.27-.3-1.9-.95-1.9-1.94,0-.41.11-.76.34-1.08.23-.31.54-.55.94-.73.4-.18.85-.26,1.35-.26.73,0,1.3.16,1.7.48.4.32.69.73.85,1.23l-1.03.27c-.1-.25-.26-.48-.49-.69-.23-.21-.57-.31-1.02-.31-.42,0-.78.1-1.06.29-.28.19-.42.44-.42.74,0,.26.1.47.29.63.19.16.49.29.91.38l1.07.25c.64.15,1.12.39,1.43.71.31.32.46.72.46,1.21,0,.41-.12.78-.35,1.11-.24.32-.56.58-.98.76-.42.19-.91.28-1.46.28Z"/>
          <path class="cls-27" d="m114.9,100.13v.98h-1.46v4.28c0,.32.06.55.19.7.13.15.34.22.64.22.07,0,.16,0,.28-.03.11-.02.21-.03.31-.05l.23.96c-.12.04-.25.07-.4.1-.15.02-.3.03-.45.03-.61,0-1.09-.16-1.43-.49-.34-.32-.51-.78-.51-1.36v-4.37h-1.07v-.98h1.07v-1.69h1.14v1.69h1.46Z"/>
          <path class="cls-27" d="m118.41,107.39c-.45,0-.86-.08-1.22-.25-.37-.17-.66-.42-.87-.74s-.32-.72-.32-1.19c0-.41.08-.74.24-.99s.38-.45.64-.6c.27-.15.57-.26.89-.33s.65-.13.98-.17c.42-.06.77-.1,1.03-.13s.46-.08.59-.15c.13-.07.19-.19.19-.37v-.04c0-.44-.12-.78-.37-1.02-.25-.24-.62-.37-1.11-.37s-.91.11-1.2.33c-.29.22-.49.46-.6.71l-1.1-.36c.18-.43.43-.77.74-1.01.31-.24.65-.42,1.02-.52s.74-.15,1.1-.15c.24,0,.51.03.81.09.3.06.59.17.88.34.28.17.51.42.7.75.18.33.28.78.28,1.33v4.68h-1.12v-.96h-.08c-.08.17-.21.34-.39.51-.18.18-.41.32-.69.44s-.63.18-1.03.18Zm.2-1.01c.42,0,.78-.08,1.07-.25s.51-.38.67-.64c.15-.26.23-.54.23-.83v-.98c-.05.06-.15.1-.3.15-.16.04-.34.08-.54.12-.2.03-.4.06-.58.09-.19.02-.34.04-.45.05-.27.03-.53.09-.77.17-.24.08-.43.2-.57.36-.14.16-.22.37-.22.64,0,.37.14.65.42.83.28.19.63.28,1.05.28Z"/>
          <path class="cls-27" d="m123.72,107.23v-7.1h1.1v1.09h.08c.13-.36.37-.65.7-.87.34-.22.72-.33,1.14-.33.08,0,.19,0,.3,0,.12,0,.21,0,.28.01v1.15s-.12-.02-.25-.04-.28-.03-.43-.03c-.51,0-.94.16-1.27.47-.33.31-.5.71-.5,1.18v4.44h-1.14Z"/>
          <path class="cls-27" d="m131.61,100.13v.98h-1.46v4.28c0,.32.06.55.19.7.13.15.34.22.64.22.07,0,.16,0,.28-.03.11-.02.21-.03.31-.05l.23.96c-.12.04-.25.07-.4.1-.15.02-.3.03-.45.03-.61,0-1.09-.16-1.43-.49-.34-.32-.51-.78-.51-1.36v-4.37h-1.07v-.98h1.07v-1.69h1.14v1.69h1.46Z"/>
          <path class="cls-27" d="m135.93,107.38c-.69,0-1.28-.15-1.77-.46-.5-.3-.88-.73-1.15-1.28-.27-.55-.4-1.18-.4-1.91s.13-1.37.39-1.92.63-.99,1.11-1.3c.48-.31,1.04-.47,1.69-.47.38,0,.75.06,1.11.19.37.12.7.33,1,.6.3.28.54.64.71,1.1s.27,1.01.27,1.66v.48h-5.13c.03.74.24,1.31.64,1.7s.91.59,1.54.59c.42,0,.78-.09,1.08-.28.3-.18.52-.46.65-.82l1.1.3c-.17.54-.5.97-1,1.3-.5.33-1.12.5-1.84.5Zm-2.16-4.28h3.96c-.06-.6-.24-1.1-.57-1.48-.32-.38-.78-.57-1.36-.57-.41,0-.76.1-1.05.29-.29.19-.53.44-.7.75s-.26.65-.29,1.01Z"/>
          <path class="cls-27" d="m143.19,107.38c-.59,0-1.11-.15-1.56-.45-.45-.3-.81-.73-1.06-1.28s-.38-1.2-.38-1.96.13-1.4.38-1.95c.26-.55.61-.97,1.06-1.27s.97-.44,1.56-.44c.46,0,.83.08,1.1.23.27.15.48.32.63.52.15.19.26.35.33.48h.09v-3.5h1.14v9.46h-1.1v-1.1h-.13c-.08.13-.19.3-.34.49-.15.2-.36.37-.63.53-.27.15-.64.23-1.09.23Zm.17-1.02c.64,0,1.14-.25,1.48-.74.34-.5.51-1.14.51-1.93s-.17-1.42-.5-1.9c-.34-.48-.83-.72-1.49-.72-.45,0-.82.12-1.12.35-.3.23-.52.55-.67.94-.15.4-.22.84-.22,1.33s.08.94.23,1.35c.15.4.38.73.68.96.3.24.67.36,1.11.36Z"/>
        </g>
      </g>
    </g>
  </g>
  <g id="alinea-Icon12">
    <g class="cls-19">
      <g id="svg12">
        <path class="cls-27" d="m25.92,136.18l2.26-2.26-2.26-2.26c-.23-.23-.23-.6,0-.82s.6-.23.82,0l2.68,2.68c.23.23.23.59,0,.82l-2.68,2.68c-.23.23-.59.23-.82,0,0,0,0,0,0,0-.22-.23-.23-.6,0-.83Z"/>
      </g>
    </g>
  </g>
  <g id="alinea-EntryTree-tree-item-icon5">
    <g id="alinea-Icon13">
      <g class="cls-17">
        <g id="svg13" class="cls-32">
          <g>
            <path class="cls-25" d="m42.59,131.91l-.29-.3-.71-.7h-2.59v6h8v-5h-4.41Z"/>
            <path class="cls-27" d="m47,130.91h-4l-1-1h-3c-.55,0-1,.45-1,1v6c0,.55.45,1,1,1h8c.55,0,1-.45,1-1v-5c0-.55-.45-1-1-1m0,6h-8v-6h2.59l.7.7.3.3h4.41v5Z"/>
          </g>
        </g>
      </g>
    </g>
  </g>
  <g class="cls-14">
    <g id="alinea-EntryTree-tree-item-label-itemName5">
      <g class="cls-26" text-rendering="auto">
        <g class="cls-26">
          <path class="cls-27" d="m60.97,139.36c-.81,0-1.53-.2-2.16-.59-.63-.39-1.13-.95-1.49-1.68-.36-.73-.54-1.59-.54-2.59s.18-1.87.54-2.59c.36-.73.86-1.29,1.49-1.68.63-.39,1.35-.59,2.16-.59.64,0,1.23.12,1.76.37.54.25.98.6,1.35,1.06.36.46.6,1.02.71,1.67h-1.21c-.09-.43-.26-.8-.52-1.09-.26-.3-.57-.52-.93-.67-.36-.15-.75-.23-1.16-.23-.57,0-1.08.14-1.54.43s-.82.71-1.09,1.27c-.27.56-.4,1.24-.4,2.05s.13,1.48.4,2.04c.27.56.63.98,1.09,1.26.46.29.97.43,1.53.43.41,0,.8-.08,1.16-.23.36-.15.67-.38.93-.67.26-.3.43-.66.52-1.09h1.21c-.11.64-.34,1.19-.7,1.66-.36.47-.8.82-1.34,1.07-.54.25-1.13.37-1.77.37Z"/>
          <path class="cls-27" d="m69.39,139.38c-.64,0-1.21-.15-1.69-.46-.48-.3-.86-.73-1.13-1.28s-.41-1.19-.41-1.92.14-1.39.41-1.94c.27-.55.65-.98,1.13-1.29.48-.3,1.05-.46,1.69-.46s1.21.15,1.7.46.87.73,1.14,1.29c.27.55.41,1.2.41,1.94s-.14,1.37-.41,1.92-.65.98-1.14,1.28-1.05.46-1.7.46Zm0-1.02c.48,0,.87-.12,1.18-.37s.54-.57.69-.97c.15-.4.22-.83.22-1.3s-.07-.91-.22-1.31c-.15-.4-.38-.73-.69-.98-.31-.25-.7-.37-1.18-.37s-.86.12-1.17.37c-.3.25-.53.57-.68.97s-.22.84-.22,1.31.07.9.22,1.3c.15.4.37.72.68.97s.69.37,1.17.37Z"/>
          <path class="cls-27" d="m75.44,134.98v4.25h-1.14v-7.1h1.1v1.31c.23-.5.53-.86.9-1.08.37-.22.79-.32,1.27-.32.72,0,1.3.22,1.74.67s.66,1.12.66,2.01v4.51h-1.14v-4.41c0-.55-.14-.97-.43-1.28-.29-.31-.68-.46-1.17-.46s-.94.17-1.28.5c-.34.33-.51.8-.51,1.41Z"/>
          <path class="cls-27" d="m85.28,132.13v.98h-1.64v6.12h-1.14v-6.12h-1.4v-.98h1.4v-.95c0-.41.1-.75.29-1.03.19-.27.44-.48.75-.62s.63-.21.98-.21c.27,0,.5.02.67.07.18.04.31.09.39.12l-.32.98c-.06-.02-.14-.04-.23-.07-.1-.03-.22-.04-.38-.04-.35,0-.61.09-.77.27-.16.18-.24.44-.24.78v.69h1.64Z"/>
          <path class="cls-27" d="m87.36,130.97c-.22,0-.4-.07-.56-.22s-.23-.33-.23-.53.08-.39.23-.54c.16-.15.34-.22.56-.22s.41.07.56.22c.16.15.23.32.23.54s-.08.39-.23.53-.34.22-.56.22Zm-.58,8.26v-7.1h1.14v7.1h-1.14Z"/>
          <path class="cls-27" d="m92.81,142.03c-.79,0-1.42-.14-1.89-.43s-.81-.63-1.03-1.02l.93-.6c.1.14.23.29.38.45.15.17.35.31.61.42.26.12.59.17,1.01.17.57,0,1.03-.14,1.4-.41.37-.27.55-.7.55-1.28v-1.42h-.11c-.08.14-.19.3-.34.48-.15.19-.36.35-.63.49-.27.14-.64.21-1.09.21-.57,0-1.08-.13-1.53-.4-.45-.27-.81-.66-1.07-1.18s-.39-1.14-.39-1.89.13-1.37.39-1.91c.26-.54.61-.96,1.07-1.25.45-.3.98-.44,1.56-.44.46,0,.82.08,1.09.23.27.15.48.32.63.52s.26.36.34.48h.11v-1.14h1.11v7.28c0,.61-.14,1.11-.41,1.49-.27.39-.65.67-1.11.85-.47.18-.99.27-1.56.27Zm-.03-3.94c.64,0,1.14-.22,1.48-.66.34-.44.51-1.04.51-1.82s-.17-1.37-.5-1.84c-.34-.48-.83-.71-1.49-.71-.45,0-.82.12-1.12.35-.3.23-.53.54-.68.92-.15.39-.23.81-.23,1.29,0,.73.17,1.32.51,1.78s.85.69,1.51.69Z"/>
          <path class="cls-27" d="m100.31,139.32c-.72,0-1.29-.22-1.74-.67s-.67-1.12-.67-2.01v-4.51h1.14v4.41c0,.55.14.97.43,1.28s.68.46,1.17.46.93-.17,1.27-.5c.34-.33.51-.8.51-1.41v-4.25h1.15v7.1h-1.1v-1.33c-.23.52-.54.88-.91,1.1-.38.21-.79.32-1.26.32Z"/>
          <path class="cls-27" d="m105.59,139.23v-7.1h1.1v1.09h.08c.13-.36.37-.65.7-.87.34-.22.72-.33,1.14-.33.08,0,.19,0,.3,0,.12,0,.21,0,.28.01v1.15s-.12-.02-.25-.04-.28-.03-.43-.03c-.51,0-.94.16-1.27.47-.33.31-.5.71-.5,1.18v4.44h-1.14Z"/>
          <path class="cls-27" d="m112.48,139.39c-.45,0-.86-.08-1.22-.25-.37-.17-.66-.42-.87-.74s-.32-.72-.32-1.19c0-.41.08-.74.24-.99s.38-.45.64-.6c.27-.15.57-.26.89-.33s.65-.13.98-.17c.42-.06.77-.1,1.03-.13s.46-.08.59-.15c.13-.07.19-.19.19-.37v-.04c0-.44-.12-.78-.37-1.02-.25-.24-.62-.37-1.11-.37s-.91.11-1.2.33c-.29.22-.49.46-.6.71l-1.1-.36c.18-.43.43-.77.74-1.01.31-.24.65-.42,1.02-.52s.74-.15,1.1-.15c.24,0,.51.03.81.09.3.06.59.17.88.34.28.17.51.42.7.75.18.33.28.78.28,1.33v4.68h-1.12v-.96h-.08c-.08.17-.21.34-.39.51-.18.18-.41.32-.69.44s-.63.18-1.03.18Zm.2-1.01c.42,0,.78-.08,1.07-.25s.51-.38.67-.64c.15-.26.23-.54.23-.83v-.98c-.05.06-.15.1-.3.15-.16.04-.34.08-.54.12-.2.03-.4.06-.58.09-.19.02-.34.04-.45.05-.27.03-.53.09-.77.17-.24.08-.43.2-.57.36-.14.16-.22.37-.22.64,0,.37.14.65.42.83.28.19.63.28,1.05.28Z"/>
          <path class="cls-27" d="m120.58,132.13v.98h-1.46v4.28c0,.32.06.55.19.7.13.15.34.22.64.22.07,0,.16,0,.28-.03.11-.02.21-.03.31-.05l.23.96c-.12.04-.25.07-.4.1-.15.02-.3.03-.45.03-.61,0-1.09-.16-1.43-.49-.34-.32-.51-.78-.51-1.36v-4.37h-1.07v-.98h1.07v-1.69h1.14v1.69h1.46Z"/>
          <path class="cls-27" d="m122.62,130.97c-.22,0-.4-.07-.56-.22s-.23-.33-.23-.53.08-.39.23-.54c.16-.15.34-.22.56-.22s.41.07.56.22c.16.15.23.32.23.54s-.08.39-.23.53-.34.22-.56.22Zm-.58,8.26v-7.1h1.14v7.1h-1.14Z"/>
          <path class="cls-27" d="m128.08,139.38c-.64,0-1.21-.15-1.69-.46-.48-.3-.86-.73-1.13-1.28s-.41-1.19-.41-1.92.14-1.39.41-1.94c.27-.55.65-.98,1.13-1.29.48-.3,1.05-.46,1.69-.46s1.21.15,1.7.46.87.73,1.14,1.29c.27.55.41,1.2.41,1.94s-.14,1.37-.41,1.92-.65.98-1.14,1.28-1.05.46-1.7.46Zm0-1.02c.48,0,.87-.12,1.18-.37s.54-.57.69-.97c.15-.4.22-.83.22-1.3s-.07-.91-.22-1.31c-.15-.4-.38-.73-.69-.98-.31-.25-.7-.37-1.18-.37s-.86.12-1.17.37c-.3.25-.53.57-.68.97s-.22.84-.22,1.31.07.9.22,1.3c.15.4.37.72.68.97s.69.37,1.17.37Z"/>
          <path class="cls-27" d="m134.13,134.98v4.25h-1.14v-7.1h1.1v1.31c.23-.5.53-.86.9-1.08.37-.22.79-.32,1.27-.32.72,0,1.3.22,1.74.67.44.44.66,1.12.66,2.01v4.51h-1.14v-4.41c0-.55-.14-.97-.43-1.28-.29-.31-.68-.46-1.17-.46s-.94.17-1.28.5c-.34.33-.51.8-.51,1.41Z"/>
        </g>
      </g>
    </g>
  </g>
  <g id="alinea-Icon14">
    <g class="cls-12">
      <g id="svg14">
        <path class="cls-27" d="m25.92,168.18l2.26-2.26-2.26-2.26c-.23-.23-.23-.6,0-.82s.6-.23.82,0l2.68,2.68c.23.23.23.59,0,.82l-2.68,2.68c-.23.23-.59.23-.82,0,0,0,0,0,0,0-.22-.23-.23-.6,0-.83Z"/>
      </g>
    </g>
  </g>
  <g id="alinea-EntryTree-tree-item-icon6">
    <g id="alinea-Icon15">
      <g class="cls-11">
        <g id="svg15" class="cls-32">
          <g>
            <path class="cls-25" d="m42.59,163.91l-.29-.3-.71-.7h-2.59v6h8v-5h-4.41Z"/>
            <path class="cls-27" d="m47,162.91h-4l-1-1h-3c-.55,0-1,.45-1,1v6c0,.55.45,1,1,1h8c.55,0,1-.45,1-1v-5c0-.55-.45-1-1-1m0,6h-8v-6h2.59l.7.7.3.3h4.41v5Z"/>
          </g>
        </g>
      </g>
    </g>
  </g>
  <g id="alinea-Icon16">
    <g class="cls-8">
      <g id="svg16">
        <path class="cls-27" d="m25.24,196.33l2.26,2.26,2.26-2.26c.23-.23.6-.23.82,0,.23.23.23.6,0,.82h0l-2.68,2.68c-.23.23-.59.23-.82,0,0,0,0,0,0,0l-2.68-2.68c-.23-.23-.23-.59,0-.82,0,0,0,0,0,0,.23-.22.6-.23.83,0Z"/>
      </g>
    </g>
  </g>
  <g id="alinea-EntryTree-tree-item-icon7">
    <g id="alinea-Icon17">
      <g class="cls-18">
        <g id="svg17" class="cls-32">
          <g>
            <path class="cls-25" d="m42.59,195.91l-.29-.3-.71-.7h-2.59v6h8v-5h-4.41Z"/>
            <path class="cls-27" d="m47,194.91h-4l-1-1h-3c-.55,0-1,.45-1,1v6c0,.55.45,1,1,1h8c.55,0,1-.45,1-1v-5c0-.55-.45-1-1-1m0,6h-8v-6h2.59l.7.7.3.3h4.41v5Z"/>
          </g>
        </g>
      </g>
    </g>
  </g>
  <g class="cls-9">
    <g id="alinea-EntryTree-tree-item-label-itemName7">
      <g class="cls-26" text-rendering="auto">
        <g class="cls-26">
          <path class="cls-27" d="m60.97,203.36c-.81,0-1.53-.2-2.16-.59-.63-.39-1.13-.95-1.49-1.68-.36-.73-.54-1.59-.54-2.59s.18-1.87.54-2.59c.36-.73.86-1.29,1.49-1.68.63-.39,1.35-.59,2.16-.59.64,0,1.23.12,1.76.37.54.25.98.6,1.35,1.06.36.46.6,1.02.71,1.67h-1.21c-.09-.43-.26-.8-.52-1.09-.26-.3-.57-.52-.93-.67-.36-.15-.75-.23-1.16-.23-.57,0-1.08.14-1.54.43s-.82.71-1.09,1.27c-.27.56-.4,1.24-.4,2.05s.13,1.48.4,2.04c.27.56.63.98,1.09,1.26s.97.43,1.53.43c.41,0,.8-.08,1.16-.23.36-.15.67-.38.93-.67.26-.3.43-.66.52-1.09h1.21c-.11.64-.34,1.19-.7,1.66-.36.47-.8.82-1.34,1.07-.54.25-1.13.37-1.77.37Z"/>
          <path class="cls-27" d="m69.39,203.38c-.64,0-1.21-.15-1.69-.46-.48-.3-.86-.73-1.13-1.28-.27-.55-.41-1.19-.41-1.92s.14-1.39.41-1.94c.27-.55.65-.98,1.13-1.28.48-.3,1.05-.46,1.69-.46s1.21.15,1.7.46.87.73,1.14,1.28c.27.55.41,1.2.41,1.94s-.14,1.37-.41,1.92c-.27.55-.65.98-1.14,1.28s-1.05.46-1.7.46Zm0-1.02c.48,0,.87-.12,1.18-.37s.54-.57.69-.97.22-.83.22-1.3-.07-.91-.22-1.31-.38-.73-.69-.98c-.31-.25-.7-.37-1.18-.37s-.86.12-1.17.37c-.3.25-.53.57-.68.97s-.22.84-.22,1.31.07.9.22,1.3.37.72.68.97.69.37,1.17.37Z"/>
          <path class="cls-27" d="m75.44,198.98v4.25h-1.14v-7.1h1.1v1.31c.23-.5.53-.86.9-1.08.37-.22.79-.32,1.27-.32.72,0,1.3.22,1.74.67s.66,1.12.66,2.01v4.51h-1.14v-4.41c0-.55-.14-.97-.43-1.28-.29-.31-.68-.46-1.17-.46s-.94.17-1.28.5c-.34.33-.51.8-.51,1.41Z"/>
          <path class="cls-27" d="m84.77,196.13v.98h-1.46v4.28c0,.32.06.55.19.7.13.14.34.22.64.22.07,0,.16,0,.28-.03.11-.02.21-.03.31-.05l.23.96c-.12.04-.25.07-.4.09-.15.02-.3.03-.45.03-.61,0-1.09-.16-1.43-.49s-.51-.78-.51-1.36v-4.37h-1.07v-.98h1.07v-1.69h1.14v1.69h1.46Z"/>
          <path class="cls-27" d="m89.08,203.38c-.69,0-1.28-.15-1.77-.46-.5-.3-.88-.73-1.15-1.28-.27-.55-.4-1.18-.4-1.91s.13-1.37.39-1.92.63-.99,1.11-1.3c.48-.31,1.04-.47,1.69-.47.38,0,.75.06,1.11.19.37.12.7.33,1,.6.3.28.54.64.71,1.1s.27,1.01.27,1.66v.48h-5.13c.03.74.24,1.31.64,1.7.4.4.91.59,1.54.59.42,0,.78-.09,1.08-.28.3-.18.52-.46.65-.82l1.1.3c-.17.54-.5.97-1,1.3-.5.33-1.12.5-1.84.5Zm-2.16-4.28h3.96c-.06-.61-.24-1.1-.57-1.48-.32-.38-.78-.57-1.36-.57-.41,0-.76.1-1.05.29-.29.19-.53.44-.7.75s-.26.65-.29,1.01Z"/>
          <path class="cls-27" d="m94.82,198.98v4.25h-1.14v-7.1h1.1v1.31c.23-.5.53-.86.9-1.08.37-.22.79-.32,1.27-.32.72,0,1.3.22,1.74.67s.66,1.12.66,2.01v4.51h-1.14v-4.41c0-.55-.14-.97-.43-1.28-.29-.31-.68-.46-1.17-.46s-.94.17-1.28.5c-.34.33-.51.8-.51,1.41Z"/>
          <path class="cls-27" d="m104.15,196.13v.98h-1.46v4.28c0,.32.06.55.19.7.13.14.34.22.64.22.07,0,.16,0,.28-.03.11-.02.21-.03.31-.05l.23.96c-.12.04-.25.07-.4.09-.15.02-.3.03-.45.03-.61,0-1.09-.16-1.43-.49s-.51-.78-.51-1.36v-4.37h-1.07v-.98h1.07v-1.69h1.14v1.69h1.46Z"/>
        </g>
      </g>
    </g>
  </g>
  <rect class="cls-29" y="213.91" width="274" height="32" rx="6" ry="6"/>
  <g id="alinea-EntryTree-tree-item-icon8">
    <g id="alinea-Icon18">
      <g class="cls-10">
        <g id="svg18" class="cls-32">
          <g>
            <path class="cls-24" d="m57.5,225.91h-3.5v8h6v-5.5h-2.5v-2.5Zm1.5,7h-4v-1h4v1Zm0-3v1h-4v-1h4Z"/>
            <path class="cls-28" d="m55,231.91h4v1h-4v-1Zm0-2h4v1h-4v-1Zm3-5h-4c-.55,0-1,.45-1,1v8c0,.55.44,1,.99,1h6.01c.55,0,1-.45,1-1v-6l-3-3Zm2,9h-6v-8h3.5v2.5h2.5v5.5Z"/>
          </g>
        </g>
      </g>
    </g>
  </g>
  <g class="cls-13">
    <g id="alinea-EntryTree-tree-item-label-itemName8">
      <g class="cls-26" text-rendering="auto">
        <g class="cls-26">
          <path class="cls-28" d="m75,235.34c-.83,0-1.57-.19-2.22-.58-.65-.39-1.17-.94-1.55-1.66s-.57-1.59-.57-2.61.19-1.89.57-2.62c.38-.73.9-1.28,1.55-1.67.65-.39,1.4-.58,2.22-.58s1.56.19,2.22.58c.65.39,1.17.94,1.55,1.67.38.72.57,1.6.57,2.62,0,.86-.14,1.61-.41,2.26-.27.65-.65,1.18-1.12,1.59l1.31,1.69h-1.62l-.79-1.01c-.52.21-1.09.32-1.69.32Zm-.53-3.28h1.52l.79,1.03c.27-.28.47-.64.62-1.07.15-.44.22-.94.22-1.52,0-1.08-.25-1.91-.74-2.48-.49-.57-1.12-.86-1.89-.86s-1.41.29-1.9.86c-.5.57-.74,1.4-.74,2.48s.25,1.9.74,2.47c.5.57,1.13.86,1.9.86.26,0,.5-.03.73-.1l-1.26-1.66Z"/>
          <path class="cls-28" d="m83.36,235.3c-.73,0-1.32-.23-1.76-.7-.44-.46-.67-1.12-.67-1.97v-4.51h1.65v4.26c0,.47.12.85.37,1.12.25.27.59.41,1.02.41s.8-.14,1.09-.42c.28-.28.43-.68.43-1.2v-4.16h1.66v7.1h-1.57v-1.42c-.44,1.01-1.17,1.51-2.21,1.51Z"/>
          <path class="cls-28" d="m92.02,235.36c-.72,0-1.33-.15-1.84-.45-.51-.3-.91-.72-1.19-1.27-.28-.54-.42-1.19-.42-1.93s.14-1.37.41-1.92c.27-.55.66-.98,1.16-1.29.5-.31,1.09-.47,1.77-.47.58,0,1.11.13,1.6.38.49.25.89.64,1.19,1.17.3.53.45,1.2.45,2.03v.52h-4.94c.02.63.2,1.11.53,1.44.33.33.76.5,1.29.5.36,0,.68-.08.94-.23.26-.16.45-.39.56-.69l1.52.31c-.17.57-.52,1.03-1.05,1.38-.53.35-1.19.52-1.98.52Zm-1.8-4.35h3.33c-.05-.51-.21-.92-.49-1.22-.27-.31-.65-.46-1.15-.46s-.9.16-1.2.49c-.29.32-.46.72-.5,1.2Z"/>
          <path class="cls-28" d="m96.57,235.21v-7.1h1.6v1.19h.08c.13-.41.35-.73.67-.95.32-.22.68-.33,1.09-.33.21,0,.41.01.6.04v1.52c-.07-.02-.18-.03-.33-.05s-.3-.03-.45-.03c-.46,0-.84.14-1.15.43-.3.29-.45.65-.45,1.11v4.18h-1.65Z"/>
          <path class="cls-28" d="m101.87,237.75l.39-1.29.2.05c.37.1.68.09.93-.03.25-.12.42-.38.5-.79l.1-.45-2.68-7.12h1.76l1.29,3.86c.1.31.19.62.27.92.08.31.15.61.22.92.08-.31.16-.62.24-.93.08-.31.18-.61.28-.92l1.34-3.86h1.75l-3.05,8.01c-.22.57-.52,1.01-.9,1.32-.39.31-.9.47-1.54.47-.23,0-.45-.02-.64-.05-.2-.03-.35-.07-.46-.12Z"/>
          <path class="cls-28" d="m110.41,227.11c-.26,0-.49-.09-.68-.26-.19-.17-.28-.39-.28-.64s.09-.46.28-.64c.19-.18.41-.26.68-.26s.49.09.68.26c.19.18.28.39.28.64s-.09.47-.28.64c-.19.18-.42.26-.68.26Zm-.83,8.1v-7.1h1.65v7.1h-1.65Z"/>
          <path class="cls-28" d="m114.64,231.06v4.16h-1.65v-7.1h1.56l.02,1.42c.42-1,1.16-1.5,2.2-1.5.73,0,1.32.23,1.76.7.44.46.66,1.12.66,1.97v4.51h-1.65v-4.26c0-.47-.12-.85-.37-1.12s-.58-.41-1.02-.41-.8.14-1.09.42c-.29.28-.43.68-.43,1.2Z"/>
          <path class="cls-28" d="m124,238.02c-.85,0-1.54-.16-2.06-.47-.52-.31-.86-.7-1.04-1.17l1.4-.5c.11.2.29.4.54.6.25.19.64.29,1.15.29s.92-.12,1.23-.36c.31-.24.46-.61.46-1.12v-1.34h-.14c-.08.17-.21.35-.36.53s-.37.33-.63.45c-.26.12-.6.18-1.01.18-.54,0-1.03-.13-1.48-.38-.44-.26-.79-.64-1.05-1.15-.26-.51-.39-1.15-.39-1.92s.13-1.43.39-1.97c.26-.54.61-.95,1.06-1.23s.94-.42,1.49-.42c.42,0,.76.07,1.03.21s.49.31.65.5.28.38.37.55h.09v-1.17h1.62v7.12c0,.63-.14,1.16-.43,1.57-.29.41-.68.72-1.18.92-.5.2-1.07.3-1.71.3Zm.01-4.21c.54,0,.95-.19,1.24-.58s.44-.92.44-1.59-.14-1.21-.43-1.63c-.29-.41-.7-.62-1.25-.62s-.98.21-1.27.64c-.29.43-.43.96-.43,1.61s.14,1.18.43,1.58c.29.4.71.59,1.26.59Z"/>
          <path class="cls-28" d="m135.43,235.36c-.69,0-1.29-.15-1.8-.46-.51-.31-.9-.73-1.18-1.28-.28-.55-.42-1.19-.42-1.91s.14-1.38.42-1.93c.28-.55.67-.98,1.18-1.29s1.11-.46,1.8-.46c.79,0,1.46.2,2.01.59.55.4.9.94,1.05,1.63l-1.54.32c-.09-.37-.26-.66-.52-.88s-.59-.33-.98-.33c-.58,0-1.01.22-1.29.67-.29.45-.43,1-.43,1.66,0,.44.06.83.19,1.18.13.35.32.63.57.84.25.21.57.31.96.31.41,0,.74-.12,1-.35.26-.23.44-.54.52-.92l1.54.32c-.15.71-.5,1.26-1.05,1.67-.55.41-1.23.61-2.02.61Z"/>
          <path class="cls-28" d="m143,235.36c-.69,0-1.29-.15-1.8-.46-.51-.31-.9-.73-1.18-1.28-.28-.55-.42-1.19-.42-1.91s.14-1.38.42-1.93c.28-.55.67-.98,1.18-1.29s1.11-.46,1.8-.46,1.29.15,1.8.46.9.73,1.18,1.29c.28.55.42,1.2.42,1.93s-.14,1.37-.42,1.91c-.28.55-.67.97-1.18,1.28-.51.31-1.11.46-1.8.46Zm0-1.34c.38,0,.71-.1.96-.31s.44-.49.57-.84.19-.74.19-1.17-.06-.83-.19-1.18c-.13-.35-.32-.63-.57-.84-.25-.21-.57-.31-.96-.31s-.7.1-.95.31c-.25.21-.44.49-.57.84-.12.35-.19.75-.19,1.18s.06.82.19,1.17c.12.35.31.63.57.84s.57.31.95.31Z"/>
          <path class="cls-28" d="m149.49,231.06v4.16h-1.65v-7.1h1.56l.02,1.42c.42-1,1.15-1.5,2.2-1.5.73,0,1.32.23,1.76.7.44.46.66,1.12.66,1.97v4.51h-1.65v-4.26c0-.47-.12-.85-.37-1.12-.25-.27-.58-.41-1.02-.41s-.8.14-1.09.42c-.29.28-.43.68-.43,1.2Z"/>
          <path class="cls-28" d="m159.07,228.12v1.29h-1.37v3.8c0,.26.05.45.16.57.11.12.29.18.54.18.08,0,.18,0,.3-.03.12-.02.22-.04.3-.05l.26,1.28c-.18.05-.37.09-.56.12-.19.02-.37.04-.55.04-.68,0-1.2-.17-1.57-.51s-.55-.82-.55-1.45v-3.94h-1.01v-1.29h1.01v-1.69h1.65v1.69h1.37Z"/>
          <path class="cls-28" d="m163.39,235.36c-.71,0-1.33-.15-1.84-.45-.51-.3-.91-.72-1.19-1.27-.28-.54-.42-1.19-.42-1.93s.14-1.37.41-1.92c.27-.55.66-.98,1.16-1.29.5-.31,1.09-.47,1.77-.47.58,0,1.11.13,1.6.38.49.25.89.64,1.19,1.17.3.53.45,1.2.45,2.03v.52h-4.94c.02.63.2,1.11.53,1.44.33.33.76.5,1.29.5.36,0,.68-.08.94-.23.26-.16.45-.39.56-.69l1.52.31c-.17.57-.52,1.03-1.05,1.38-.53.35-1.19.52-1.98.52Zm-1.8-4.35h3.33c-.05-.51-.21-.92-.49-1.22-.27-.31-.66-.46-1.15-.46s-.9.16-1.2.49-.46.72-.5,1.2Z"/>
          <path class="cls-28" d="m169.59,231.06v4.16h-1.65v-7.1h1.56l.02,1.42c.42-1,1.16-1.5,2.2-1.5.73,0,1.32.23,1.76.7.44.46.66,1.12.66,1.97v4.51h-1.65v-4.26c0-.47-.12-.85-.37-1.12s-.58-.41-1.02-.41-.8.14-1.09.42c-.29.28-.43.68-.43,1.2Z"/>
          <path class="cls-28" d="m179.17,228.12v1.29h-1.37v3.8c0,.26.05.45.16.57.11.12.29.18.54.18.08,0,.18,0,.3-.03.12-.02.22-.04.3-.05l.26,1.28c-.18.05-.37.09-.56.12s-.37.04-.55.04c-.68,0-1.2-.17-1.57-.51-.36-.34-.54-.82-.54-1.45v-3.94h-1.01v-1.29h1.01v-1.69h1.65v1.69h1.37Z"/>
        </g>
      </g>
    </g>
  </g>
  <g id="alinea-EntryTree-tree-item-icon9">
    <g id="alinea-Icon19">
      <g class="cls-15">
        <g id="svg19" class="cls-32">
          <g>
            <path class="cls-25" d="m57.5,257.91h-3.5v8h6v-5.5h-2.5v-2.5Zm1.5,7h-4v-1h4v1Zm0-3v1h-4v-1h4Z"/>
            <path class="cls-27" d="m55,263.91h4v1h-4v-1Zm0-2h4v1h-4v-1Zm3-5h-4c-.55,0-1,.45-1,1v8c0,.55.44,1,.99,1h6.01c.55,0,1-.45,1-1v-6l-3-3Zm2,9h-6v-8h3.5v2.5h2.5v5.5Z"/>
          </g>
        </g>
      </g>
    </g>
  </g>
  <g class="cls-16">
    <g id="alinea-EntryTree-tree-item-label-itemName9">
      <g class="cls-26" text-rendering="auto">
        <g class="cls-26">
          <path class="cls-27" d="m71.14,267.23v-9.46h5.76v1.07h-4.56v3.08h4.25v1.07h-4.25v3.17h4.61v1.07h-5.82Z"/>
          <path class="cls-27" d="m81.48,267.38c-.59,0-1.11-.15-1.56-.45s-.81-.73-1.06-1.28c-.25-.55-.38-1.2-.38-1.96s.13-1.4.38-1.95c.26-.55.61-.97,1.06-1.27.45-.3.97-.45,1.56-.45.46,0,.83.08,1.1.23s.48.33.63.52c.15.19.26.35.33.48h.09v-3.5h1.14v9.46h-1.1v-1.1h-.13c-.08.13-.19.29-.34.49-.15.2-.36.37-.63.53-.27.15-.64.23-1.09.23Zm.17-1.02c.64,0,1.14-.25,1.48-.74.34-.5.51-1.14.51-1.93s-.17-1.42-.5-1.9c-.34-.48-.83-.72-1.49-.72-.45,0-.82.12-1.12.35-.3.23-.52.55-.67.94-.15.4-.22.84-.22,1.33s.08.94.23,1.35c.15.4.38.73.68.96.3.24.67.36,1.11.36Z"/>
          <path class="cls-27" d="m87.35,258.97c-.22,0-.4-.07-.56-.22-.16-.15-.23-.33-.23-.53s.08-.39.23-.54c.16-.15.34-.22.56-.22s.41.07.56.22c.16.14.23.32.23.54s-.08.39-.23.53c-.16.15-.34.22-.56.22Zm-.58,8.26v-7.1h1.14v7.1h-1.14Z"/>
          <path class="cls-27" d="m92.72,260.13v.98h-1.46v4.28c0,.32.06.55.19.7.13.14.34.22.64.22.07,0,.16,0,.28-.03.11-.02.21-.03.31-.05l.23.96c-.12.04-.25.07-.4.09-.15.02-.3.03-.45.03-.61,0-1.09-.16-1.43-.49s-.51-.78-.51-1.36v-4.37h-1.07v-.98h1.07v-1.69h1.14v1.69h1.46Z"/>
          <path class="cls-27" d="m94.76,258.97c-.22,0-.4-.07-.56-.22-.16-.15-.23-.33-.23-.53s.08-.39.23-.54c.16-.15.34-.22.56-.22s.41.07.56.22c.16.14.23.32.23.54s-.08.39-.23.53c-.16.15-.34.22-.56.22Zm-.58,8.26v-7.1h1.14v7.1h-1.14Z"/>
          <path class="cls-27" d="m98.47,262.98v4.25h-1.14v-7.1h1.1v1.31c.23-.5.53-.86.9-1.08.37-.22.79-.32,1.27-.32.72,0,1.3.22,1.74.67s.66,1.12.66,2.01v4.51h-1.14v-4.41c0-.55-.14-.97-.43-1.28-.29-.31-.68-.46-1.17-.46s-.94.17-1.28.5c-.34.33-.51.8-.51,1.41Z"/>
          <path class="cls-27" d="m107.88,270.04c-.79,0-1.42-.14-1.89-.43-.47-.29-.81-.63-1.03-1.02l.93-.6c.1.14.23.29.38.45.15.17.35.31.61.42.26.12.59.17,1.01.17.57,0,1.03-.14,1.4-.41.37-.27.55-.7.55-1.28v-1.42h-.11c-.08.13-.19.3-.34.48-.15.19-.36.35-.63.49-.27.14-.64.21-1.09.21-.57,0-1.08-.13-1.53-.4-.45-.27-.81-.66-1.07-1.18s-.39-1.14-.39-1.89.13-1.37.39-1.91c.26-.54.61-.96,1.07-1.25.45-.3.98-.45,1.56-.45.46,0,.82.08,1.09.23.27.15.48.32.63.52s.26.36.34.48h.11v-1.14h1.11v7.28c0,.61-.14,1.11-.41,1.5s-.65.67-1.11.85c-.47.18-.99.27-1.56.27Zm-.03-3.94c.64,0,1.14-.22,1.48-.66.34-.44.51-1.04.51-1.82s-.17-1.37-.5-1.84c-.34-.48-.83-.71-1.49-.71-.45,0-.82.12-1.12.35-.3.23-.53.54-.68.92-.15.39-.23.81-.23,1.29,0,.73.17,1.32.51,1.78s.85.69,1.51.69Z"/>
          <path class="cls-27" d="m119.52,267.38c-.64,0-1.21-.15-1.69-.46-.48-.3-.86-.73-1.13-1.28-.27-.55-.41-1.19-.41-1.92s.14-1.39.41-1.94c.27-.55.65-.98,1.13-1.29.48-.3,1.05-.46,1.69-.46.69,0,1.29.17,1.81.52.52.35.87.83,1.07,1.44l-1.1.31c-.11-.36-.31-.66-.62-.9-.31-.23-.69-.35-1.16-.35s-.86.12-1.17.37c-.3.25-.53.57-.68.97s-.22.84-.22,1.31.07.9.22,1.3.37.72.68.97.69.37,1.17.37.87-.12,1.18-.37c.31-.24.52-.56.62-.94l1.09.31c-.19.63-.55,1.12-1.07,1.48-.52.36-1.13.54-1.83.54Z"/>
          <path class="cls-27" d="m126.95,267.38c-.64,0-1.21-.15-1.69-.46-.48-.3-.86-.73-1.13-1.28-.27-.55-.41-1.19-.41-1.92s.14-1.39.41-1.94c.27-.55.65-.98,1.13-1.29.48-.3,1.05-.46,1.69-.46s1.21.15,1.7.46.87.73,1.14,1.29c.27.55.41,1.2.41,1.94s-.14,1.37-.41,1.92c-.27.55-.65.98-1.14,1.28s-1.05.46-1.7.46Zm0-1.02c.48,0,.87-.12,1.18-.37s.54-.57.69-.97.22-.83.22-1.3-.07-.91-.22-1.31-.38-.73-.69-.98c-.31-.25-.7-.37-1.18-.37s-.86.12-1.17.37c-.3.25-.53.57-.68.97s-.22.84-.22,1.31.07.9.22,1.3.37.72.68.97.69.37,1.17.37Z"/>
          <path class="cls-27" d="m133,262.98v4.25h-1.14v-7.1h1.1v1.31c.23-.5.53-.86.9-1.08.37-.22.79-.32,1.27-.32.72,0,1.3.22,1.74.67s.66,1.12.66,2.01v4.51h-1.14v-4.41c0-.55-.14-.97-.43-1.28-.29-.31-.68-.46-1.17-.46s-.94.17-1.28.5c-.34.33-.51.8-.51,1.41Z"/>
          <path class="cls-27" d="m142.33,260.13v.98h-1.46v4.28c0,.32.06.55.19.7.13.14.34.22.64.22.07,0,.16,0,.28-.03.11-.02.21-.03.31-.05l.24.96c-.12.04-.25.07-.4.09s-.3.03-.45.03c-.61,0-1.09-.16-1.43-.49s-.51-.78-.51-1.36v-4.37h-1.07v-.98h1.07v-1.69h1.14v1.69h1.46Z"/>
          <path class="cls-27" d="m146.65,267.38c-.69,0-1.28-.15-1.78-.46-.5-.3-.88-.73-1.15-1.28-.27-.55-.4-1.18-.4-1.91s.13-1.37.39-1.92c.26-.55.63-.99,1.12-1.3.48-.31,1.04-.47,1.68-.47.38,0,.75.06,1.11.19.37.12.7.33,1,.6s.54.64.71,1.09.27,1.01.27,1.66v.48h-5.13c.03.74.24,1.31.64,1.7.4.4.91.59,1.54.59.42,0,.78-.09,1.08-.28s.52-.46.65-.82l1.11.3c-.17.54-.5.97-1,1.3s-1.12.5-1.84.5Zm-2.17-4.28h3.96c-.06-.61-.25-1.1-.57-1.48-.32-.38-.78-.57-1.36-.57-.41,0-.76.1-1.05.29-.29.19-.53.44-.7.75-.17.31-.27.65-.29,1.01Z"/>
          <path class="cls-27" d="m152.39,262.98v4.25h-1.14v-7.1h1.1v1.31c.23-.5.53-.86.9-1.08.37-.22.79-.32,1.27-.32.72,0,1.3.22,1.74.67.44.44.66,1.12.66,2.01v4.51h-1.14v-4.41c0-.55-.14-.97-.43-1.28s-.68-.46-1.17-.46-.94.17-1.28.5c-.34.33-.51.8-.51,1.41Z"/>
          <path class="cls-27" d="m161.72,260.13v.98h-1.46v4.28c0,.32.06.55.19.7.13.14.34.22.64.22.07,0,.16,0,.28-.03.11-.02.21-.03.31-.05l.23.96c-.12.04-.25.07-.4.09-.15.02-.3.03-.45.03-.61,0-1.09-.16-1.43-.49s-.51-.78-.51-1.36v-4.37h-1.07v-.98h1.07v-1.69h1.14v1.69h1.46Z"/>
        </g>
      </g>
    </g>
  </g>
  <g id="alinea-EntryTree-tree-item-icon10">
    <g id="alinea-Icon20">
      <g class="cls-4">
        <g id="svg20" class="cls-32">
          <g>
            <path class="cls-25" d="m57.5,289.91h-3.5v8h6v-5.5h-2.5v-2.5Zm1.5,7h-4v-1h4v1Zm0-3v1h-4v-1h4Z"/>
            <path class="cls-27" d="m55,295.91h4v1h-4v-1Zm0-2h4v1h-4v-1Zm3-5h-4c-.55,0-1,.45-1,1v8c0,.55.44,1,.99,1h6.01c.55,0,1-.45,1-1v-6l-3-3Zm2,9h-6v-8h3.5v2.5h2.5v5.5Z"/>
          </g>
        </g>
      </g>
    </g>
  </g>
  <g class="cls-5">
    <g id="alinea-EntryTree-tree-item-label-itemName10">
      <g class="cls-26" text-rendering="auto">
        <g class="cls-26">
          <path class="cls-27" d="m71.14,299.23v-9.46h1.21v8.39h4.38v1.07h-5.59Z"/>
          <path class="cls-27" d="m78.93,290.97c-.22,0-.4-.07-.56-.22s-.23-.33-.23-.53.08-.39.23-.54c.16-.15.34-.22.56-.22s.41.07.56.22c.16.15.23.32.23.54s-.08.38-.23.53-.34.22-.56.22Zm-.58,8.26v-7.1h1.14v7.1h-1.14Z"/>
          <path class="cls-27" d="m83.55,299.23l-2.71-7.1h1.25l1.51,4.21c.11.31.21.62.3.92s.17.61.25.9c.08-.3.16-.6.25-.9.09-.31.19-.61.29-.92l1.51-4.21h1.25l-2.71,7.1h-1.2Z"/>
          <path class="cls-27" d="m91.54,299.38c-.69,0-1.28-.15-1.77-.46-.5-.3-.88-.73-1.15-1.28-.27-.55-.4-1.18-.4-1.91s.13-1.37.39-1.92c.26-.55.63-.99,1.11-1.3.48-.31,1.04-.47,1.69-.47.38,0,.75.06,1.11.19.37.12.7.33,1,.6.3.28.54.64.71,1.09.18.45.27,1.01.27,1.66v.48h-5.13c.03.74.24,1.31.64,1.7.4.4.91.59,1.54.59.42,0,.78-.09,1.08-.28.3-.18.52-.46.65-.82l1.1.3c-.17.54-.5.97-1,1.3-.5.33-1.12.5-1.84.5Zm-2.16-4.28h3.96c-.06-.61-.24-1.1-.57-1.48-.32-.38-.78-.57-1.36-.57-.41,0-.76.1-1.05.29-.29.19-.53.44-.7.75-.17.31-.26.64-.29,1.01Z"/>
          <path class="cls-27" d="m99.79,301.88v-9.75h1.1v1.14h.13c.08-.13.19-.29.34-.48s.35-.37.62-.52.64-.23,1.1-.23c.59,0,1.11.15,1.56.44.45.3.8.72,1.06,1.27.26.55.38,1.2.38,1.95s-.13,1.41-.38,1.96-.61.98-1.06,1.28c-.45.3-.97.45-1.56.45-.45,0-.81-.08-1.09-.23s-.49-.33-.63-.53c-.15-.2-.26-.36-.34-.49h-.09v3.75h-1.14Zm3.12-3.52c.44,0,.82-.12,1.11-.36.3-.24.52-.56.67-.96.15-.4.23-.85.23-1.35s-.07-.93-.22-1.33-.37-.71-.67-.94c-.3-.23-.67-.35-1.12-.35-.65,0-1.15.24-1.49.72s-.51,1.11-.51,1.9.17,1.43.51,1.93.84.74,1.48.74Z"/>
          <path class="cls-27" d="m107.75,299.23v-7.1h1.1v1.09h.08c.13-.36.37-.65.7-.87.34-.22.72-.33,1.14-.33.08,0,.19,0,.3,0,.12,0,.21,0,.28.01v1.15s-.12-.02-.25-.04-.28-.03-.43-.03c-.51,0-.94.16-1.27.47-.33.31-.5.71-.5,1.18v4.44h-1.14Z"/>
          <path class="cls-27" d="m115.41,299.38c-.69,0-1.28-.15-1.77-.46-.5-.3-.88-.73-1.15-1.28-.27-.55-.4-1.18-.4-1.91s.13-1.37.39-1.92c.26-.55.63-.99,1.11-1.3.48-.31,1.04-.47,1.69-.47.38,0,.75.06,1.11.19.37.12.7.33,1,.6.3.28.54.64.71,1.09.18.45.27,1.01.27,1.66v.48h-5.13c.03.74.24,1.31.64,1.7.4.4.91.59,1.54.59.42,0,.78-.09,1.08-.28.3-.18.52-.46.65-.82l1.1.3c-.17.54-.5.97-1,1.3-.5.33-1.12.5-1.84.5Zm-2.16-4.28h3.96c-.06-.61-.24-1.1-.57-1.48-.32-.38-.78-.57-1.36-.57-.41,0-.76.1-1.05.29-.29.19-.53.44-.7.75-.17.31-.26.64-.29,1.01Z"/>
          <path class="cls-27" d="m121.8,299.23l-2.71-7.1h1.25l1.51,4.21c.11.31.21.62.3.92s.17.61.25.9c.08-.3.16-.6.25-.9.09-.31.19-.61.29-.92l1.51-4.21h1.25l-2.71,7.1h-1.2Z"/>
          <path class="cls-27" d="m127.64,290.97c-.22,0-.4-.07-.56-.22s-.23-.33-.23-.53.08-.39.23-.54c.16-.15.34-.22.56-.22s.41.07.56.22c.16.15.23.32.23.54s-.08.38-.23.53-.34.22-.56.22Zm-.58,8.26v-7.1h1.14v7.1h-1.14Z"/>
          <path class="cls-27" d="m133.19,299.38c-.69,0-1.28-.15-1.77-.46-.5-.3-.88-.73-1.15-1.28-.27-.55-.4-1.18-.4-1.91s.13-1.37.39-1.92c.26-.55.63-.99,1.11-1.3.48-.31,1.04-.47,1.69-.47.38,0,.75.06,1.11.19.37.12.7.33,1,.6.3.28.54.64.71,1.09.18.45.27,1.01.27,1.66v.48h-5.13c.03.74.24,1.31.64,1.7.4.4.91.59,1.54.59.42,0,.78-.09,1.08-.28.3-.18.52-.46.65-.82l1.1.3c-.17.54-.5.97-1,1.3-.5.33-1.12.5-1.84.5Zm-2.16-4.28h3.96c-.06-.61-.24-1.1-.57-1.48-.32-.38-.78-.57-1.36-.57-.41,0-.76.1-1.05.29-.29.19-.53.44-.7.75-.17.31-.26.64-.29,1.01Z"/>
          <path class="cls-27" d="m139.14,299.23l-2.15-7.1h1.21l.86,3.1c.1.37.21.78.33,1.24.12.46.24.97.35,1.53.11-.54.23-1.04.34-1.5.11-.46.22-.88.33-1.28l.85-3.1h1.22l.84,3.1c.1.38.21.8.32,1.25.11.46.22.96.33,1.5.12-.54.24-1.04.35-1.5.12-.46.23-.88.33-1.26l.86-3.1h1.21l-2.15,7.1h-1.14l-.92-3.21c-.12-.41-.23-.83-.34-1.26-.11-.43-.22-.87-.33-1.33-.11.45-.21.9-.33,1.33-.11.44-.22.85-.34,1.25l-.92,3.21h-1.14Z"/>
          <path class="cls-27" d="m150.6,299.38c-.73,0-1.33-.16-1.82-.48-.48-.32-.79-.78-.91-1.4l1.09-.26c.1.39.29.67.57.86.28.18.63.27,1.06.27.5,0,.89-.11,1.18-.32.29-.21.44-.46.44-.76,0-.49-.35-.81-1.04-.98l-1.18-.28c-1.27-.3-1.9-.95-1.9-1.94,0-.41.11-.76.34-1.08.23-.31.54-.55.94-.73s.84-.26,1.35-.26c.73,0,1.3.16,1.7.48.4.32.69.73.85,1.23l-1.03.27c-.1-.25-.26-.49-.49-.69s-.57-.31-1.03-.31c-.42,0-.78.1-1.06.29-.28.19-.42.44-.42.74,0,.26.1.47.29.63.19.16.49.29.91.38l1.07.25c.64.15,1.12.39,1.43.71s.46.72.46,1.21c0,.42-.12.78-.35,1.11-.24.32-.56.58-.98.76s-.91.28-1.46.28Z"/>
        </g>
      </g>
    </g>
  </g>
  <g id="alinea-EntryTree-tree-item-icon11">
    <g id="alinea-Icon21">
      <g class="cls-6">
        <g id="svg21" class="cls-32">
          <g>
            <path class="cls-25" d="m57.5,321.91h-3.5v8h6v-5.5h-2.5v-2.5Zm1.5,7h-4v-1h4v1Zm0-3v1h-4v-1h4Z"/>
            <path class="cls-27" d="m55,327.91h4v1h-4v-1Zm0-2h4v1h-4v-1Zm3-5h-4c-.55,0-1,.45-1,1v8c0,.55.44,1,.99,1h6.01c.55,0,1-.45,1-1v-6l-3-3Zm2,9h-6v-8h3.5v2.5h2.5v5.5Z"/>
          </g>
        </g>
      </g>
    </g>
  </g>
  <g class="cls-7">
    <g id="alinea-EntryTree-tree-item-label-itemName11">
      <g class="cls-26" text-rendering="auto">
        <g class="cls-26">
          <path class="cls-27" d="m70.62,322.84v-1.07h7.15v1.07h-2.96v8.39h-1.21v-8.39h-2.98Z"/>
          <path class="cls-27" d="m78.47,333.8l.29-.99.12.03c.35.09.65.08.91-.04.25-.12.47-.43.64-.94l.2-.59-2.71-7.13h1.25l1.51,4.21c.11.31.21.62.3.92.09.3.17.61.25.9.08-.3.16-.6.25-.9.09-.3.19-.61.3-.92l1.52-4.21h1.24l-3.12,8.16c-.22.56-.5.98-.84,1.24-.35.27-.77.4-1.28.4-.2,0-.38-.01-.53-.04-.15-.03-.25-.06-.31-.09Z"/>
          <path class="cls-27" d="m85.89,333.88v-9.75h1.1v1.14h.13c.08-.13.19-.29.34-.48s.35-.37.62-.52.64-.23,1.1-.23c.59,0,1.11.15,1.56.44.45.3.8.72,1.06,1.27.26.55.38,1.2.38,1.95s-.13,1.41-.38,1.96-.61.98-1.06,1.28c-.45.3-.97.45-1.56.45-.45,0-.81-.08-1.09-.23s-.49-.33-.63-.53c-.15-.2-.26-.36-.34-.49h-.09v3.75h-1.14Zm3.12-3.52c.44,0,.82-.12,1.11-.36.3-.24.52-.56.67-.96.15-.4.23-.85.23-1.35s-.07-.93-.22-1.33-.37-.71-.67-.94c-.3-.23-.67-.35-1.12-.35-.65,0-1.15.24-1.49.72s-.51,1.11-.51,1.9.17,1.43.51,1.93.84.74,1.48.74Z"/>
          <path class="cls-27" d="m96.83,331.38c-.69,0-1.28-.15-1.77-.46-.5-.3-.88-.73-1.15-1.28-.27-.55-.4-1.18-.4-1.91s.13-1.37.39-1.92c.26-.55.63-.99,1.11-1.3.48-.31,1.04-.47,1.69-.47.38,0,.75.06,1.11.19.37.12.7.33,1,.6.3.28.54.64.71,1.09.18.45.27,1.01.27,1.66v.48h-5.13c.03.74.24,1.31.64,1.7.4.4.91.59,1.54.59.42,0,.78-.09,1.08-.28.3-.18.52-.46.65-.82l1.1.3c-.17.54-.5.97-1,1.3-.5.33-1.12.5-1.84.5Zm-2.16-4.28h3.96c-.06-.61-.24-1.1-.57-1.48-.32-.38-.78-.57-1.36-.57-.41,0-.76.1-1.05.29-.29.19-.53.44-.7.75-.17.31-.26.64-.29,1.01Z"/>
          <path class="cls-27" d="m104.59,331.39c-1.02,0-1.84-.24-2.44-.73s-.94-1.12-.99-1.91h1.24c.03.36.15.65.36.88s.47.4.8.51c.32.11.67.17,1.04.17.43,0,.81-.07,1.15-.21.34-.14.61-.34.81-.59s.3-.55.3-.88c0-.3-.09-.55-.26-.74-.17-.19-.4-.35-.68-.47s-.59-.23-.93-.32l-1.14-.32c-.76-.22-1.35-.52-1.78-.93s-.63-.92-.63-1.54c0-.53.14-1,.43-1.4.29-.4.68-.71,1.17-.93s1.04-.33,1.65-.33,1.17.11,1.65.33.86.52,1.13.9c.28.38.42.81.44,1.29h-1.18c-.06-.46-.27-.82-.66-1.07s-.86-.38-1.42-.38c-.61,0-1.11.14-1.48.43s-.56.66-.56,1.1c0,.33.1.6.31.8.21.2.45.36.73.47.28.11.54.2.77.26l.95.26c.25.07.53.16.84.28.31.12.6.28.88.47.28.2.51.45.69.75.18.3.27.67.27,1.11,0,.52-.13.98-.4,1.4-.27.42-.66.74-1.17.98-.51.24-1.13.36-1.86.36Z"/>
          <path class="cls-27" d="m112.66,331.38c-.64,0-1.21-.15-1.69-.46-.48-.3-.86-.73-1.13-1.28s-.41-1.19-.41-1.92.14-1.39.41-1.94c.27-.55.65-.98,1.13-1.29.48-.3,1.05-.46,1.69-.46.69,0,1.29.17,1.81.52.52.34.87.83,1.07,1.44l-1.1.31c-.11-.36-.31-.66-.62-.9-.31-.23-.69-.35-1.16-.35s-.86.12-1.17.37c-.3.25-.53.57-.68.97-.15.4-.22.84-.22,1.31s.07.9.22,1.3c.15.4.37.72.68.97.3.25.69.37,1.17.37s.87-.12,1.18-.37c.31-.24.52-.56.62-.94l1.09.31c-.19.63-.55,1.12-1.07,1.48s-1.13.54-1.83.54Z"/>
          <path class="cls-27" d="m117.19,331.23v-7.1h1.1v1.09h.08c.13-.36.37-.65.7-.87.34-.22.72-.33,1.14-.33.08,0,.19,0,.3,0,.12,0,.21,0,.28.01v1.15s-.12-.02-.25-.04-.28-.03-.43-.03c-.51,0-.94.16-1.27.47-.33.31-.5.71-.5,1.18v4.44h-1.14Z"/>
          <path class="cls-27" d="m122.79,322.97c-.22,0-.4-.07-.56-.22s-.23-.33-.23-.53.08-.39.23-.54c.16-.15.34-.22.56-.22s.41.07.56.22c.16.15.23.32.23.54s-.08.38-.23.53-.34.22-.56.22Zm-.58,8.26v-7.1h1.14v7.1h-1.14Z"/>
          <path class="cls-27" d="m125.36,333.88v-9.75h1.1v1.14h.13c.08-.13.19-.29.34-.48s.35-.37.62-.52.64-.23,1.1-.23c.59,0,1.11.15,1.56.44.45.3.8.72,1.06,1.27.26.55.38,1.2.38,1.95s-.13,1.41-.38,1.96-.61.98-1.06,1.28c-.45.3-.97.45-1.56.45-.45,0-.81-.08-1.09-.23s-.49-.33-.63-.53c-.15-.2-.26-.36-.34-.49h-.09v3.75h-1.14Zm3.12-3.52c.44,0,.82-.12,1.11-.36.3-.24.52-.56.67-.96.15-.4.23-.85.23-1.35s-.07-.93-.22-1.33-.37-.71-.67-.94c-.3-.23-.67-.35-1.12-.35-.65,0-1.15.24-1.49.72s-.51,1.11-.51,1.9.17,1.43.51,1.93.84.74,1.48.74Z"/>
          <path class="cls-27" d="m136.12,324.13v.98h-1.46v4.28c0,.32.06.55.19.7.13.15.34.22.64.22.07,0,.16,0,.28-.03.11-.02.21-.03.31-.05l.23.96c-.12.04-.25.07-.4.09-.15.02-.3.03-.45.03-.61,0-1.09-.16-1.43-.49-.34-.32-.51-.78-.51-1.36v-4.37h-1.07v-.98h1.07v-1.69h1.14v1.69h1.46Z"/>
        </g>
      </g>
    </g>
  </g>
  <g id="alinea-Icon22">
    <g class="cls-23">
      <g id="svg22">
        <path class="cls-27" d="m25.92,360.18l2.26-2.26-2.26-2.26c-.23-.23-.23-.6,0-.82s.6-.23.82,0l2.68,2.68c.23.23.23.59,0,.82l-2.68,2.68c-.23.23-.59.23-.82,0,0,0,0,0,0,0-.22-.23-.23-.6,0-.83Z"/>
      </g>
    </g>
  </g>
  <g id="alinea-EntryTree-tree-item-icon12">
    <g id="alinea-Icon23">
      <g class="cls-20">
        <g id="svg23" class="cls-32">
          <g>
            <path class="cls-25" d="m42.59,355.91l-.29-.3-.71-.7h-2.59v6h8v-5h-4.41Z"/>
            <path class="cls-27" d="m47,354.91h-4l-1-1h-3c-.55,0-1,.45-1,1v6c0,.55.45,1,1,1h8c.55,0,1-.45,1-1v-5c0-.55-.45-1-1-1m0,6h-8v-6h2.59l.7.7.3.3h4.41v5Z"/>
          </g>
        </g>
      </g>
    </g>
  </g>
  <g class="cls-21">
    <g id="alinea-EntryTree-tree-item-label-itemName12">
      <g class="cls-26" text-rendering="auto">
        <g class="cls-26">
          <path class="cls-27" d="m60.09,363.23h-2.95v-9.46h3.07c.92,0,1.71.19,2.36.57.65.38,1.16.92,1.5,1.62.35.71.52,1.55.52,2.52s-.18,1.83-.53,2.54-.86,1.25-1.54,1.63-1.49.57-2.45.57Zm-1.75-1.07h1.67c1.15,0,2.01-.33,2.57-.98.57-.65.85-1.55.85-2.7s-.28-2.03-.83-2.68-1.38-.97-2.48-.97h-1.78v7.33Z"/>
          <path class="cls-27" d="m69.37,363.38c-.69,0-1.28-.15-1.77-.46-.5-.3-.88-.73-1.15-1.28-.27-.55-.4-1.18-.4-1.91s.13-1.37.39-1.92c.26-.55.63-.99,1.11-1.3.48-.31,1.04-.47,1.69-.47.38,0,.75.06,1.11.19.37.12.7.33,1,.6.3.28.54.64.71,1.09.18.45.27,1.01.27,1.66v.48h-5.13c.03.74.24,1.31.64,1.7.4.4.91.59,1.54.59.42,0,.78-.09,1.08-.28.3-.18.52-.46.65-.82l1.1.3c-.17.54-.5.97-1,1.3-.5.33-1.12.5-1.84.5Zm-2.16-4.28h3.96c-.06-.61-.24-1.1-.57-1.48-.32-.38-.78-.57-1.36-.57-.41,0-.76.1-1.05.29-.29.19-.53.44-.7.75-.17.31-.26.64-.29,1.01Z"/>
          <path class="cls-27" d="m73.96,365.88v-9.75h1.1v1.14h.13c.08-.13.19-.29.34-.48s.35-.37.62-.52.64-.23,1.1-.23c.59,0,1.11.15,1.56.44.45.3.8.72,1.06,1.27.26.55.38,1.2.38,1.95s-.13,1.41-.38,1.96-.61.98-1.06,1.28c-.45.3-.97.45-1.56.45-.45,0-.81-.08-1.09-.23s-.49-.33-.63-.53c-.15-.2-.26-.36-.34-.49h-.09v3.75h-1.14Zm3.12-3.52c.44,0,.82-.12,1.11-.36.3-.24.52-.56.67-.96.15-.4.23-.85.23-1.35s-.07-.93-.22-1.33-.37-.71-.67-.94c-.3-.23-.67-.35-1.12-.35-.65,0-1.15.24-1.49.72s-.51,1.11-.51,1.9.17,1.43.51,1.93.84.74,1.48.74Z"/>
          <path class="cls-27" d="m83.07,353.77v9.46h-1.14v-9.46h1.14Z"/>
          <path class="cls-27" d="m87.96,363.38c-.64,0-1.21-.15-1.69-.46-.48-.3-.86-.73-1.13-1.28s-.41-1.19-.41-1.92.14-1.39.41-1.94c.27-.55.65-.98,1.13-1.29.48-.3,1.05-.46,1.69-.46s1.21.15,1.7.46.87.73,1.14,1.29c.27.55.41,1.2.41,1.94s-.14,1.37-.41,1.92-.65.98-1.14,1.28-1.05.46-1.7.46Zm0-1.02c.48,0,.87-.12,1.18-.37.31-.25.54-.57.69-.97.15-.4.22-.83.22-1.3s-.07-.91-.22-1.31-.38-.73-.69-.98c-.31-.25-.7-.37-1.18-.37s-.86.12-1.17.37c-.3.25-.53.57-.68.97-.15.4-.22.84-.22,1.31s.07.9.22,1.3c.15.4.37.72.68.97.3.25.69.37,1.17.37Z"/>
          <path class="cls-27" d="m92.5,365.8l.29-.99.12.03c.35.09.65.08.91-.04.25-.12.47-.43.64-.94l.2-.59-2.71-7.13h1.25l1.51,4.21c.11.31.21.62.3.92.09.3.17.61.25.9.08-.3.16-.6.25-.9.09-.3.19-.61.3-.92l1.52-4.21h1.24l-3.12,8.16c-.22.56-.5.98-.84,1.24-.35.27-.77.4-1.28.4-.2,0-.38-.01-.53-.04-.15-.03-.25-.06-.31-.09Z"/>
        </g>
      </g>
    </g>
  </g>
  <g id="alinea-Icon24">
    <g class="cls-22">
      <g id="svg24">
        <path class="cls-27" d="m25.92,392.18l2.26-2.26-2.26-2.26c-.23-.23-.23-.6,0-.82s.6-.23.82,0l2.68,2.68c.23.23.23.59,0,.82l-2.68,2.68c-.23.23-.59.23-.82,0,0,0,0,0,0,0-.22-.23-.23-.6,0-.83Z"/>
      </g>
    </g>
  </g>
  <g id="alinea-EntryTree-tree-item-icon13">
    <g id="alinea-Icon25">
      <g class="cls-2">
        <g id="svg25" class="cls-32">
          <g>
            <path class="cls-25" d="m42.59,387.91l-.29-.3-.71-.7h-2.59v6h8v-5h-4.41Z"/>
            <path class="cls-27" d="m47,386.91h-4l-1-1h-3c-.55,0-1,.45-1,1v6c0,.55.45,1,1,1h8c.55,0,1-.45,1-1v-5c0-.55-.45-1-1-1m0,6h-8v-6h2.59l.7.7.3.3h4.41v5Z"/>
          </g>
        </g>
      </g>
    </g>
  </g>
  <g class="cls-1">
    <g id="alinea-EntryTree-tree-item-label-itemName13">
      <g class="cls-26" text-rendering="auto">
        <g class="cls-26">
          <path class="cls-27" d="m57.14,395.23v-9.46h3.24c.74,0,1.34.13,1.82.38.48.25.83.6,1.06,1.04.23.44.35.94.35,1.5,0,.63-.14,1.17-.43,1.64-.29.47-.73.8-1.32,1.01l2.12,3.89h-1.4l-1.97-3.68c-.07,0-.15,0-.22,0h-2.04v3.67h-1.21Zm1.21-4.74h1.98c.74,0,1.28-.16,1.6-.48.32-.32.48-.76.48-1.31s-.16-1.01-.48-1.35c-.32-.34-.86-.51-1.61-.51h-1.97v3.66Z"/>
          <path class="cls-27" d="m68.16,395.38c-.69,0-1.28-.15-1.77-.46-.5-.3-.88-.73-1.15-1.28-.27-.55-.4-1.18-.4-1.91s.13-1.37.39-1.92c.26-.55.63-.99,1.11-1.3.48-.31,1.04-.47,1.69-.47.38,0,.75.06,1.11.19.37.12.7.33,1,.6.3.28.54.64.71,1.09.18.45.27,1.01.27,1.66v.48h-5.13c.03.74.24,1.31.64,1.7.4.4.91.59,1.54.59.42,0,.78-.09,1.08-.28.3-.18.52-.46.65-.82l1.1.3c-.17.54-.5.97-1,1.3-.5.33-1.12.5-1.84.5Zm-2.16-4.28h3.96c-.06-.61-.24-1.1-.57-1.48-.32-.38-.78-.57-1.36-.57-.41,0-.76.1-1.05.29-.29.19-.53.44-.7.75-.17.31-.26.64-.29,1.01Z"/>
          <path class="cls-27" d="m76.06,388.13v.98h-1.64v6.12h-1.14v-6.12h-1.4v-.98h1.4v-.95c0-.41.1-.75.29-1.03.19-.28.44-.48.75-.62.31-.14.63-.21.98-.21.27,0,.5.02.67.07.18.04.31.09.39.12l-.32.98c-.06-.02-.14-.04-.23-.07-.1-.03-.22-.04-.38-.04-.35,0-.61.09-.77.27s-.24.44-.24.78v.69h1.64Z"/>
          <path class="cls-27" d="m80.17,395.38c-.69,0-1.28-.15-1.77-.46-.5-.3-.88-.73-1.15-1.28-.27-.55-.4-1.18-.4-1.91s.13-1.37.39-1.92c.26-.55.63-.99,1.11-1.3.48-.31,1.04-.47,1.69-.47.38,0,.75.06,1.11.19.37.12.7.33,1,.6.3.28.54.64.71,1.09.18.45.27,1.01.27,1.66v.48h-5.13c.03.74.24,1.31.64,1.7.4.4.91.59,1.54.59.42,0,.78-.09,1.08-.28.3-.18.52-.46.65-.82l1.1.3c-.17.54-.5.97-1,1.3-.5.33-1.12.5-1.84.5Zm-2.16-4.28h3.96c-.06-.61-.24-1.1-.57-1.48-.32-.38-.78-.57-1.36-.57-.41,0-.76.1-1.05.29-.29.19-.53.44-.7.75-.17.31-.26.64-.29,1.01Z"/>
          <path class="cls-27" d="m84.77,395.23v-7.1h1.1v1.09h.08c.13-.36.37-.65.7-.87.34-.22.72-.33,1.14-.33.08,0,.19,0,.3,0,.12,0,.21,0,.28.01v1.15s-.12-.02-.25-.04-.28-.03-.43-.03c-.51,0-.94.16-1.27.47-.33.31-.5.71-.5,1.18v4.44h-1.14Z"/>
          <path class="cls-27" d="m92.43,395.38c-.69,0-1.28-.15-1.77-.46-.5-.3-.88-.73-1.15-1.28-.27-.55-.4-1.18-.4-1.91s.13-1.37.39-1.92c.26-.55.63-.99,1.11-1.3.48-.31,1.04-.47,1.69-.47.38,0,.75.06,1.11.19.37.12.7.33,1,.6.3.28.54.64.71,1.09.18.45.27,1.01.27,1.66v.48h-5.13c.03.74.24,1.31.64,1.7.4.4.91.59,1.54.59.42,0,.78-.09,1.08-.28.3-.18.52-.46.65-.82l1.1.3c-.17.54-.5.97-1,1.3-.5.33-1.12.5-1.84.5Zm-2.16-4.28h3.96c-.06-.61-.24-1.1-.57-1.48-.32-.38-.78-.57-1.36-.57-.41,0-.76.1-1.05.29-.29.19-.53.44-.7.75-.17.31-.26.64-.29,1.01Z"/>
          <path class="cls-27" d="m98.17,390.98v4.25h-1.14v-7.1h1.1v1.31c.23-.5.53-.86.9-1.08.37-.22.79-.32,1.27-.32.72,0,1.3.22,1.74.67.44.45.66,1.12.66,2.01v4.51h-1.14v-4.41c0-.54-.14-.97-.43-1.28-.29-.31-.68-.46-1.17-.46s-.94.17-1.28.5c-.34.33-.51.8-.51,1.41Z"/>
          <path class="cls-27" d="m107.59,395.38c-.64,0-1.21-.15-1.69-.46-.48-.3-.86-.73-1.13-1.28s-.41-1.19-.41-1.92.14-1.39.41-1.94c.27-.55.65-.98,1.13-1.29.48-.3,1.05-.46,1.69-.46.69,0,1.29.17,1.81.52.52.34.87.83,1.07,1.44l-1.1.31c-.11-.36-.31-.66-.62-.9-.31-.23-.69-.35-1.16-.35s-.86.12-1.17.37c-.3.25-.53.57-.68.97-.15.4-.22.84-.22,1.31s.07.9.22,1.3c.15.4.37.72.68.97.3.25.69.37,1.17.37s.87-.12,1.18-.37c.31-.24.52-.56.62-.94l1.09.31c-.19.63-.55,1.12-1.07,1.48s-1.13.54-1.83.54Z"/>
          <path class="cls-27" d="m115.12,395.38c-.69,0-1.28-.15-1.77-.46-.5-.3-.88-.73-1.15-1.28-.27-.55-.4-1.18-.4-1.91s.13-1.37.39-1.92c.26-.55.63-.99,1.11-1.3.48-.31,1.04-.47,1.69-.47.38,0,.75.06,1.11.19.37.12.7.33,1,.6.3.28.54.64.71,1.09.18.45.27,1.01.27,1.66v.48h-5.13c.03.74.24,1.31.64,1.7.4.4.91.59,1.54.59.42,0,.78-.09,1.08-.28.3-.18.52-.46.65-.82l1.1.3c-.17.54-.5.97-1,1.3-.5.33-1.12.5-1.84.5Zm-2.16-4.28h3.96c-.06-.61-.24-1.1-.57-1.48-.32-.38-.78-.57-1.36-.57-.41,0-.76.1-1.05.29-.29.19-.53.44-.7.75-.17.31-.26.64-.29,1.01Z"/>
        </g>
      </g>
    </g>
  </g>
  <g class="cls-3">
    <g id="alinea-EntryTree-tree-item-label-itemName7-2" data-name="alinea-EntryTree-tree-item-label-itemName7">
      <g class="cls-26" text-rendering="auto">
        <g class="cls-26">
          <path class="cls-27" d="m57.14,174.22v-9.46h5.72v1.07h-4.51v3.24h4.08v1.07h-4.08v4.09h-1.21Z"/>
          <path class="cls-27" d="m65.25,165.96c-.22,0-.4-.07-.56-.22s-.23-.33-.23-.53.08-.39.23-.54c.16-.15.34-.22.56-.22s.41.07.56.22c.16.15.23.32.23.54s-.08.39-.23.53-.34.22-.56.22Zm-.58,8.26v-7.1h1.14v7.1h-1.14Z"/>
          <path class="cls-27" d="m70.81,174.37c-.69,0-1.28-.15-1.77-.46-.5-.3-.88-.73-1.15-1.28-.27-.55-.4-1.18-.4-1.91s.13-1.37.39-1.92.63-.99,1.11-1.3c.48-.31,1.04-.47,1.69-.47.38,0,.75.06,1.11.19.37.12.7.33,1,.6.3.28.54.64.71,1.1s.27,1.01.27,1.66v.48h-5.13c.03.74.24,1.31.64,1.7s.91.59,1.54.59c.42,0,.78-.09,1.08-.28.3-.18.52-.46.65-.82l1.1.3c-.17.54-.5.97-1,1.3-.5.33-1.12.5-1.84.5Zm-2.16-4.28h3.96c-.06-.6-.24-1.1-.57-1.48-.32-.38-.78-.57-1.36-.57-.41,0-.76.1-1.05.29-.29.19-.53.44-.7.75s-.26.65-.29,1.01Z"/>
          <path class="cls-27" d="m76.55,164.76v9.46h-1.14v-9.46h1.14Z"/>
          <path class="cls-27" d="m81.21,174.37c-.59,0-1.11-.15-1.56-.45s-.81-.73-1.06-1.28-.38-1.2-.38-1.96.13-1.4.38-1.95c.26-.55.61-.97,1.06-1.27s.97-.44,1.56-.44c.46,0,.83.08,1.1.23s.48.32.63.52c.15.19.26.35.33.48h.09v-3.5h1.14v9.46h-1.1v-1.1h-.13c-.08.13-.19.3-.34.49-.15.2-.36.37-.63.53-.27.15-.64.23-1.09.23Zm.17-1.02c.64,0,1.14-.25,1.48-.74s.51-1.14.51-1.93-.17-1.42-.5-1.9c-.34-.48-.83-.72-1.49-.72-.45,0-.82.12-1.12.35-.3.23-.52.55-.67.94-.15.4-.22.84-.22,1.33s.08.94.23,1.35c.15.4.38.73.68.96.3.24.67.36,1.11.36Z"/>
          <path class="cls-27" d="m88.93,174.37c-.73,0-1.33-.16-1.82-.48s-.79-.78-.91-1.4l1.09-.26c.1.39.29.67.57.86.28.18.63.27,1.06.27.5,0,.89-.11,1.18-.32.29-.21.44-.46.44-.76,0-.49-.35-.81-1.04-.98l-1.18-.28c-1.27-.3-1.9-.95-1.9-1.94,0-.41.11-.76.34-1.08.23-.31.54-.55.94-.73.4-.18.85-.26,1.35-.26.73,0,1.3.16,1.7.48.4.32.69.73.85,1.23l-1.03.27c-.1-.25-.26-.48-.49-.69-.23-.21-.57-.31-1.02-.31-.42,0-.78.1-1.06.29-.28.19-.42.44-.42.74,0,.26.1.47.29.63.19.16.49.29.91.38l1.07.25c.64.15,1.12.39,1.43.71.31.32.46.72.46,1.21,0,.41-.12.78-.35,1.11-.24.32-.56.58-.98.76-.42.19-.91.28-1.46.28Z"/>
        </g>
      </g>
    </g>
  </g>
</svg>