<svg width="154.9" height="47" viewBox="0 0 154.9 47" xmlns="http://www.w3.org/2000/svg">
	<style>
		@media (prefers-color-scheme: dark) {
			path {fill: white}
		}
	</style>
	<path fill="#1F232A" d="M23.6,16.3v2.4c-1.6-2-4.2-3.2-7.6-3.2C9.3,15.5,3.8,21.4,3.8,29S9.3,42.5,16,42.5c3.4,0,5.9-1.2,7.6-3.1v2.4
		h7.7V16.3H23.6z M17.6,35.3c-3.5,0-6.1-2.4-6.1-6.2s2.6-6.2,6.1-6.2s6.1,2.4,6.1,6.2S21.1,35.3,17.6,35.3z M36.9,41.8h7.7V4.5h-7.7
		V41.8z M54.1,14c2.5,0,4.6-2.1,4.6-4.6s-2.1-4.6-4.6-4.6s-4.6,2.1-4.6,4.6S51.5,14,54.1,14z M50.2,41.8h7.7V16.3h-7.7V41.8z
		M78.5,15.5c-3.4,0-5.9,1.2-7.3,3.1v-2.4h-7.7v25.6h7.7v-14c0-3.6,1.9-5.3,4.8-5.3c2.5,0,4.4,1.5,4.4,4.7v14.6H88V26.1
		C88,19.2,83.6,15.5,78.5,15.5z M100.2,32.1h18.2c0.2-1,0.3-2,0.3-3.1c0-7.7-5.5-13.5-13-13.5c-8.1,0-13.6,5.9-13.6,13.5
		s5.4,13.5,14.2,13.5c4.9,0,8.6-1.8,11.1-5.3l-6.1-3.5c-1,1.1-2.8,1.9-4.9,1.9C103.5,35.7,101.1,34.8,100.2,32.1z M100,26.4
		c0.7-2.6,2.7-4,5.6-4c2.3,0,4.6,1.1,5.4,4H100z M141.3,16.3v2.4c-1.7-1.9-4.2-3.1-7.6-3.1c-6.7,0-12.2,5.9-12.2,13.5
		s5.5,13.5,12.2,13.5c3.4,0,5.9-1.2,7.6-3.1v2.4h7.7V16.3H141.3z M135.2,35.3c-3.5,0-6.1-2.4-6.1-6.2s2.6-6.2,6.1-6.2
		s6.1,2.4,6.1,6.2S138.7,35.3,135.2,35.3z"/>
</svg>
