<?xml version="1.0" encoding="UTF-8"?><svg id="a" xmlns="http://www.w3.org/2000/svg" viewBox="0 0 200 70.96"><defs><style>.b{fill:#fff;}</style></defs><path class="b" d="M55.16,27.6l7.26,17.24c.94,2.23,2.17,3.34,3.68,3.34l1.38-.03h14.38c3.17,0,4.75,1.08,4.75,3.23,0,1.58-.55,2.81-1.65,3.68s-2.67,1.31-4.71,1.31h-15.86c-4.36,0-7.39-2.06-9.08-6.19l-9.94-23.95-4.61,11.36c-2.2,5.44-3.77,9.11-4.7,11.03-.93,1.92-2,3.69-3.22,5.32-4.38,5.92-9.9,8.88-16.55,8.88-4.84,0-8.76-1.51-11.77-4.54-3.01-3.03-4.51-7-4.51-11.91,0-6.4,2.36-12.03,7.09-16.9,2.55-2.59,5.73-4.69,9.57-6.28,3.83-1.59,7.63-2.39,11.39-2.39,1.79,0,3.24,.41,4.35,1.22,1.11,.81,1.67,1.88,1.67,3.18,0,1.42-.6,2.56-1.79,3.41-.69,.48-2.02,.83-3.99,1.03-4.59,.41-8.27,1.46-11.05,3.13-2.34,1.42-4.19,3.26-5.54,5.51-1.35,2.25-2.03,4.6-2.03,7.05,0,2.59,.66,4.64,1.98,6.14,1.32,1.5,3.11,2.25,5.39,2.25,2.8,0,5.22-1.18,7.28-3.54,2.05-2.36,4.31-6.56,6.76-12.59l11.91-29.35h-3.54c-3.17,0-4.75-1.09-4.75-3.27,0-1.58,.55-2.8,1.65-3.66s2.66-1.29,4.68-1.29h11.42c2.98,0,5.17,.17,6.56,.52,1.39,.34,2.72,1.06,4.01,2.13,2.66,2.23,3.99,5.36,3.99,9.39,0,3.67-1.08,6.93-3.25,9.79s-5.03,4.78-8.59,5.76Zm-7.74-6.47l1-.07c2.62-.16,4.56-.67,5.85-1.51,2.48-1.63,3.72-3.82,3.72-6.57,0-3.17-1.51-4.75-4.54-4.75h-.76l-5.26,12.9Z"/><path class="b" d="M76.88,36.89c0,1.72,1.3,2.58,3.89,2.58h10.22c2.89,0,4.34,1.02,4.34,3.06,0,1.4-.51,2.49-1.53,3.27-1.02,.78-2.45,1.17-4.28,1.17h-9.74c-3.63,0-6.38-.89-8.28-2.68s-2.84-4.4-2.84-7.85c0-4.43,1.5-8.25,4.49-11.46,2.99-3.21,6.56-4.82,10.68-4.82,3.01,0,5.42,.79,7.24,2.36,1.82,1.57,2.74,3.64,2.74,6.21,0,3.1-1.26,5.39-3.79,6.88-1.4,.85-3.49,1.27-6.26,1.27h-6.88Zm1.65-6.26h3.79c2.45,0,3.65-.54,3.58-1.62-.07-1.22-.86-1.82-2.37-1.82-2.11,0-3.77,1.15-4.99,3.44Z"/><path class="b" d="M116.35,46.97h-9.98c-2.87,0-5.2-1.01-7-3.03-1.8-2.02-2.7-4.63-2.7-7.85,0-4.29,1.48-8.02,4.44-11.18,2.96-3.17,6.43-4.75,10.43-4.75,2.71,0,4.91,.76,6.61,2.27,1.7,1.51,2.55,3.49,2.55,5.92,0,1.7-.43,3.09-1.27,4.18-.85,1.09-1.94,1.63-3.27,1.63-2.11,0-3.17-.99-3.17-2.96v-.76c.02-.25,.03-.49,.03-.72,0-1.61-.79-2.41-2.37-2.41-1.49,0-2.85,.79-4.08,2.37-1.23,1.58-1.84,3.35-1.84,5.3,0,1.63,.5,2.78,1.5,3.46,1,.68,2.69,1.02,5.08,1.02h6.5c2.91,0,4.37,1.02,4.37,3.06,0,1.38-.52,2.46-1.57,3.25-1.04,.79-2.46,1.19-4.25,1.19Z"/><path class="b" d="M133,39.47h3.89c2.89,0,4.34,1.02,4.34,3.06,0,1.4-.51,2.49-1.53,3.27-1.02,.78-2.45,1.17-4.28,1.17h-5.47c-2.02,0-3.61-.41-4.77-1.24-1.16-.83-1.74-1.95-1.74-3.37,0-.76,.24-1.72,.72-2.89l5.68-13.97,.38-.96c1.05-2.59,2.75-3.89,5.09-3.89,.96,0,1.79,.32,2.49,.96,.7,.64,1.05,1.41,1.05,2.31,0,.73-.31,1.86-.93,3.37l-4.92,12.18Zm4.54-29.8c1.33,0,2.46,.46,3.39,1.39s1.39,2.06,1.39,3.39-.46,2.46-1.39,3.39-2.06,1.39-3.39,1.39-2.46-.46-3.39-1.39-1.39-2.06-1.39-3.39,.46-2.46,1.39-3.39,2.06-1.39,3.39-1.39Z"/><path class="b" d="M150,44.29l-8.98,22.09c-1.24,3.05-3.05,4.58-5.44,4.58-.92,0-1.7-.3-2.36-.91s-.98-1.34-.98-2.19c0-.71,.29-1.79,.86-3.23l16.59-40.88c.85-2.06,2.32-3.1,4.4-3.1,1.45,0,2.59,.69,3.44,2.06,1.6-1.7,3.57-2.55,5.88-2.55s4.35,.91,5.83,2.74,2.22,4.23,2.22,7.21c0,5.64-1.75,10.24-5.26,13.8-1.15,1.17-2.33,1.97-3.54,2.41-1.22,.44-2.91,.65-5.09,.65-2.34,0-3.95-.16-4.83-.48-.88-.32-1.8-1.05-2.74-2.2Zm2.82-7.02c.57,1.01,1.12,1.66,1.63,1.96,.52,.3,1.34,.45,2.46,.45,1.63,0,2.9-.61,3.82-1.82,1.86-2.45,2.79-4.98,2.79-7.57,0-2.22-1.06-3.34-3.17-3.34-2.32,0-3.98,1.34-4.99,4.03-.12,.3-.21,.55-.28,.76l-2.27,5.54Z"/><path class="b" d="M181.56,36.89c0,1.72,1.3,2.58,3.89,2.58h10.22c2.89,0,4.34,1.02,4.34,3.06,0,1.4-.51,2.49-1.53,3.27-1.02,.78-2.45,1.17-4.28,1.17h-9.74c-3.63,0-6.38-.89-8.28-2.68s-2.84-4.4-2.84-7.85c0-4.43,1.5-8.25,4.49-11.46,2.99-3.21,6.56-4.82,10.68-4.82,3.01,0,5.42,.79,7.24,2.36,1.82,1.57,2.74,3.64,2.74,6.21,0,3.1-1.26,5.39-3.79,6.88-1.4,.85-3.49,1.27-6.26,1.27h-6.88Zm1.65-6.26h3.79c2.45,0,3.65-.54,3.58-1.62-.07-1.22-.86-1.82-2.37-1.82-2.11,0-3.77,1.15-4.99,3.44Z"/></svg>